%TF.GenerationSoftware,KiCad,Pcbnew,7.0.1*%
%TF.CreationDate,2023-04-30T14:25:00+01:00*%
%TF.ProjectId,40key,34306b65-792e-46b6-9963-61645f706362,rev?*%
%TF.SameCoordinates,Original*%
%TF.FileFunction,Drillmap*%
%TF.FilePolarity,Positive*%
%FSLAX45Y45*%
G04 Gerber Fmt 4.5, Leading zero omitted, Abs format (unit mm)*
G04 Created by KiCad (PCBNEW 7.0.1) date 2023-04-30 14:25:00*
%MOMM*%
%LPD*%
G01*
G04 APERTURE LIST*
%ADD10C,0.100000*%
%ADD11C,0.200000*%
%ADD12C,0.175000*%
%ADD13C,0.304800*%
%ADD14C,0.398780*%
G04 APERTURE END LIST*
D10*
X3619500Y-3476625D02*
X26479500Y-3476625D01*
X3619500Y-3476625D02*
G75*
G03*
X3333750Y-3762375I0J-285750D01*
G01*
X26479500Y-12096750D02*
G75*
G03*
X26765250Y-11811000I0J285750D01*
G01*
X26479500Y-12096750D02*
X3619500Y-12096750D01*
X26765250Y-3762375D02*
X26765250Y-11811000D01*
X3333750Y-11811000D02*
G75*
G03*
X3619500Y-12096750I285750J0D01*
G01*
X3333750Y-11811000D02*
X3333750Y-3762375D01*
X26765245Y-3762375D02*
G75*
G03*
X26479500Y-3476625I-285745J5D01*
G01*
D11*
D12*
X3738375Y-5341750D02*
X3913375Y-5516750D01*
X3913375Y-5341750D02*
X3738375Y-5516750D01*
X3976500Y-7246750D02*
X4151500Y-7421750D01*
X4151500Y-7246750D02*
X3976500Y-7421750D01*
X3976500Y-11056750D02*
X4151500Y-11231750D01*
X4151500Y-11056750D02*
X3976500Y-11231750D01*
X4452750Y-9151750D02*
X4627750Y-9326750D01*
X4627750Y-9151750D02*
X4452750Y-9326750D01*
X4754375Y-5341750D02*
X4929375Y-5516750D01*
X4929375Y-5341750D02*
X4754375Y-5516750D01*
X4992500Y-7246750D02*
X5167500Y-7421750D01*
X5167500Y-7246750D02*
X4992500Y-7421750D01*
X4992500Y-11056750D02*
X5167500Y-11231750D01*
X5167500Y-11056750D02*
X4992500Y-11231750D01*
X5468750Y-9151750D02*
X5643750Y-9326750D01*
X5643750Y-9151750D02*
X5468750Y-9326750D01*
X5643375Y-5341750D02*
X5818375Y-5516750D01*
X5818375Y-5341750D02*
X5643375Y-5516750D01*
X6119625Y-7246750D02*
X6294625Y-7421750D01*
X6294625Y-7246750D02*
X6119625Y-7421750D01*
X6659375Y-5341750D02*
X6834375Y-5516750D01*
X6834375Y-5341750D02*
X6659375Y-5516750D01*
X6834000Y-11056750D02*
X7009000Y-11231750D01*
X7009000Y-11056750D02*
X6834000Y-11231750D01*
X7072125Y-9151750D02*
X7247125Y-9326750D01*
X7247125Y-9151750D02*
X7072125Y-9326750D01*
X7135625Y-7246750D02*
X7310625Y-7421750D01*
X7310625Y-7246750D02*
X7135625Y-7421750D01*
X7548375Y-5341750D02*
X7723375Y-5516750D01*
X7723375Y-5341750D02*
X7548375Y-5516750D01*
X7850000Y-11056750D02*
X8025000Y-11231750D01*
X8025000Y-11056750D02*
X7850000Y-11231750D01*
X8024625Y-7246750D02*
X8199625Y-7421750D01*
X8199625Y-7246750D02*
X8024625Y-7421750D01*
X8088125Y-9151750D02*
X8263125Y-9326750D01*
X8263125Y-9151750D02*
X8088125Y-9326750D01*
X8564375Y-5341750D02*
X8739375Y-5516750D01*
X8739375Y-5341750D02*
X8564375Y-5516750D01*
X8977125Y-9151750D02*
X9152125Y-9326750D01*
X9152125Y-9151750D02*
X8977125Y-9326750D01*
X9040625Y-7246750D02*
X9215625Y-7421750D01*
X9215625Y-7246750D02*
X9040625Y-7421750D01*
X9453375Y-5341750D02*
X9628375Y-5516750D01*
X9628375Y-5341750D02*
X9453375Y-5516750D01*
X9929625Y-7246750D02*
X10104625Y-7421750D01*
X10104625Y-7246750D02*
X9929625Y-7421750D01*
X9993125Y-9151750D02*
X10168125Y-9326750D01*
X10168125Y-9151750D02*
X9993125Y-9326750D01*
X10469375Y-5341750D02*
X10644375Y-5516750D01*
X10644375Y-5341750D02*
X10469375Y-5516750D01*
X10882125Y-9151750D02*
X11057125Y-9326750D01*
X11057125Y-9151750D02*
X10882125Y-9326750D01*
X10945625Y-7246750D02*
X11120625Y-7421750D01*
X11120625Y-7246750D02*
X10945625Y-7421750D01*
X11358375Y-5341750D02*
X11533375Y-5516750D01*
X11533375Y-5341750D02*
X11358375Y-5516750D01*
X11834625Y-7246750D02*
X12009625Y-7421750D01*
X12009625Y-7246750D02*
X11834625Y-7421750D01*
X11898125Y-9151750D02*
X12073125Y-9326750D01*
X12073125Y-9151750D02*
X11898125Y-9326750D01*
X12374375Y-5341750D02*
X12549375Y-5516750D01*
X12549375Y-5341750D02*
X12374375Y-5516750D01*
X12787125Y-9151750D02*
X12962125Y-9326750D01*
X12962125Y-9151750D02*
X12787125Y-9326750D01*
X12850625Y-7246750D02*
X13025625Y-7421750D01*
X13025625Y-7246750D02*
X12850625Y-7421750D01*
X13263375Y-5341750D02*
X13438375Y-5516750D01*
X13438375Y-5341750D02*
X13263375Y-5516750D01*
X13739625Y-7246750D02*
X13914625Y-7421750D01*
X13914625Y-7246750D02*
X13739625Y-7421750D01*
X13803125Y-9151750D02*
X13978125Y-9326750D01*
X13978125Y-9151750D02*
X13803125Y-9326750D01*
X14279375Y-5341750D02*
X14454375Y-5516750D01*
X14454375Y-5341750D02*
X14279375Y-5516750D01*
X14454000Y-11056750D02*
X14629000Y-11231750D01*
X14629000Y-11056750D02*
X14454000Y-11231750D01*
X14692125Y-9151750D02*
X14867125Y-9326750D01*
X14867125Y-9151750D02*
X14692125Y-9326750D01*
X14755625Y-7246750D02*
X14930625Y-7421750D01*
X14930625Y-7246750D02*
X14755625Y-7421750D01*
X15168375Y-5341750D02*
X15343375Y-5516750D01*
X15343375Y-5341750D02*
X15168375Y-5516750D01*
X15470000Y-11056750D02*
X15645000Y-11231750D01*
X15645000Y-11056750D02*
X15470000Y-11231750D01*
X15644625Y-7246750D02*
X15819625Y-7421750D01*
X15819625Y-7246750D02*
X15644625Y-7421750D01*
X15708125Y-9151750D02*
X15883125Y-9326750D01*
X15883125Y-9151750D02*
X15708125Y-9326750D01*
X16184375Y-5341750D02*
X16359375Y-5516750D01*
X16359375Y-5341750D02*
X16184375Y-5516750D01*
X16597125Y-9151750D02*
X16772125Y-9326750D01*
X16772125Y-9151750D02*
X16597125Y-9326750D01*
X16660625Y-7246750D02*
X16835625Y-7421750D01*
X16835625Y-7246750D02*
X16660625Y-7421750D01*
X17073375Y-5341750D02*
X17248375Y-5516750D01*
X17248375Y-5341750D02*
X17073375Y-5516750D01*
X17549625Y-7246750D02*
X17724625Y-7421750D01*
X17724625Y-7246750D02*
X17549625Y-7421750D01*
X17613125Y-9151750D02*
X17788125Y-9326750D01*
X17788125Y-9151750D02*
X17613125Y-9326750D01*
X18089375Y-5341750D02*
X18264375Y-5516750D01*
X18264375Y-5341750D02*
X18089375Y-5516750D01*
X18502125Y-9151750D02*
X18677125Y-9326750D01*
X18677125Y-9151750D02*
X18502125Y-9326750D01*
X18565625Y-7246750D02*
X18740625Y-7421750D01*
X18740625Y-7246750D02*
X18565625Y-7421750D01*
X18978375Y-5341750D02*
X19153375Y-5516750D01*
X19153375Y-5341750D02*
X18978375Y-5516750D01*
X19454625Y-7246750D02*
X19629625Y-7421750D01*
X19629625Y-7246750D02*
X19454625Y-7421750D01*
X19518125Y-9151750D02*
X19693125Y-9326750D01*
X19693125Y-9151750D02*
X19518125Y-9326750D01*
X19994375Y-5341750D02*
X20169375Y-5516750D01*
X20169375Y-5341750D02*
X19994375Y-5516750D01*
X20470625Y-7246750D02*
X20645625Y-7421750D01*
X20645625Y-7246750D02*
X20470625Y-7421750D01*
X20883375Y-5341750D02*
X21058375Y-5516750D01*
X21058375Y-5341750D02*
X20883375Y-5516750D01*
X20883375Y-9151750D02*
X21058375Y-9326750D01*
X21058375Y-9151750D02*
X20883375Y-9326750D01*
X21359625Y-7246750D02*
X21534625Y-7421750D01*
X21534625Y-7246750D02*
X21359625Y-7421750D01*
X21359625Y-11056750D02*
X21534625Y-11231750D01*
X21534625Y-11056750D02*
X21359625Y-11231750D01*
X21899375Y-5341750D02*
X22074375Y-5516750D01*
X22074375Y-5341750D02*
X21899375Y-5516750D01*
X21899375Y-9151750D02*
X22074375Y-9326750D01*
X22074375Y-9151750D02*
X21899375Y-9326750D01*
X22375625Y-7246750D02*
X22550625Y-7421750D01*
X22550625Y-7246750D02*
X22375625Y-7421750D01*
X22375625Y-11056750D02*
X22550625Y-11231750D01*
X22550625Y-11056750D02*
X22375625Y-11231750D01*
X22788375Y-5341750D02*
X22963375Y-5516750D01*
X22963375Y-5341750D02*
X22788375Y-5516750D01*
X23264625Y-7246750D02*
X23439625Y-7421750D01*
X23439625Y-7246750D02*
X23264625Y-7421750D01*
X23264625Y-9151750D02*
X23439625Y-9326750D01*
X23439625Y-9151750D02*
X23264625Y-9326750D01*
X23264625Y-11056750D02*
X23439625Y-11231750D01*
X23439625Y-11056750D02*
X23264625Y-11231750D01*
X23804375Y-5341750D02*
X23979375Y-5516750D01*
X23979375Y-5341750D02*
X23804375Y-5516750D01*
X24280625Y-7246750D02*
X24455625Y-7421750D01*
X24455625Y-7246750D02*
X24280625Y-7421750D01*
X24280625Y-9151750D02*
X24455625Y-9326750D01*
X24455625Y-9151750D02*
X24280625Y-9326750D01*
X24280625Y-11056750D02*
X24455625Y-11231750D01*
X24455625Y-11056750D02*
X24280625Y-11231750D01*
X24931500Y-5341750D02*
X25106500Y-5516750D01*
X25106500Y-5341750D02*
X24931500Y-5516750D01*
X25169625Y-8199250D02*
X25344625Y-8374250D01*
X25344625Y-8199250D02*
X25169625Y-8374250D01*
X25169625Y-11056750D02*
X25344625Y-11231750D01*
X25344625Y-11056750D02*
X25169625Y-11231750D01*
X25947500Y-5341750D02*
X26122500Y-5516750D01*
X26122500Y-5341750D02*
X25947500Y-5516750D01*
X26185625Y-8199250D02*
X26360625Y-8374250D01*
X26360625Y-8199250D02*
X26185625Y-8374250D01*
X26185625Y-11056750D02*
X26360625Y-11231750D01*
X26360625Y-11056750D02*
X26185625Y-11231750D01*
D13*
X10204761Y-11842797D02*
G75*
G03*
X10204761Y-11842797I-152400J0D01*
G01*
X20206011Y-11842797D02*
G75*
G03*
X20206011Y-11842797I-152400J0D01*
G01*
X26616025Y-7096125D02*
G75*
G03*
X26616025Y-7096125I-152400J0D01*
G01*
X26616025Y-9477375D02*
G75*
G03*
X26616025Y-9477375I-152400J0D01*
G01*
D14*
X4333875Y-5229860D02*
X4333875Y-5628640D01*
X4134485Y-5429250D02*
X4533265Y-5429250D01*
X4572000Y-7134860D02*
X4572000Y-7533640D01*
X4372610Y-7334250D02*
X4771390Y-7334250D01*
X4572000Y-10944860D02*
X4572000Y-11343640D01*
X4372610Y-11144250D02*
X4771390Y-11144250D01*
X5048250Y-9039860D02*
X5048250Y-9438640D01*
X4848860Y-9239250D02*
X5247640Y-9239250D01*
X6238875Y-5229860D02*
X6238875Y-5628640D01*
X6039485Y-5429250D02*
X6438265Y-5429250D01*
X6715125Y-7134860D02*
X6715125Y-7533640D01*
X6515735Y-7334250D02*
X6914515Y-7334250D01*
X7429500Y-10944860D02*
X7429500Y-11343640D01*
X7230110Y-11144250D02*
X7628890Y-11144250D01*
X7667625Y-9039860D02*
X7667625Y-9438640D01*
X7468235Y-9239250D02*
X7867015Y-9239250D01*
X8143875Y-5229860D02*
X8143875Y-5628640D01*
X7944485Y-5429250D02*
X8343265Y-5429250D01*
X8620125Y-7134860D02*
X8620125Y-7533640D01*
X8420735Y-7334250D02*
X8819515Y-7334250D01*
X9572625Y-9039860D02*
X9572625Y-9438640D01*
X9373235Y-9239250D02*
X9772015Y-9239250D01*
X10048875Y-5229860D02*
X10048875Y-5628640D01*
X9849485Y-5429250D02*
X10248265Y-5429250D01*
X10052361Y-10119407D02*
X10052361Y-10518187D01*
X9852971Y-10318797D02*
X10251751Y-10318797D01*
X10525125Y-7134860D02*
X10525125Y-7533640D01*
X10325735Y-7334250D02*
X10724515Y-7334250D01*
X11477625Y-9039860D02*
X11477625Y-9438640D01*
X11278235Y-9239250D02*
X11677015Y-9239250D01*
X11953875Y-5229860D02*
X11953875Y-5628640D01*
X11754485Y-5429250D02*
X12153265Y-5429250D01*
X12430125Y-7134860D02*
X12430125Y-7533640D01*
X12230735Y-7334250D02*
X12629515Y-7334250D01*
X13382625Y-9039860D02*
X13382625Y-9438640D01*
X13183235Y-9239250D02*
X13582015Y-9239250D01*
X13858875Y-5229860D02*
X13858875Y-5628640D01*
X13659485Y-5429250D02*
X14058265Y-5429250D01*
X14335125Y-7134860D02*
X14335125Y-7533640D01*
X14135735Y-7334250D02*
X14534515Y-7334250D01*
X15049500Y-10944860D02*
X15049500Y-11343640D01*
X14850110Y-11144250D02*
X15248890Y-11144250D01*
X15287625Y-9039860D02*
X15287625Y-9438640D01*
X15088235Y-9239250D02*
X15487015Y-9239250D01*
X15763875Y-5229860D02*
X15763875Y-5628640D01*
X15564485Y-5429250D02*
X15963265Y-5429250D01*
X16240125Y-7134860D02*
X16240125Y-7533640D01*
X16040735Y-7334250D02*
X16439515Y-7334250D01*
X17192625Y-9039860D02*
X17192625Y-9438640D01*
X16993235Y-9239250D02*
X17392015Y-9239250D01*
X17668875Y-5229860D02*
X17668875Y-5628640D01*
X17469485Y-5429250D02*
X17868265Y-5429250D01*
X18145125Y-7134860D02*
X18145125Y-7533640D01*
X17945735Y-7334250D02*
X18344515Y-7334250D01*
X19097625Y-9039860D02*
X19097625Y-9438640D01*
X18898235Y-9239250D02*
X19297015Y-9239250D01*
X19573875Y-5229860D02*
X19573875Y-5628640D01*
X19374485Y-5429250D02*
X19773265Y-5429250D01*
X20050125Y-7134860D02*
X20050125Y-7533640D01*
X19850735Y-7334250D02*
X20249515Y-7334250D01*
X20053611Y-10119407D02*
X20053611Y-10518187D01*
X19854221Y-10318797D02*
X20253001Y-10318797D01*
X21478875Y-5229860D02*
X21478875Y-5628640D01*
X21279485Y-5429250D02*
X21678265Y-5429250D01*
X21478875Y-9039860D02*
X21478875Y-9438640D01*
X21279485Y-9239250D02*
X21678265Y-9239250D01*
X21955125Y-7134860D02*
X21955125Y-7533640D01*
X21755735Y-7334250D02*
X22154515Y-7334250D01*
X21955125Y-10944860D02*
X21955125Y-11343640D01*
X21755735Y-11144250D02*
X22154515Y-11144250D01*
X23383875Y-5229860D02*
X23383875Y-5628640D01*
X23184485Y-5429250D02*
X23583265Y-5429250D01*
X23860125Y-7134860D02*
X23860125Y-7533640D01*
X23660735Y-7334250D02*
X24059515Y-7334250D01*
X23860125Y-9039860D02*
X23860125Y-9438640D01*
X23660735Y-9239250D02*
X24059515Y-9239250D01*
X23860125Y-10944860D02*
X23860125Y-11343640D01*
X23660735Y-11144250D02*
X24059515Y-11144250D01*
X24939625Y-6896735D02*
X24939625Y-7295515D01*
X24740235Y-7096125D02*
X25139015Y-7096125D01*
X24939625Y-9277985D02*
X24939625Y-9676765D01*
X24740235Y-9477375D02*
X25139015Y-9477375D01*
X25527000Y-5229860D02*
X25527000Y-5628640D01*
X25327610Y-5429250D02*
X25726390Y-5429250D01*
X25765125Y-8087360D02*
X25765125Y-8486140D01*
X25565735Y-8286750D02*
X25964515Y-8286750D01*
X25765125Y-10944860D02*
X25765125Y-11343640D01*
X25565735Y-11144250D02*
X25964515Y-11144250D01*
D11*
X3576369Y-12414274D02*
X3576369Y-12214274D01*
X3576369Y-12214274D02*
X3623988Y-12214274D01*
X3623988Y-12214274D02*
X3652560Y-12223797D01*
X3652560Y-12223797D02*
X3671607Y-12242845D01*
X3671607Y-12242845D02*
X3681131Y-12261893D01*
X3681131Y-12261893D02*
X3690655Y-12299988D01*
X3690655Y-12299988D02*
X3690655Y-12328559D01*
X3690655Y-12328559D02*
X3681131Y-12366655D01*
X3681131Y-12366655D02*
X3671607Y-12385702D01*
X3671607Y-12385702D02*
X3652560Y-12404750D01*
X3652560Y-12404750D02*
X3623988Y-12414274D01*
X3623988Y-12414274D02*
X3576369Y-12414274D01*
X3776369Y-12414274D02*
X3776369Y-12280940D01*
X3776369Y-12319036D02*
X3785893Y-12299988D01*
X3785893Y-12299988D02*
X3795417Y-12290464D01*
X3795417Y-12290464D02*
X3814464Y-12280940D01*
X3814464Y-12280940D02*
X3833512Y-12280940D01*
X3900179Y-12414274D02*
X3900179Y-12280940D01*
X3900179Y-12214274D02*
X3890655Y-12223797D01*
X3890655Y-12223797D02*
X3900179Y-12233321D01*
X3900179Y-12233321D02*
X3909702Y-12223797D01*
X3909702Y-12223797D02*
X3900179Y-12214274D01*
X3900179Y-12214274D02*
X3900179Y-12233321D01*
X4023988Y-12414274D02*
X4004940Y-12404750D01*
X4004940Y-12404750D02*
X3995417Y-12385702D01*
X3995417Y-12385702D02*
X3995417Y-12214274D01*
X4128750Y-12414274D02*
X4109702Y-12404750D01*
X4109702Y-12404750D02*
X4100179Y-12385702D01*
X4100179Y-12385702D02*
X4100179Y-12214274D01*
X4357322Y-12414274D02*
X4357322Y-12214274D01*
X4357322Y-12214274D02*
X4423988Y-12357131D01*
X4423988Y-12357131D02*
X4490655Y-12214274D01*
X4490655Y-12214274D02*
X4490655Y-12414274D01*
X4671607Y-12414274D02*
X4671607Y-12309512D01*
X4671607Y-12309512D02*
X4662083Y-12290464D01*
X4662083Y-12290464D02*
X4643036Y-12280940D01*
X4643036Y-12280940D02*
X4604941Y-12280940D01*
X4604941Y-12280940D02*
X4585893Y-12290464D01*
X4671607Y-12404750D02*
X4652560Y-12414274D01*
X4652560Y-12414274D02*
X4604941Y-12414274D01*
X4604941Y-12414274D02*
X4585893Y-12404750D01*
X4585893Y-12404750D02*
X4576369Y-12385702D01*
X4576369Y-12385702D02*
X4576369Y-12366655D01*
X4576369Y-12366655D02*
X4585893Y-12347607D01*
X4585893Y-12347607D02*
X4604941Y-12338083D01*
X4604941Y-12338083D02*
X4652560Y-12338083D01*
X4652560Y-12338083D02*
X4671607Y-12328559D01*
X4766845Y-12280940D02*
X4766845Y-12480940D01*
X4766845Y-12290464D02*
X4785893Y-12280940D01*
X4785893Y-12280940D02*
X4823988Y-12280940D01*
X4823988Y-12280940D02*
X4843036Y-12290464D01*
X4843036Y-12290464D02*
X4852560Y-12299988D01*
X4852560Y-12299988D02*
X4862083Y-12319036D01*
X4862083Y-12319036D02*
X4862083Y-12376178D01*
X4862083Y-12376178D02*
X4852560Y-12395226D01*
X4852560Y-12395226D02*
X4843036Y-12404750D01*
X4843036Y-12404750D02*
X4823988Y-12414274D01*
X4823988Y-12414274D02*
X4785893Y-12414274D01*
X4785893Y-12414274D02*
X4766845Y-12404750D01*
X4947798Y-12395226D02*
X4957322Y-12404750D01*
X4957322Y-12404750D02*
X4947798Y-12414274D01*
X4947798Y-12414274D02*
X4938274Y-12404750D01*
X4938274Y-12404750D02*
X4947798Y-12395226D01*
X4947798Y-12395226D02*
X4947798Y-12414274D01*
X4947798Y-12290464D02*
X4957322Y-12299988D01*
X4957322Y-12299988D02*
X4947798Y-12309512D01*
X4947798Y-12309512D02*
X4938274Y-12299988D01*
X4938274Y-12299988D02*
X4947798Y-12290464D01*
X4947798Y-12290464D02*
X4947798Y-12309512D01*
D12*
X3153750Y-12654250D02*
X3328750Y-12829250D01*
X3328750Y-12654250D02*
X3153750Y-12829250D01*
D11*
X3681131Y-12834274D02*
X3566845Y-12834274D01*
X3623988Y-12834274D02*
X3623988Y-12634274D01*
X3623988Y-12634274D02*
X3604940Y-12662845D01*
X3604940Y-12662845D02*
X3585893Y-12681893D01*
X3585893Y-12681893D02*
X3566845Y-12691416D01*
X3766845Y-12815226D02*
X3776369Y-12824750D01*
X3776369Y-12824750D02*
X3766845Y-12834274D01*
X3766845Y-12834274D02*
X3757321Y-12824750D01*
X3757321Y-12824750D02*
X3766845Y-12815226D01*
X3766845Y-12815226D02*
X3766845Y-12834274D01*
X3843036Y-12634274D02*
X3976369Y-12634274D01*
X3976369Y-12634274D02*
X3890655Y-12834274D01*
X4147798Y-12634274D02*
X4052560Y-12634274D01*
X4052560Y-12634274D02*
X4043036Y-12729512D01*
X4043036Y-12729512D02*
X4052560Y-12719988D01*
X4052560Y-12719988D02*
X4071607Y-12710464D01*
X4071607Y-12710464D02*
X4119226Y-12710464D01*
X4119226Y-12710464D02*
X4138274Y-12719988D01*
X4138274Y-12719988D02*
X4147798Y-12729512D01*
X4147798Y-12729512D02*
X4157321Y-12748559D01*
X4157321Y-12748559D02*
X4157321Y-12796178D01*
X4157321Y-12796178D02*
X4147798Y-12815226D01*
X4147798Y-12815226D02*
X4138274Y-12824750D01*
X4138274Y-12824750D02*
X4119226Y-12834274D01*
X4119226Y-12834274D02*
X4071607Y-12834274D01*
X4071607Y-12834274D02*
X4052560Y-12824750D01*
X4052560Y-12824750D02*
X4043036Y-12815226D01*
X4281131Y-12634274D02*
X4300179Y-12634274D01*
X4300179Y-12634274D02*
X4319226Y-12643797D01*
X4319226Y-12643797D02*
X4328750Y-12653321D01*
X4328750Y-12653321D02*
X4338274Y-12672369D01*
X4338274Y-12672369D02*
X4347798Y-12710464D01*
X4347798Y-12710464D02*
X4347798Y-12758083D01*
X4347798Y-12758083D02*
X4338274Y-12796178D01*
X4338274Y-12796178D02*
X4328750Y-12815226D01*
X4328750Y-12815226D02*
X4319226Y-12824750D01*
X4319226Y-12824750D02*
X4300179Y-12834274D01*
X4300179Y-12834274D02*
X4281131Y-12834274D01*
X4281131Y-12834274D02*
X4262083Y-12824750D01*
X4262083Y-12824750D02*
X4252560Y-12815226D01*
X4252560Y-12815226D02*
X4243036Y-12796178D01*
X4243036Y-12796178D02*
X4233512Y-12758083D01*
X4233512Y-12758083D02*
X4233512Y-12710464D01*
X4233512Y-12710464D02*
X4243036Y-12672369D01*
X4243036Y-12672369D02*
X4252560Y-12653321D01*
X4252560Y-12653321D02*
X4262083Y-12643797D01*
X4262083Y-12643797D02*
X4281131Y-12634274D01*
X4433512Y-12834274D02*
X4433512Y-12700940D01*
X4433512Y-12719988D02*
X4443036Y-12710464D01*
X4443036Y-12710464D02*
X4462083Y-12700940D01*
X4462083Y-12700940D02*
X4490655Y-12700940D01*
X4490655Y-12700940D02*
X4509703Y-12710464D01*
X4509703Y-12710464D02*
X4519226Y-12729512D01*
X4519226Y-12729512D02*
X4519226Y-12834274D01*
X4519226Y-12729512D02*
X4528750Y-12710464D01*
X4528750Y-12710464D02*
X4547798Y-12700940D01*
X4547798Y-12700940D02*
X4576369Y-12700940D01*
X4576369Y-12700940D02*
X4595417Y-12710464D01*
X4595417Y-12710464D02*
X4604941Y-12729512D01*
X4604941Y-12729512D02*
X4604941Y-12834274D01*
X4700179Y-12834274D02*
X4700179Y-12700940D01*
X4700179Y-12719988D02*
X4709703Y-12710464D01*
X4709703Y-12710464D02*
X4728750Y-12700940D01*
X4728750Y-12700940D02*
X4757322Y-12700940D01*
X4757322Y-12700940D02*
X4776369Y-12710464D01*
X4776369Y-12710464D02*
X4785893Y-12729512D01*
X4785893Y-12729512D02*
X4785893Y-12834274D01*
X4785893Y-12729512D02*
X4795417Y-12710464D01*
X4795417Y-12710464D02*
X4814464Y-12700940D01*
X4814464Y-12700940D02*
X4843036Y-12700940D01*
X4843036Y-12700940D02*
X4862084Y-12710464D01*
X4862084Y-12710464D02*
X4871607Y-12729512D01*
X4871607Y-12729512D02*
X4871607Y-12834274D01*
X5262084Y-12624750D02*
X5090655Y-12881893D01*
X5519226Y-12634274D02*
X5538274Y-12634274D01*
X5538274Y-12634274D02*
X5557322Y-12643797D01*
X5557322Y-12643797D02*
X5566846Y-12653321D01*
X5566846Y-12653321D02*
X5576369Y-12672369D01*
X5576369Y-12672369D02*
X5585893Y-12710464D01*
X5585893Y-12710464D02*
X5585893Y-12758083D01*
X5585893Y-12758083D02*
X5576369Y-12796178D01*
X5576369Y-12796178D02*
X5566846Y-12815226D01*
X5566846Y-12815226D02*
X5557322Y-12824750D01*
X5557322Y-12824750D02*
X5538274Y-12834274D01*
X5538274Y-12834274D02*
X5519226Y-12834274D01*
X5519226Y-12834274D02*
X5500179Y-12824750D01*
X5500179Y-12824750D02*
X5490655Y-12815226D01*
X5490655Y-12815226D02*
X5481131Y-12796178D01*
X5481131Y-12796178D02*
X5471607Y-12758083D01*
X5471607Y-12758083D02*
X5471607Y-12710464D01*
X5471607Y-12710464D02*
X5481131Y-12672369D01*
X5481131Y-12672369D02*
X5490655Y-12653321D01*
X5490655Y-12653321D02*
X5500179Y-12643797D01*
X5500179Y-12643797D02*
X5519226Y-12634274D01*
X5671607Y-12815226D02*
X5681131Y-12824750D01*
X5681131Y-12824750D02*
X5671607Y-12834274D01*
X5671607Y-12834274D02*
X5662084Y-12824750D01*
X5662084Y-12824750D02*
X5671607Y-12815226D01*
X5671607Y-12815226D02*
X5671607Y-12834274D01*
X5804941Y-12634274D02*
X5823988Y-12634274D01*
X5823988Y-12634274D02*
X5843036Y-12643797D01*
X5843036Y-12643797D02*
X5852560Y-12653321D01*
X5852560Y-12653321D02*
X5862084Y-12672369D01*
X5862084Y-12672369D02*
X5871607Y-12710464D01*
X5871607Y-12710464D02*
X5871607Y-12758083D01*
X5871607Y-12758083D02*
X5862084Y-12796178D01*
X5862084Y-12796178D02*
X5852560Y-12815226D01*
X5852560Y-12815226D02*
X5843036Y-12824750D01*
X5843036Y-12824750D02*
X5823988Y-12834274D01*
X5823988Y-12834274D02*
X5804941Y-12834274D01*
X5804941Y-12834274D02*
X5785893Y-12824750D01*
X5785893Y-12824750D02*
X5776369Y-12815226D01*
X5776369Y-12815226D02*
X5766845Y-12796178D01*
X5766845Y-12796178D02*
X5757322Y-12758083D01*
X5757322Y-12758083D02*
X5757322Y-12710464D01*
X5757322Y-12710464D02*
X5766845Y-12672369D01*
X5766845Y-12672369D02*
X5776369Y-12653321D01*
X5776369Y-12653321D02*
X5785893Y-12643797D01*
X5785893Y-12643797D02*
X5804941Y-12634274D01*
X6043036Y-12634274D02*
X6004941Y-12634274D01*
X6004941Y-12634274D02*
X5985893Y-12643797D01*
X5985893Y-12643797D02*
X5976369Y-12653321D01*
X5976369Y-12653321D02*
X5957322Y-12681893D01*
X5957322Y-12681893D02*
X5947798Y-12719988D01*
X5947798Y-12719988D02*
X5947798Y-12796178D01*
X5947798Y-12796178D02*
X5957322Y-12815226D01*
X5957322Y-12815226D02*
X5966845Y-12824750D01*
X5966845Y-12824750D02*
X5985893Y-12834274D01*
X5985893Y-12834274D02*
X6023988Y-12834274D01*
X6023988Y-12834274D02*
X6043036Y-12824750D01*
X6043036Y-12824750D02*
X6052560Y-12815226D01*
X6052560Y-12815226D02*
X6062084Y-12796178D01*
X6062084Y-12796178D02*
X6062084Y-12748559D01*
X6062084Y-12748559D02*
X6052560Y-12729512D01*
X6052560Y-12729512D02*
X6043036Y-12719988D01*
X6043036Y-12719988D02*
X6023988Y-12710464D01*
X6023988Y-12710464D02*
X5985893Y-12710464D01*
X5985893Y-12710464D02*
X5966845Y-12719988D01*
X5966845Y-12719988D02*
X5957322Y-12729512D01*
X5957322Y-12729512D02*
X5947798Y-12748559D01*
X6176369Y-12719988D02*
X6157322Y-12710464D01*
X6157322Y-12710464D02*
X6147798Y-12700940D01*
X6147798Y-12700940D02*
X6138274Y-12681893D01*
X6138274Y-12681893D02*
X6138274Y-12672369D01*
X6138274Y-12672369D02*
X6147798Y-12653321D01*
X6147798Y-12653321D02*
X6157322Y-12643797D01*
X6157322Y-12643797D02*
X6176369Y-12634274D01*
X6176369Y-12634274D02*
X6214465Y-12634274D01*
X6214465Y-12634274D02*
X6233512Y-12643797D01*
X6233512Y-12643797D02*
X6243036Y-12653321D01*
X6243036Y-12653321D02*
X6252560Y-12672369D01*
X6252560Y-12672369D02*
X6252560Y-12681893D01*
X6252560Y-12681893D02*
X6243036Y-12700940D01*
X6243036Y-12700940D02*
X6233512Y-12710464D01*
X6233512Y-12710464D02*
X6214465Y-12719988D01*
X6214465Y-12719988D02*
X6176369Y-12719988D01*
X6176369Y-12719988D02*
X6157322Y-12729512D01*
X6157322Y-12729512D02*
X6147798Y-12739036D01*
X6147798Y-12739036D02*
X6138274Y-12758083D01*
X6138274Y-12758083D02*
X6138274Y-12796178D01*
X6138274Y-12796178D02*
X6147798Y-12815226D01*
X6147798Y-12815226D02*
X6157322Y-12824750D01*
X6157322Y-12824750D02*
X6176369Y-12834274D01*
X6176369Y-12834274D02*
X6214465Y-12834274D01*
X6214465Y-12834274D02*
X6233512Y-12824750D01*
X6233512Y-12824750D02*
X6243036Y-12815226D01*
X6243036Y-12815226D02*
X6252560Y-12796178D01*
X6252560Y-12796178D02*
X6252560Y-12758083D01*
X6252560Y-12758083D02*
X6243036Y-12739036D01*
X6243036Y-12739036D02*
X6233512Y-12729512D01*
X6233512Y-12729512D02*
X6214465Y-12719988D01*
X6347798Y-12834274D02*
X6385893Y-12834274D01*
X6385893Y-12834274D02*
X6404941Y-12824750D01*
X6404941Y-12824750D02*
X6414465Y-12815226D01*
X6414465Y-12815226D02*
X6433512Y-12786655D01*
X6433512Y-12786655D02*
X6443036Y-12748559D01*
X6443036Y-12748559D02*
X6443036Y-12672369D01*
X6443036Y-12672369D02*
X6433512Y-12653321D01*
X6433512Y-12653321D02*
X6423988Y-12643797D01*
X6423988Y-12643797D02*
X6404941Y-12634274D01*
X6404941Y-12634274D02*
X6366845Y-12634274D01*
X6366845Y-12634274D02*
X6347798Y-12643797D01*
X6347798Y-12643797D02*
X6338274Y-12653321D01*
X6338274Y-12653321D02*
X6328750Y-12672369D01*
X6328750Y-12672369D02*
X6328750Y-12719988D01*
X6328750Y-12719988D02*
X6338274Y-12739036D01*
X6338274Y-12739036D02*
X6347798Y-12748559D01*
X6347798Y-12748559D02*
X6366845Y-12758083D01*
X6366845Y-12758083D02*
X6404941Y-12758083D01*
X6404941Y-12758083D02*
X6423988Y-12748559D01*
X6423988Y-12748559D02*
X6433512Y-12739036D01*
X6433512Y-12739036D02*
X6443036Y-12719988D01*
X6519226Y-12634274D02*
X6519226Y-12672369D01*
X6595417Y-12634274D02*
X6595417Y-12672369D01*
X6890655Y-12910464D02*
X6881131Y-12900940D01*
X6881131Y-12900940D02*
X6862084Y-12872369D01*
X6862084Y-12872369D02*
X6852560Y-12853321D01*
X6852560Y-12853321D02*
X6843036Y-12824750D01*
X6843036Y-12824750D02*
X6833512Y-12777131D01*
X6833512Y-12777131D02*
X6833512Y-12739036D01*
X6833512Y-12739036D02*
X6843036Y-12691416D01*
X6843036Y-12691416D02*
X6852560Y-12662845D01*
X6852560Y-12662845D02*
X6862084Y-12643797D01*
X6862084Y-12643797D02*
X6881131Y-12615226D01*
X6881131Y-12615226D02*
X6890655Y-12605702D01*
X6995417Y-12719988D02*
X6976369Y-12710464D01*
X6976369Y-12710464D02*
X6966846Y-12700940D01*
X6966846Y-12700940D02*
X6957322Y-12681893D01*
X6957322Y-12681893D02*
X6957322Y-12672369D01*
X6957322Y-12672369D02*
X6966846Y-12653321D01*
X6966846Y-12653321D02*
X6976369Y-12643797D01*
X6976369Y-12643797D02*
X6995417Y-12634274D01*
X6995417Y-12634274D02*
X7033512Y-12634274D01*
X7033512Y-12634274D02*
X7052560Y-12643797D01*
X7052560Y-12643797D02*
X7062084Y-12653321D01*
X7062084Y-12653321D02*
X7071607Y-12672369D01*
X7071607Y-12672369D02*
X7071607Y-12681893D01*
X7071607Y-12681893D02*
X7062084Y-12700940D01*
X7062084Y-12700940D02*
X7052560Y-12710464D01*
X7052560Y-12710464D02*
X7033512Y-12719988D01*
X7033512Y-12719988D02*
X6995417Y-12719988D01*
X6995417Y-12719988D02*
X6976369Y-12729512D01*
X6976369Y-12729512D02*
X6966846Y-12739036D01*
X6966846Y-12739036D02*
X6957322Y-12758083D01*
X6957322Y-12758083D02*
X6957322Y-12796178D01*
X6957322Y-12796178D02*
X6966846Y-12815226D01*
X6966846Y-12815226D02*
X6976369Y-12824750D01*
X6976369Y-12824750D02*
X6995417Y-12834274D01*
X6995417Y-12834274D02*
X7033512Y-12834274D01*
X7033512Y-12834274D02*
X7052560Y-12824750D01*
X7052560Y-12824750D02*
X7062084Y-12815226D01*
X7062084Y-12815226D02*
X7071607Y-12796178D01*
X7071607Y-12796178D02*
X7071607Y-12758083D01*
X7071607Y-12758083D02*
X7062084Y-12739036D01*
X7062084Y-12739036D02*
X7052560Y-12729512D01*
X7052560Y-12729512D02*
X7033512Y-12719988D01*
X7195417Y-12634274D02*
X7214465Y-12634274D01*
X7214465Y-12634274D02*
X7233512Y-12643797D01*
X7233512Y-12643797D02*
X7243036Y-12653321D01*
X7243036Y-12653321D02*
X7252560Y-12672369D01*
X7252560Y-12672369D02*
X7262084Y-12710464D01*
X7262084Y-12710464D02*
X7262084Y-12758083D01*
X7262084Y-12758083D02*
X7252560Y-12796178D01*
X7252560Y-12796178D02*
X7243036Y-12815226D01*
X7243036Y-12815226D02*
X7233512Y-12824750D01*
X7233512Y-12824750D02*
X7214465Y-12834274D01*
X7214465Y-12834274D02*
X7195417Y-12834274D01*
X7195417Y-12834274D02*
X7176369Y-12824750D01*
X7176369Y-12824750D02*
X7166846Y-12815226D01*
X7166846Y-12815226D02*
X7157322Y-12796178D01*
X7157322Y-12796178D02*
X7147798Y-12758083D01*
X7147798Y-12758083D02*
X7147798Y-12710464D01*
X7147798Y-12710464D02*
X7157322Y-12672369D01*
X7157322Y-12672369D02*
X7166846Y-12653321D01*
X7166846Y-12653321D02*
X7176369Y-12643797D01*
X7176369Y-12643797D02*
X7195417Y-12634274D01*
X7500179Y-12834274D02*
X7500179Y-12634274D01*
X7585893Y-12834274D02*
X7585893Y-12729512D01*
X7585893Y-12729512D02*
X7576369Y-12710464D01*
X7576369Y-12710464D02*
X7557322Y-12700940D01*
X7557322Y-12700940D02*
X7528750Y-12700940D01*
X7528750Y-12700940D02*
X7509703Y-12710464D01*
X7509703Y-12710464D02*
X7500179Y-12719988D01*
X7709703Y-12834274D02*
X7690655Y-12824750D01*
X7690655Y-12824750D02*
X7681131Y-12815226D01*
X7681131Y-12815226D02*
X7671608Y-12796178D01*
X7671608Y-12796178D02*
X7671608Y-12739036D01*
X7671608Y-12739036D02*
X7681131Y-12719988D01*
X7681131Y-12719988D02*
X7690655Y-12710464D01*
X7690655Y-12710464D02*
X7709703Y-12700940D01*
X7709703Y-12700940D02*
X7738274Y-12700940D01*
X7738274Y-12700940D02*
X7757322Y-12710464D01*
X7757322Y-12710464D02*
X7766846Y-12719988D01*
X7766846Y-12719988D02*
X7776369Y-12739036D01*
X7776369Y-12739036D02*
X7776369Y-12796178D01*
X7776369Y-12796178D02*
X7766846Y-12815226D01*
X7766846Y-12815226D02*
X7757322Y-12824750D01*
X7757322Y-12824750D02*
X7738274Y-12834274D01*
X7738274Y-12834274D02*
X7709703Y-12834274D01*
X7890655Y-12834274D02*
X7871608Y-12824750D01*
X7871608Y-12824750D02*
X7862084Y-12805702D01*
X7862084Y-12805702D02*
X7862084Y-12634274D01*
X8043036Y-12824750D02*
X8023989Y-12834274D01*
X8023989Y-12834274D02*
X7985893Y-12834274D01*
X7985893Y-12834274D02*
X7966846Y-12824750D01*
X7966846Y-12824750D02*
X7957322Y-12805702D01*
X7957322Y-12805702D02*
X7957322Y-12729512D01*
X7957322Y-12729512D02*
X7966846Y-12710464D01*
X7966846Y-12710464D02*
X7985893Y-12700940D01*
X7985893Y-12700940D02*
X8023989Y-12700940D01*
X8023989Y-12700940D02*
X8043036Y-12710464D01*
X8043036Y-12710464D02*
X8052560Y-12729512D01*
X8052560Y-12729512D02*
X8052560Y-12748559D01*
X8052560Y-12748559D02*
X7957322Y-12767607D01*
X8128750Y-12824750D02*
X8147798Y-12834274D01*
X8147798Y-12834274D02*
X8185893Y-12834274D01*
X8185893Y-12834274D02*
X8204941Y-12824750D01*
X8204941Y-12824750D02*
X8214465Y-12805702D01*
X8214465Y-12805702D02*
X8214465Y-12796178D01*
X8214465Y-12796178D02*
X8204941Y-12777131D01*
X8204941Y-12777131D02*
X8185893Y-12767607D01*
X8185893Y-12767607D02*
X8157322Y-12767607D01*
X8157322Y-12767607D02*
X8138274Y-12758083D01*
X8138274Y-12758083D02*
X8128750Y-12739036D01*
X8128750Y-12739036D02*
X8128750Y-12729512D01*
X8128750Y-12729512D02*
X8138274Y-12710464D01*
X8138274Y-12710464D02*
X8157322Y-12700940D01*
X8157322Y-12700940D02*
X8185893Y-12700940D01*
X8185893Y-12700940D02*
X8204941Y-12710464D01*
X8281131Y-12910464D02*
X8290655Y-12900940D01*
X8290655Y-12900940D02*
X8309703Y-12872369D01*
X8309703Y-12872369D02*
X8319227Y-12853321D01*
X8319227Y-12853321D02*
X8328750Y-12824750D01*
X8328750Y-12824750D02*
X8338274Y-12777131D01*
X8338274Y-12777131D02*
X8338274Y-12739036D01*
X8338274Y-12739036D02*
X8328750Y-12691416D01*
X8328750Y-12691416D02*
X8319227Y-12662845D01*
X8319227Y-12662845D02*
X8309703Y-12643797D01*
X8309703Y-12643797D02*
X8290655Y-12615226D01*
X8290655Y-12615226D02*
X8281131Y-12605702D01*
X8643036Y-12910464D02*
X8633512Y-12900940D01*
X8633512Y-12900940D02*
X8614465Y-12872369D01*
X8614465Y-12872369D02*
X8604941Y-12853321D01*
X8604941Y-12853321D02*
X8595417Y-12824750D01*
X8595417Y-12824750D02*
X8585893Y-12777131D01*
X8585893Y-12777131D02*
X8585893Y-12739036D01*
X8585893Y-12739036D02*
X8595417Y-12691416D01*
X8595417Y-12691416D02*
X8604941Y-12662845D01*
X8604941Y-12662845D02*
X8614465Y-12643797D01*
X8614465Y-12643797D02*
X8633512Y-12615226D01*
X8633512Y-12615226D02*
X8643036Y-12605702D01*
X8719227Y-12700940D02*
X8719227Y-12834274D01*
X8719227Y-12719988D02*
X8728751Y-12710464D01*
X8728751Y-12710464D02*
X8747798Y-12700940D01*
X8747798Y-12700940D02*
X8776370Y-12700940D01*
X8776370Y-12700940D02*
X8795417Y-12710464D01*
X8795417Y-12710464D02*
X8804941Y-12729512D01*
X8804941Y-12729512D02*
X8804941Y-12834274D01*
X8928751Y-12834274D02*
X8909703Y-12824750D01*
X8909703Y-12824750D02*
X8900179Y-12815226D01*
X8900179Y-12815226D02*
X8890655Y-12796178D01*
X8890655Y-12796178D02*
X8890655Y-12739036D01*
X8890655Y-12739036D02*
X8900179Y-12719988D01*
X8900179Y-12719988D02*
X8909703Y-12710464D01*
X8909703Y-12710464D02*
X8928751Y-12700940D01*
X8928751Y-12700940D02*
X8957322Y-12700940D01*
X8957322Y-12700940D02*
X8976370Y-12710464D01*
X8976370Y-12710464D02*
X8985893Y-12719988D01*
X8985893Y-12719988D02*
X8995417Y-12739036D01*
X8995417Y-12739036D02*
X8995417Y-12796178D01*
X8995417Y-12796178D02*
X8985893Y-12815226D01*
X8985893Y-12815226D02*
X8976370Y-12824750D01*
X8976370Y-12824750D02*
X8957322Y-12834274D01*
X8957322Y-12834274D02*
X8928751Y-12834274D01*
X9052560Y-12700940D02*
X9128751Y-12700940D01*
X9081132Y-12634274D02*
X9081132Y-12805702D01*
X9081132Y-12805702D02*
X9090655Y-12824750D01*
X9090655Y-12824750D02*
X9109703Y-12834274D01*
X9109703Y-12834274D02*
X9128751Y-12834274D01*
X9347798Y-12700940D02*
X9347798Y-12900940D01*
X9347798Y-12710464D02*
X9366846Y-12700940D01*
X9366846Y-12700940D02*
X9404941Y-12700940D01*
X9404941Y-12700940D02*
X9423989Y-12710464D01*
X9423989Y-12710464D02*
X9433513Y-12719988D01*
X9433513Y-12719988D02*
X9443036Y-12739036D01*
X9443036Y-12739036D02*
X9443036Y-12796178D01*
X9443036Y-12796178D02*
X9433513Y-12815226D01*
X9433513Y-12815226D02*
X9423989Y-12824750D01*
X9423989Y-12824750D02*
X9404941Y-12834274D01*
X9404941Y-12834274D02*
X9366846Y-12834274D01*
X9366846Y-12834274D02*
X9347798Y-12824750D01*
X9557322Y-12834274D02*
X9538274Y-12824750D01*
X9538274Y-12824750D02*
X9528751Y-12805702D01*
X9528751Y-12805702D02*
X9528751Y-12634274D01*
X9719227Y-12834274D02*
X9719227Y-12729512D01*
X9719227Y-12729512D02*
X9709703Y-12710464D01*
X9709703Y-12710464D02*
X9690655Y-12700940D01*
X9690655Y-12700940D02*
X9652560Y-12700940D01*
X9652560Y-12700940D02*
X9633513Y-12710464D01*
X9719227Y-12824750D02*
X9700179Y-12834274D01*
X9700179Y-12834274D02*
X9652560Y-12834274D01*
X9652560Y-12834274D02*
X9633513Y-12824750D01*
X9633513Y-12824750D02*
X9623989Y-12805702D01*
X9623989Y-12805702D02*
X9623989Y-12786655D01*
X9623989Y-12786655D02*
X9633513Y-12767607D01*
X9633513Y-12767607D02*
X9652560Y-12758083D01*
X9652560Y-12758083D02*
X9700179Y-12758083D01*
X9700179Y-12758083D02*
X9719227Y-12748559D01*
X9785894Y-12700940D02*
X9862084Y-12700940D01*
X9814465Y-12634274D02*
X9814465Y-12805702D01*
X9814465Y-12805702D02*
X9823989Y-12824750D01*
X9823989Y-12824750D02*
X9843036Y-12834274D01*
X9843036Y-12834274D02*
X9862084Y-12834274D01*
X10004941Y-12824750D02*
X9985894Y-12834274D01*
X9985894Y-12834274D02*
X9947798Y-12834274D01*
X9947798Y-12834274D02*
X9928751Y-12824750D01*
X9928751Y-12824750D02*
X9919227Y-12805702D01*
X9919227Y-12805702D02*
X9919227Y-12729512D01*
X9919227Y-12729512D02*
X9928751Y-12710464D01*
X9928751Y-12710464D02*
X9947798Y-12700940D01*
X9947798Y-12700940D02*
X9985894Y-12700940D01*
X9985894Y-12700940D02*
X10004941Y-12710464D01*
X10004941Y-12710464D02*
X10014465Y-12729512D01*
X10014465Y-12729512D02*
X10014465Y-12748559D01*
X10014465Y-12748559D02*
X9919227Y-12767607D01*
X10185894Y-12834274D02*
X10185894Y-12634274D01*
X10185894Y-12824750D02*
X10166846Y-12834274D01*
X10166846Y-12834274D02*
X10128751Y-12834274D01*
X10128751Y-12834274D02*
X10109703Y-12824750D01*
X10109703Y-12824750D02*
X10100179Y-12815226D01*
X10100179Y-12815226D02*
X10090655Y-12796178D01*
X10090655Y-12796178D02*
X10090655Y-12739036D01*
X10090655Y-12739036D02*
X10100179Y-12719988D01*
X10100179Y-12719988D02*
X10109703Y-12710464D01*
X10109703Y-12710464D02*
X10128751Y-12700940D01*
X10128751Y-12700940D02*
X10166846Y-12700940D01*
X10166846Y-12700940D02*
X10185894Y-12710464D01*
X10262084Y-12910464D02*
X10271608Y-12900940D01*
X10271608Y-12900940D02*
X10290655Y-12872369D01*
X10290655Y-12872369D02*
X10300179Y-12853321D01*
X10300179Y-12853321D02*
X10309703Y-12824750D01*
X10309703Y-12824750D02*
X10319227Y-12777131D01*
X10319227Y-12777131D02*
X10319227Y-12739036D01*
X10319227Y-12739036D02*
X10309703Y-12691416D01*
X10309703Y-12691416D02*
X10300179Y-12662845D01*
X10300179Y-12662845D02*
X10290655Y-12643797D01*
X10290655Y-12643797D02*
X10271608Y-12615226D01*
X10271608Y-12615226D02*
X10262084Y-12605702D01*
X3328750Y-13036750D02*
G75*
G03*
X3328750Y-13036750I-100000J0D01*
G01*
X3557321Y-12929274D02*
X3681131Y-12929274D01*
X3681131Y-12929274D02*
X3614464Y-13005464D01*
X3614464Y-13005464D02*
X3643036Y-13005464D01*
X3643036Y-13005464D02*
X3662083Y-13014988D01*
X3662083Y-13014988D02*
X3671607Y-13024512D01*
X3671607Y-13024512D02*
X3681131Y-13043559D01*
X3681131Y-13043559D02*
X3681131Y-13091178D01*
X3681131Y-13091178D02*
X3671607Y-13110226D01*
X3671607Y-13110226D02*
X3662083Y-13119750D01*
X3662083Y-13119750D02*
X3643036Y-13129274D01*
X3643036Y-13129274D02*
X3585893Y-13129274D01*
X3585893Y-13129274D02*
X3566845Y-13119750D01*
X3566845Y-13119750D02*
X3557321Y-13110226D01*
X3766845Y-13110226D02*
X3776369Y-13119750D01*
X3776369Y-13119750D02*
X3766845Y-13129274D01*
X3766845Y-13129274D02*
X3757321Y-13119750D01*
X3757321Y-13119750D02*
X3766845Y-13110226D01*
X3766845Y-13110226D02*
X3766845Y-13129274D01*
X3900179Y-12929274D02*
X3919226Y-12929274D01*
X3919226Y-12929274D02*
X3938274Y-12938797D01*
X3938274Y-12938797D02*
X3947798Y-12948321D01*
X3947798Y-12948321D02*
X3957321Y-12967369D01*
X3957321Y-12967369D02*
X3966845Y-13005464D01*
X3966845Y-13005464D02*
X3966845Y-13053083D01*
X3966845Y-13053083D02*
X3957321Y-13091178D01*
X3957321Y-13091178D02*
X3947798Y-13110226D01*
X3947798Y-13110226D02*
X3938274Y-13119750D01*
X3938274Y-13119750D02*
X3919226Y-13129274D01*
X3919226Y-13129274D02*
X3900179Y-13129274D01*
X3900179Y-13129274D02*
X3881131Y-13119750D01*
X3881131Y-13119750D02*
X3871607Y-13110226D01*
X3871607Y-13110226D02*
X3862083Y-13091178D01*
X3862083Y-13091178D02*
X3852560Y-13053083D01*
X3852560Y-13053083D02*
X3852560Y-13005464D01*
X3852560Y-13005464D02*
X3862083Y-12967369D01*
X3862083Y-12967369D02*
X3871607Y-12948321D01*
X3871607Y-12948321D02*
X3881131Y-12938797D01*
X3881131Y-12938797D02*
X3900179Y-12929274D01*
X4138274Y-12995940D02*
X4138274Y-13129274D01*
X4090655Y-12919750D02*
X4043036Y-13062607D01*
X4043036Y-13062607D02*
X4166845Y-13062607D01*
X4271607Y-13014988D02*
X4252560Y-13005464D01*
X4252560Y-13005464D02*
X4243036Y-12995940D01*
X4243036Y-12995940D02*
X4233512Y-12976893D01*
X4233512Y-12976893D02*
X4233512Y-12967369D01*
X4233512Y-12967369D02*
X4243036Y-12948321D01*
X4243036Y-12948321D02*
X4252560Y-12938797D01*
X4252560Y-12938797D02*
X4271607Y-12929274D01*
X4271607Y-12929274D02*
X4309703Y-12929274D01*
X4309703Y-12929274D02*
X4328750Y-12938797D01*
X4328750Y-12938797D02*
X4338274Y-12948321D01*
X4338274Y-12948321D02*
X4347798Y-12967369D01*
X4347798Y-12967369D02*
X4347798Y-12976893D01*
X4347798Y-12976893D02*
X4338274Y-12995940D01*
X4338274Y-12995940D02*
X4328750Y-13005464D01*
X4328750Y-13005464D02*
X4309703Y-13014988D01*
X4309703Y-13014988D02*
X4271607Y-13014988D01*
X4271607Y-13014988D02*
X4252560Y-13024512D01*
X4252560Y-13024512D02*
X4243036Y-13034036D01*
X4243036Y-13034036D02*
X4233512Y-13053083D01*
X4233512Y-13053083D02*
X4233512Y-13091178D01*
X4233512Y-13091178D02*
X4243036Y-13110226D01*
X4243036Y-13110226D02*
X4252560Y-13119750D01*
X4252560Y-13119750D02*
X4271607Y-13129274D01*
X4271607Y-13129274D02*
X4309703Y-13129274D01*
X4309703Y-13129274D02*
X4328750Y-13119750D01*
X4328750Y-13119750D02*
X4338274Y-13110226D01*
X4338274Y-13110226D02*
X4347798Y-13091178D01*
X4347798Y-13091178D02*
X4347798Y-13053083D01*
X4347798Y-13053083D02*
X4338274Y-13034036D01*
X4338274Y-13034036D02*
X4328750Y-13024512D01*
X4328750Y-13024512D02*
X4309703Y-13014988D01*
X4433512Y-13129274D02*
X4433512Y-12995940D01*
X4433512Y-13014988D02*
X4443036Y-13005464D01*
X4443036Y-13005464D02*
X4462083Y-12995940D01*
X4462083Y-12995940D02*
X4490655Y-12995940D01*
X4490655Y-12995940D02*
X4509703Y-13005464D01*
X4509703Y-13005464D02*
X4519226Y-13024512D01*
X4519226Y-13024512D02*
X4519226Y-13129274D01*
X4519226Y-13024512D02*
X4528750Y-13005464D01*
X4528750Y-13005464D02*
X4547798Y-12995940D01*
X4547798Y-12995940D02*
X4576369Y-12995940D01*
X4576369Y-12995940D02*
X4595417Y-13005464D01*
X4595417Y-13005464D02*
X4604941Y-13024512D01*
X4604941Y-13024512D02*
X4604941Y-13129274D01*
X4700179Y-13129274D02*
X4700179Y-12995940D01*
X4700179Y-13014988D02*
X4709703Y-13005464D01*
X4709703Y-13005464D02*
X4728750Y-12995940D01*
X4728750Y-12995940D02*
X4757322Y-12995940D01*
X4757322Y-12995940D02*
X4776369Y-13005464D01*
X4776369Y-13005464D02*
X4785893Y-13024512D01*
X4785893Y-13024512D02*
X4785893Y-13129274D01*
X4785893Y-13024512D02*
X4795417Y-13005464D01*
X4795417Y-13005464D02*
X4814464Y-12995940D01*
X4814464Y-12995940D02*
X4843036Y-12995940D01*
X4843036Y-12995940D02*
X4862084Y-13005464D01*
X4862084Y-13005464D02*
X4871607Y-13024512D01*
X4871607Y-13024512D02*
X4871607Y-13129274D01*
X5262084Y-12919750D02*
X5090655Y-13176893D01*
X5519226Y-12929274D02*
X5538274Y-12929274D01*
X5538274Y-12929274D02*
X5557322Y-12938797D01*
X5557322Y-12938797D02*
X5566846Y-12948321D01*
X5566846Y-12948321D02*
X5576369Y-12967369D01*
X5576369Y-12967369D02*
X5585893Y-13005464D01*
X5585893Y-13005464D02*
X5585893Y-13053083D01*
X5585893Y-13053083D02*
X5576369Y-13091178D01*
X5576369Y-13091178D02*
X5566846Y-13110226D01*
X5566846Y-13110226D02*
X5557322Y-13119750D01*
X5557322Y-13119750D02*
X5538274Y-13129274D01*
X5538274Y-13129274D02*
X5519226Y-13129274D01*
X5519226Y-13129274D02*
X5500179Y-13119750D01*
X5500179Y-13119750D02*
X5490655Y-13110226D01*
X5490655Y-13110226D02*
X5481131Y-13091178D01*
X5481131Y-13091178D02*
X5471607Y-13053083D01*
X5471607Y-13053083D02*
X5471607Y-13005464D01*
X5471607Y-13005464D02*
X5481131Y-12967369D01*
X5481131Y-12967369D02*
X5490655Y-12948321D01*
X5490655Y-12948321D02*
X5500179Y-12938797D01*
X5500179Y-12938797D02*
X5519226Y-12929274D01*
X5671607Y-13110226D02*
X5681131Y-13119750D01*
X5681131Y-13119750D02*
X5671607Y-13129274D01*
X5671607Y-13129274D02*
X5662084Y-13119750D01*
X5662084Y-13119750D02*
X5671607Y-13110226D01*
X5671607Y-13110226D02*
X5671607Y-13129274D01*
X5871607Y-13129274D02*
X5757322Y-13129274D01*
X5814464Y-13129274D02*
X5814464Y-12929274D01*
X5814464Y-12929274D02*
X5795417Y-12957845D01*
X5795417Y-12957845D02*
X5776369Y-12976893D01*
X5776369Y-12976893D02*
X5757322Y-12986416D01*
X5947798Y-12948321D02*
X5957322Y-12938797D01*
X5957322Y-12938797D02*
X5976369Y-12929274D01*
X5976369Y-12929274D02*
X6023988Y-12929274D01*
X6023988Y-12929274D02*
X6043036Y-12938797D01*
X6043036Y-12938797D02*
X6052560Y-12948321D01*
X6052560Y-12948321D02*
X6062084Y-12967369D01*
X6062084Y-12967369D02*
X6062084Y-12986416D01*
X6062084Y-12986416D02*
X6052560Y-13014988D01*
X6052560Y-13014988D02*
X5938274Y-13129274D01*
X5938274Y-13129274D02*
X6062084Y-13129274D01*
X6185893Y-12929274D02*
X6204941Y-12929274D01*
X6204941Y-12929274D02*
X6223988Y-12938797D01*
X6223988Y-12938797D02*
X6233512Y-12948321D01*
X6233512Y-12948321D02*
X6243036Y-12967369D01*
X6243036Y-12967369D02*
X6252560Y-13005464D01*
X6252560Y-13005464D02*
X6252560Y-13053083D01*
X6252560Y-13053083D02*
X6243036Y-13091178D01*
X6243036Y-13091178D02*
X6233512Y-13110226D01*
X6233512Y-13110226D02*
X6223988Y-13119750D01*
X6223988Y-13119750D02*
X6204941Y-13129274D01*
X6204941Y-13129274D02*
X6185893Y-13129274D01*
X6185893Y-13129274D02*
X6166845Y-13119750D01*
X6166845Y-13119750D02*
X6157322Y-13110226D01*
X6157322Y-13110226D02*
X6147798Y-13091178D01*
X6147798Y-13091178D02*
X6138274Y-13053083D01*
X6138274Y-13053083D02*
X6138274Y-13005464D01*
X6138274Y-13005464D02*
X6147798Y-12967369D01*
X6147798Y-12967369D02*
X6157322Y-12948321D01*
X6157322Y-12948321D02*
X6166845Y-12938797D01*
X6166845Y-12938797D02*
X6185893Y-12929274D01*
X6376369Y-12929274D02*
X6395417Y-12929274D01*
X6395417Y-12929274D02*
X6414465Y-12938797D01*
X6414465Y-12938797D02*
X6423988Y-12948321D01*
X6423988Y-12948321D02*
X6433512Y-12967369D01*
X6433512Y-12967369D02*
X6443036Y-13005464D01*
X6443036Y-13005464D02*
X6443036Y-13053083D01*
X6443036Y-13053083D02*
X6433512Y-13091178D01*
X6433512Y-13091178D02*
X6423988Y-13110226D01*
X6423988Y-13110226D02*
X6414465Y-13119750D01*
X6414465Y-13119750D02*
X6395417Y-13129274D01*
X6395417Y-13129274D02*
X6376369Y-13129274D01*
X6376369Y-13129274D02*
X6357322Y-13119750D01*
X6357322Y-13119750D02*
X6347798Y-13110226D01*
X6347798Y-13110226D02*
X6338274Y-13091178D01*
X6338274Y-13091178D02*
X6328750Y-13053083D01*
X6328750Y-13053083D02*
X6328750Y-13005464D01*
X6328750Y-13005464D02*
X6338274Y-12967369D01*
X6338274Y-12967369D02*
X6347798Y-12948321D01*
X6347798Y-12948321D02*
X6357322Y-12938797D01*
X6357322Y-12938797D02*
X6376369Y-12929274D01*
X6519226Y-12929274D02*
X6519226Y-12967369D01*
X6595417Y-12929274D02*
X6595417Y-12967369D01*
X6890655Y-13205464D02*
X6881131Y-13195940D01*
X6881131Y-13195940D02*
X6862084Y-13167369D01*
X6862084Y-13167369D02*
X6852560Y-13148321D01*
X6852560Y-13148321D02*
X6843036Y-13119750D01*
X6843036Y-13119750D02*
X6833512Y-13072131D01*
X6833512Y-13072131D02*
X6833512Y-13034036D01*
X6833512Y-13034036D02*
X6843036Y-12986416D01*
X6843036Y-12986416D02*
X6852560Y-12957845D01*
X6852560Y-12957845D02*
X6862084Y-12938797D01*
X6862084Y-12938797D02*
X6881131Y-12910226D01*
X6881131Y-12910226D02*
X6890655Y-12900702D01*
X7052560Y-12995940D02*
X7052560Y-13129274D01*
X7004941Y-12919750D02*
X6957322Y-13062607D01*
X6957322Y-13062607D02*
X7081131Y-13062607D01*
X7309703Y-13129274D02*
X7309703Y-12929274D01*
X7395417Y-13129274D02*
X7395417Y-13024512D01*
X7395417Y-13024512D02*
X7385893Y-13005464D01*
X7385893Y-13005464D02*
X7366846Y-12995940D01*
X7366846Y-12995940D02*
X7338274Y-12995940D01*
X7338274Y-12995940D02*
X7319227Y-13005464D01*
X7319227Y-13005464D02*
X7309703Y-13014988D01*
X7519227Y-13129274D02*
X7500179Y-13119750D01*
X7500179Y-13119750D02*
X7490655Y-13110226D01*
X7490655Y-13110226D02*
X7481131Y-13091178D01*
X7481131Y-13091178D02*
X7481131Y-13034036D01*
X7481131Y-13034036D02*
X7490655Y-13014988D01*
X7490655Y-13014988D02*
X7500179Y-13005464D01*
X7500179Y-13005464D02*
X7519227Y-12995940D01*
X7519227Y-12995940D02*
X7547798Y-12995940D01*
X7547798Y-12995940D02*
X7566846Y-13005464D01*
X7566846Y-13005464D02*
X7576369Y-13014988D01*
X7576369Y-13014988D02*
X7585893Y-13034036D01*
X7585893Y-13034036D02*
X7585893Y-13091178D01*
X7585893Y-13091178D02*
X7576369Y-13110226D01*
X7576369Y-13110226D02*
X7566846Y-13119750D01*
X7566846Y-13119750D02*
X7547798Y-13129274D01*
X7547798Y-13129274D02*
X7519227Y-13129274D01*
X7700179Y-13129274D02*
X7681131Y-13119750D01*
X7681131Y-13119750D02*
X7671608Y-13100702D01*
X7671608Y-13100702D02*
X7671608Y-12929274D01*
X7852560Y-13119750D02*
X7833512Y-13129274D01*
X7833512Y-13129274D02*
X7795417Y-13129274D01*
X7795417Y-13129274D02*
X7776369Y-13119750D01*
X7776369Y-13119750D02*
X7766846Y-13100702D01*
X7766846Y-13100702D02*
X7766846Y-13024512D01*
X7766846Y-13024512D02*
X7776369Y-13005464D01*
X7776369Y-13005464D02*
X7795417Y-12995940D01*
X7795417Y-12995940D02*
X7833512Y-12995940D01*
X7833512Y-12995940D02*
X7852560Y-13005464D01*
X7852560Y-13005464D02*
X7862084Y-13024512D01*
X7862084Y-13024512D02*
X7862084Y-13043559D01*
X7862084Y-13043559D02*
X7766846Y-13062607D01*
X7938274Y-13119750D02*
X7957322Y-13129274D01*
X7957322Y-13129274D02*
X7995417Y-13129274D01*
X7995417Y-13129274D02*
X8014465Y-13119750D01*
X8014465Y-13119750D02*
X8023989Y-13100702D01*
X8023989Y-13100702D02*
X8023989Y-13091178D01*
X8023989Y-13091178D02*
X8014465Y-13072131D01*
X8014465Y-13072131D02*
X7995417Y-13062607D01*
X7995417Y-13062607D02*
X7966846Y-13062607D01*
X7966846Y-13062607D02*
X7947798Y-13053083D01*
X7947798Y-13053083D02*
X7938274Y-13034036D01*
X7938274Y-13034036D02*
X7938274Y-13024512D01*
X7938274Y-13024512D02*
X7947798Y-13005464D01*
X7947798Y-13005464D02*
X7966846Y-12995940D01*
X7966846Y-12995940D02*
X7995417Y-12995940D01*
X7995417Y-12995940D02*
X8014465Y-13005464D01*
X8090655Y-13205464D02*
X8100179Y-13195940D01*
X8100179Y-13195940D02*
X8119227Y-13167369D01*
X8119227Y-13167369D02*
X8128750Y-13148321D01*
X8128750Y-13148321D02*
X8138274Y-13119750D01*
X8138274Y-13119750D02*
X8147798Y-13072131D01*
X8147798Y-13072131D02*
X8147798Y-13034036D01*
X8147798Y-13034036D02*
X8138274Y-12986416D01*
X8138274Y-12986416D02*
X8128750Y-12957845D01*
X8128750Y-12957845D02*
X8119227Y-12938797D01*
X8119227Y-12938797D02*
X8100179Y-12910226D01*
X8100179Y-12910226D02*
X8090655Y-12900702D01*
X8452560Y-13205464D02*
X8443036Y-13195940D01*
X8443036Y-13195940D02*
X8423989Y-13167369D01*
X8423989Y-13167369D02*
X8414465Y-13148321D01*
X8414465Y-13148321D02*
X8404941Y-13119750D01*
X8404941Y-13119750D02*
X8395417Y-13072131D01*
X8395417Y-13072131D02*
X8395417Y-13034036D01*
X8395417Y-13034036D02*
X8404941Y-12986416D01*
X8404941Y-12986416D02*
X8414465Y-12957845D01*
X8414465Y-12957845D02*
X8423989Y-12938797D01*
X8423989Y-12938797D02*
X8443036Y-12910226D01*
X8443036Y-12910226D02*
X8452560Y-12900702D01*
X8528751Y-12995940D02*
X8528751Y-13129274D01*
X8528751Y-13014988D02*
X8538274Y-13005464D01*
X8538274Y-13005464D02*
X8557322Y-12995940D01*
X8557322Y-12995940D02*
X8585893Y-12995940D01*
X8585893Y-12995940D02*
X8604941Y-13005464D01*
X8604941Y-13005464D02*
X8614465Y-13024512D01*
X8614465Y-13024512D02*
X8614465Y-13129274D01*
X8738274Y-13129274D02*
X8719227Y-13119750D01*
X8719227Y-13119750D02*
X8709703Y-13110226D01*
X8709703Y-13110226D02*
X8700179Y-13091178D01*
X8700179Y-13091178D02*
X8700179Y-13034036D01*
X8700179Y-13034036D02*
X8709703Y-13014988D01*
X8709703Y-13014988D02*
X8719227Y-13005464D01*
X8719227Y-13005464D02*
X8738274Y-12995940D01*
X8738274Y-12995940D02*
X8766846Y-12995940D01*
X8766846Y-12995940D02*
X8785893Y-13005464D01*
X8785893Y-13005464D02*
X8795417Y-13014988D01*
X8795417Y-13014988D02*
X8804941Y-13034036D01*
X8804941Y-13034036D02*
X8804941Y-13091178D01*
X8804941Y-13091178D02*
X8795417Y-13110226D01*
X8795417Y-13110226D02*
X8785893Y-13119750D01*
X8785893Y-13119750D02*
X8766846Y-13129274D01*
X8766846Y-13129274D02*
X8738274Y-13129274D01*
X8862084Y-12995940D02*
X8938274Y-12995940D01*
X8890655Y-12929274D02*
X8890655Y-13100702D01*
X8890655Y-13100702D02*
X8900179Y-13119750D01*
X8900179Y-13119750D02*
X8919227Y-13129274D01*
X8919227Y-13129274D02*
X8938274Y-13129274D01*
X9157322Y-12995940D02*
X9157322Y-13195940D01*
X9157322Y-13005464D02*
X9176370Y-12995940D01*
X9176370Y-12995940D02*
X9214465Y-12995940D01*
X9214465Y-12995940D02*
X9233513Y-13005464D01*
X9233513Y-13005464D02*
X9243036Y-13014988D01*
X9243036Y-13014988D02*
X9252560Y-13034036D01*
X9252560Y-13034036D02*
X9252560Y-13091178D01*
X9252560Y-13091178D02*
X9243036Y-13110226D01*
X9243036Y-13110226D02*
X9233513Y-13119750D01*
X9233513Y-13119750D02*
X9214465Y-13129274D01*
X9214465Y-13129274D02*
X9176370Y-13129274D01*
X9176370Y-13129274D02*
X9157322Y-13119750D01*
X9366846Y-13129274D02*
X9347798Y-13119750D01*
X9347798Y-13119750D02*
X9338274Y-13100702D01*
X9338274Y-13100702D02*
X9338274Y-12929274D01*
X9528751Y-13129274D02*
X9528751Y-13024512D01*
X9528751Y-13024512D02*
X9519227Y-13005464D01*
X9519227Y-13005464D02*
X9500179Y-12995940D01*
X9500179Y-12995940D02*
X9462084Y-12995940D01*
X9462084Y-12995940D02*
X9443036Y-13005464D01*
X9528751Y-13119750D02*
X9509703Y-13129274D01*
X9509703Y-13129274D02*
X9462084Y-13129274D01*
X9462084Y-13129274D02*
X9443036Y-13119750D01*
X9443036Y-13119750D02*
X9433513Y-13100702D01*
X9433513Y-13100702D02*
X9433513Y-13081655D01*
X9433513Y-13081655D02*
X9443036Y-13062607D01*
X9443036Y-13062607D02*
X9462084Y-13053083D01*
X9462084Y-13053083D02*
X9509703Y-13053083D01*
X9509703Y-13053083D02*
X9528751Y-13043559D01*
X9595417Y-12995940D02*
X9671608Y-12995940D01*
X9623989Y-12929274D02*
X9623989Y-13100702D01*
X9623989Y-13100702D02*
X9633513Y-13119750D01*
X9633513Y-13119750D02*
X9652560Y-13129274D01*
X9652560Y-13129274D02*
X9671608Y-13129274D01*
X9814465Y-13119750D02*
X9795417Y-13129274D01*
X9795417Y-13129274D02*
X9757322Y-13129274D01*
X9757322Y-13129274D02*
X9738274Y-13119750D01*
X9738274Y-13119750D02*
X9728751Y-13100702D01*
X9728751Y-13100702D02*
X9728751Y-13024512D01*
X9728751Y-13024512D02*
X9738274Y-13005464D01*
X9738274Y-13005464D02*
X9757322Y-12995940D01*
X9757322Y-12995940D02*
X9795417Y-12995940D01*
X9795417Y-12995940D02*
X9814465Y-13005464D01*
X9814465Y-13005464D02*
X9823989Y-13024512D01*
X9823989Y-13024512D02*
X9823989Y-13043559D01*
X9823989Y-13043559D02*
X9728751Y-13062607D01*
X9995417Y-13129274D02*
X9995417Y-12929274D01*
X9995417Y-13119750D02*
X9976370Y-13129274D01*
X9976370Y-13129274D02*
X9938274Y-13129274D01*
X9938274Y-13129274D02*
X9919227Y-13119750D01*
X9919227Y-13119750D02*
X9909703Y-13110226D01*
X9909703Y-13110226D02*
X9900179Y-13091178D01*
X9900179Y-13091178D02*
X9900179Y-13034036D01*
X9900179Y-13034036D02*
X9909703Y-13014988D01*
X9909703Y-13014988D02*
X9919227Y-13005464D01*
X9919227Y-13005464D02*
X9938274Y-12995940D01*
X9938274Y-12995940D02*
X9976370Y-12995940D01*
X9976370Y-12995940D02*
X9995417Y-13005464D01*
X10071608Y-13205464D02*
X10081132Y-13195940D01*
X10081132Y-13195940D02*
X10100179Y-13167369D01*
X10100179Y-13167369D02*
X10109703Y-13148321D01*
X10109703Y-13148321D02*
X10119227Y-13119750D01*
X10119227Y-13119750D02*
X10128751Y-13072131D01*
X10128751Y-13072131D02*
X10128751Y-13034036D01*
X10128751Y-13034036D02*
X10119227Y-12986416D01*
X10119227Y-12986416D02*
X10109703Y-12957845D01*
X10109703Y-12957845D02*
X10100179Y-12938797D01*
X10100179Y-12938797D02*
X10081132Y-12910226D01*
X10081132Y-12910226D02*
X10071608Y-12900702D01*
X3228750Y-13256750D02*
X3228750Y-13456750D01*
X3128750Y-13356750D02*
X3328750Y-13356750D01*
X3557321Y-13249274D02*
X3681131Y-13249274D01*
X3681131Y-13249274D02*
X3614464Y-13325464D01*
X3614464Y-13325464D02*
X3643036Y-13325464D01*
X3643036Y-13325464D02*
X3662083Y-13334988D01*
X3662083Y-13334988D02*
X3671607Y-13344512D01*
X3671607Y-13344512D02*
X3681131Y-13363559D01*
X3681131Y-13363559D02*
X3681131Y-13411178D01*
X3681131Y-13411178D02*
X3671607Y-13430226D01*
X3671607Y-13430226D02*
X3662083Y-13439750D01*
X3662083Y-13439750D02*
X3643036Y-13449274D01*
X3643036Y-13449274D02*
X3585893Y-13449274D01*
X3585893Y-13449274D02*
X3566845Y-13439750D01*
X3566845Y-13439750D02*
X3557321Y-13430226D01*
X3766845Y-13430226D02*
X3776369Y-13439750D01*
X3776369Y-13439750D02*
X3766845Y-13449274D01*
X3766845Y-13449274D02*
X3757321Y-13439750D01*
X3757321Y-13439750D02*
X3766845Y-13430226D01*
X3766845Y-13430226D02*
X3766845Y-13449274D01*
X3871607Y-13449274D02*
X3909702Y-13449274D01*
X3909702Y-13449274D02*
X3928750Y-13439750D01*
X3928750Y-13439750D02*
X3938274Y-13430226D01*
X3938274Y-13430226D02*
X3957321Y-13401655D01*
X3957321Y-13401655D02*
X3966845Y-13363559D01*
X3966845Y-13363559D02*
X3966845Y-13287369D01*
X3966845Y-13287369D02*
X3957321Y-13268321D01*
X3957321Y-13268321D02*
X3947798Y-13258797D01*
X3947798Y-13258797D02*
X3928750Y-13249274D01*
X3928750Y-13249274D02*
X3890655Y-13249274D01*
X3890655Y-13249274D02*
X3871607Y-13258797D01*
X3871607Y-13258797D02*
X3862083Y-13268321D01*
X3862083Y-13268321D02*
X3852560Y-13287369D01*
X3852560Y-13287369D02*
X3852560Y-13334988D01*
X3852560Y-13334988D02*
X3862083Y-13354036D01*
X3862083Y-13354036D02*
X3871607Y-13363559D01*
X3871607Y-13363559D02*
X3890655Y-13373083D01*
X3890655Y-13373083D02*
X3928750Y-13373083D01*
X3928750Y-13373083D02*
X3947798Y-13363559D01*
X3947798Y-13363559D02*
X3957321Y-13354036D01*
X3957321Y-13354036D02*
X3966845Y-13334988D01*
X4081131Y-13334988D02*
X4062083Y-13325464D01*
X4062083Y-13325464D02*
X4052560Y-13315940D01*
X4052560Y-13315940D02*
X4043036Y-13296893D01*
X4043036Y-13296893D02*
X4043036Y-13287369D01*
X4043036Y-13287369D02*
X4052560Y-13268321D01*
X4052560Y-13268321D02*
X4062083Y-13258797D01*
X4062083Y-13258797D02*
X4081131Y-13249274D01*
X4081131Y-13249274D02*
X4119226Y-13249274D01*
X4119226Y-13249274D02*
X4138274Y-13258797D01*
X4138274Y-13258797D02*
X4147798Y-13268321D01*
X4147798Y-13268321D02*
X4157321Y-13287369D01*
X4157321Y-13287369D02*
X4157321Y-13296893D01*
X4157321Y-13296893D02*
X4147798Y-13315940D01*
X4147798Y-13315940D02*
X4138274Y-13325464D01*
X4138274Y-13325464D02*
X4119226Y-13334988D01*
X4119226Y-13334988D02*
X4081131Y-13334988D01*
X4081131Y-13334988D02*
X4062083Y-13344512D01*
X4062083Y-13344512D02*
X4052560Y-13354036D01*
X4052560Y-13354036D02*
X4043036Y-13373083D01*
X4043036Y-13373083D02*
X4043036Y-13411178D01*
X4043036Y-13411178D02*
X4052560Y-13430226D01*
X4052560Y-13430226D02*
X4062083Y-13439750D01*
X4062083Y-13439750D02*
X4081131Y-13449274D01*
X4081131Y-13449274D02*
X4119226Y-13449274D01*
X4119226Y-13449274D02*
X4138274Y-13439750D01*
X4138274Y-13439750D02*
X4147798Y-13430226D01*
X4147798Y-13430226D02*
X4157321Y-13411178D01*
X4157321Y-13411178D02*
X4157321Y-13373083D01*
X4157321Y-13373083D02*
X4147798Y-13354036D01*
X4147798Y-13354036D02*
X4138274Y-13344512D01*
X4138274Y-13344512D02*
X4119226Y-13334988D01*
X4271607Y-13334988D02*
X4252560Y-13325464D01*
X4252560Y-13325464D02*
X4243036Y-13315940D01*
X4243036Y-13315940D02*
X4233512Y-13296893D01*
X4233512Y-13296893D02*
X4233512Y-13287369D01*
X4233512Y-13287369D02*
X4243036Y-13268321D01*
X4243036Y-13268321D02*
X4252560Y-13258797D01*
X4252560Y-13258797D02*
X4271607Y-13249274D01*
X4271607Y-13249274D02*
X4309703Y-13249274D01*
X4309703Y-13249274D02*
X4328750Y-13258797D01*
X4328750Y-13258797D02*
X4338274Y-13268321D01*
X4338274Y-13268321D02*
X4347798Y-13287369D01*
X4347798Y-13287369D02*
X4347798Y-13296893D01*
X4347798Y-13296893D02*
X4338274Y-13315940D01*
X4338274Y-13315940D02*
X4328750Y-13325464D01*
X4328750Y-13325464D02*
X4309703Y-13334988D01*
X4309703Y-13334988D02*
X4271607Y-13334988D01*
X4271607Y-13334988D02*
X4252560Y-13344512D01*
X4252560Y-13344512D02*
X4243036Y-13354036D01*
X4243036Y-13354036D02*
X4233512Y-13373083D01*
X4233512Y-13373083D02*
X4233512Y-13411178D01*
X4233512Y-13411178D02*
X4243036Y-13430226D01*
X4243036Y-13430226D02*
X4252560Y-13439750D01*
X4252560Y-13439750D02*
X4271607Y-13449274D01*
X4271607Y-13449274D02*
X4309703Y-13449274D01*
X4309703Y-13449274D02*
X4328750Y-13439750D01*
X4328750Y-13439750D02*
X4338274Y-13430226D01*
X4338274Y-13430226D02*
X4347798Y-13411178D01*
X4347798Y-13411178D02*
X4347798Y-13373083D01*
X4347798Y-13373083D02*
X4338274Y-13354036D01*
X4338274Y-13354036D02*
X4328750Y-13344512D01*
X4328750Y-13344512D02*
X4309703Y-13334988D01*
X4433512Y-13449274D02*
X4433512Y-13315940D01*
X4433512Y-13334988D02*
X4443036Y-13325464D01*
X4443036Y-13325464D02*
X4462083Y-13315940D01*
X4462083Y-13315940D02*
X4490655Y-13315940D01*
X4490655Y-13315940D02*
X4509703Y-13325464D01*
X4509703Y-13325464D02*
X4519226Y-13344512D01*
X4519226Y-13344512D02*
X4519226Y-13449274D01*
X4519226Y-13344512D02*
X4528750Y-13325464D01*
X4528750Y-13325464D02*
X4547798Y-13315940D01*
X4547798Y-13315940D02*
X4576369Y-13315940D01*
X4576369Y-13315940D02*
X4595417Y-13325464D01*
X4595417Y-13325464D02*
X4604941Y-13344512D01*
X4604941Y-13344512D02*
X4604941Y-13449274D01*
X4700179Y-13449274D02*
X4700179Y-13315940D01*
X4700179Y-13334988D02*
X4709703Y-13325464D01*
X4709703Y-13325464D02*
X4728750Y-13315940D01*
X4728750Y-13315940D02*
X4757322Y-13315940D01*
X4757322Y-13315940D02*
X4776369Y-13325464D01*
X4776369Y-13325464D02*
X4785893Y-13344512D01*
X4785893Y-13344512D02*
X4785893Y-13449274D01*
X4785893Y-13344512D02*
X4795417Y-13325464D01*
X4795417Y-13325464D02*
X4814464Y-13315940D01*
X4814464Y-13315940D02*
X4843036Y-13315940D01*
X4843036Y-13315940D02*
X4862084Y-13325464D01*
X4862084Y-13325464D02*
X4871607Y-13344512D01*
X4871607Y-13344512D02*
X4871607Y-13449274D01*
X5262084Y-13239750D02*
X5090655Y-13496893D01*
X5519226Y-13249274D02*
X5538274Y-13249274D01*
X5538274Y-13249274D02*
X5557322Y-13258797D01*
X5557322Y-13258797D02*
X5566846Y-13268321D01*
X5566846Y-13268321D02*
X5576369Y-13287369D01*
X5576369Y-13287369D02*
X5585893Y-13325464D01*
X5585893Y-13325464D02*
X5585893Y-13373083D01*
X5585893Y-13373083D02*
X5576369Y-13411178D01*
X5576369Y-13411178D02*
X5566846Y-13430226D01*
X5566846Y-13430226D02*
X5557322Y-13439750D01*
X5557322Y-13439750D02*
X5538274Y-13449274D01*
X5538274Y-13449274D02*
X5519226Y-13449274D01*
X5519226Y-13449274D02*
X5500179Y-13439750D01*
X5500179Y-13439750D02*
X5490655Y-13430226D01*
X5490655Y-13430226D02*
X5481131Y-13411178D01*
X5481131Y-13411178D02*
X5471607Y-13373083D01*
X5471607Y-13373083D02*
X5471607Y-13325464D01*
X5471607Y-13325464D02*
X5481131Y-13287369D01*
X5481131Y-13287369D02*
X5490655Y-13268321D01*
X5490655Y-13268321D02*
X5500179Y-13258797D01*
X5500179Y-13258797D02*
X5519226Y-13249274D01*
X5671607Y-13430226D02*
X5681131Y-13439750D01*
X5681131Y-13439750D02*
X5671607Y-13449274D01*
X5671607Y-13449274D02*
X5662084Y-13439750D01*
X5662084Y-13439750D02*
X5671607Y-13430226D01*
X5671607Y-13430226D02*
X5671607Y-13449274D01*
X5871607Y-13449274D02*
X5757322Y-13449274D01*
X5814464Y-13449274D02*
X5814464Y-13249274D01*
X5814464Y-13249274D02*
X5795417Y-13277845D01*
X5795417Y-13277845D02*
X5776369Y-13296893D01*
X5776369Y-13296893D02*
X5757322Y-13306416D01*
X6052560Y-13249274D02*
X5957322Y-13249274D01*
X5957322Y-13249274D02*
X5947798Y-13344512D01*
X5947798Y-13344512D02*
X5957322Y-13334988D01*
X5957322Y-13334988D02*
X5976369Y-13325464D01*
X5976369Y-13325464D02*
X6023988Y-13325464D01*
X6023988Y-13325464D02*
X6043036Y-13334988D01*
X6043036Y-13334988D02*
X6052560Y-13344512D01*
X6052560Y-13344512D02*
X6062084Y-13363559D01*
X6062084Y-13363559D02*
X6062084Y-13411178D01*
X6062084Y-13411178D02*
X6052560Y-13430226D01*
X6052560Y-13430226D02*
X6043036Y-13439750D01*
X6043036Y-13439750D02*
X6023988Y-13449274D01*
X6023988Y-13449274D02*
X5976369Y-13449274D01*
X5976369Y-13449274D02*
X5957322Y-13439750D01*
X5957322Y-13439750D02*
X5947798Y-13430226D01*
X6128750Y-13249274D02*
X6262084Y-13249274D01*
X6262084Y-13249274D02*
X6176369Y-13449274D01*
X6376369Y-13249274D02*
X6395417Y-13249274D01*
X6395417Y-13249274D02*
X6414465Y-13258797D01*
X6414465Y-13258797D02*
X6423988Y-13268321D01*
X6423988Y-13268321D02*
X6433512Y-13287369D01*
X6433512Y-13287369D02*
X6443036Y-13325464D01*
X6443036Y-13325464D02*
X6443036Y-13373083D01*
X6443036Y-13373083D02*
X6433512Y-13411178D01*
X6433512Y-13411178D02*
X6423988Y-13430226D01*
X6423988Y-13430226D02*
X6414465Y-13439750D01*
X6414465Y-13439750D02*
X6395417Y-13449274D01*
X6395417Y-13449274D02*
X6376369Y-13449274D01*
X6376369Y-13449274D02*
X6357322Y-13439750D01*
X6357322Y-13439750D02*
X6347798Y-13430226D01*
X6347798Y-13430226D02*
X6338274Y-13411178D01*
X6338274Y-13411178D02*
X6328750Y-13373083D01*
X6328750Y-13373083D02*
X6328750Y-13325464D01*
X6328750Y-13325464D02*
X6338274Y-13287369D01*
X6338274Y-13287369D02*
X6347798Y-13268321D01*
X6347798Y-13268321D02*
X6357322Y-13258797D01*
X6357322Y-13258797D02*
X6376369Y-13249274D01*
X6519226Y-13249274D02*
X6519226Y-13287369D01*
X6595417Y-13249274D02*
X6595417Y-13287369D01*
X6890655Y-13525464D02*
X6881131Y-13515940D01*
X6881131Y-13515940D02*
X6862084Y-13487369D01*
X6862084Y-13487369D02*
X6852560Y-13468321D01*
X6852560Y-13468321D02*
X6843036Y-13439750D01*
X6843036Y-13439750D02*
X6833512Y-13392131D01*
X6833512Y-13392131D02*
X6833512Y-13354036D01*
X6833512Y-13354036D02*
X6843036Y-13306416D01*
X6843036Y-13306416D02*
X6852560Y-13277845D01*
X6852560Y-13277845D02*
X6862084Y-13258797D01*
X6862084Y-13258797D02*
X6881131Y-13230226D01*
X6881131Y-13230226D02*
X6890655Y-13220702D01*
X7052560Y-13315940D02*
X7052560Y-13449274D01*
X7004941Y-13239750D02*
X6957322Y-13382607D01*
X6957322Y-13382607D02*
X7081131Y-13382607D01*
X7243036Y-13315940D02*
X7243036Y-13449274D01*
X7195417Y-13239750D02*
X7147798Y-13382607D01*
X7147798Y-13382607D02*
X7271607Y-13382607D01*
X7500179Y-13449274D02*
X7500179Y-13249274D01*
X7585893Y-13449274D02*
X7585893Y-13344512D01*
X7585893Y-13344512D02*
X7576369Y-13325464D01*
X7576369Y-13325464D02*
X7557322Y-13315940D01*
X7557322Y-13315940D02*
X7528750Y-13315940D01*
X7528750Y-13315940D02*
X7509703Y-13325464D01*
X7509703Y-13325464D02*
X7500179Y-13334988D01*
X7709703Y-13449274D02*
X7690655Y-13439750D01*
X7690655Y-13439750D02*
X7681131Y-13430226D01*
X7681131Y-13430226D02*
X7671608Y-13411178D01*
X7671608Y-13411178D02*
X7671608Y-13354036D01*
X7671608Y-13354036D02*
X7681131Y-13334988D01*
X7681131Y-13334988D02*
X7690655Y-13325464D01*
X7690655Y-13325464D02*
X7709703Y-13315940D01*
X7709703Y-13315940D02*
X7738274Y-13315940D01*
X7738274Y-13315940D02*
X7757322Y-13325464D01*
X7757322Y-13325464D02*
X7766846Y-13334988D01*
X7766846Y-13334988D02*
X7776369Y-13354036D01*
X7776369Y-13354036D02*
X7776369Y-13411178D01*
X7776369Y-13411178D02*
X7766846Y-13430226D01*
X7766846Y-13430226D02*
X7757322Y-13439750D01*
X7757322Y-13439750D02*
X7738274Y-13449274D01*
X7738274Y-13449274D02*
X7709703Y-13449274D01*
X7890655Y-13449274D02*
X7871608Y-13439750D01*
X7871608Y-13439750D02*
X7862084Y-13420702D01*
X7862084Y-13420702D02*
X7862084Y-13249274D01*
X8043036Y-13439750D02*
X8023989Y-13449274D01*
X8023989Y-13449274D02*
X7985893Y-13449274D01*
X7985893Y-13449274D02*
X7966846Y-13439750D01*
X7966846Y-13439750D02*
X7957322Y-13420702D01*
X7957322Y-13420702D02*
X7957322Y-13344512D01*
X7957322Y-13344512D02*
X7966846Y-13325464D01*
X7966846Y-13325464D02*
X7985893Y-13315940D01*
X7985893Y-13315940D02*
X8023989Y-13315940D01*
X8023989Y-13315940D02*
X8043036Y-13325464D01*
X8043036Y-13325464D02*
X8052560Y-13344512D01*
X8052560Y-13344512D02*
X8052560Y-13363559D01*
X8052560Y-13363559D02*
X7957322Y-13382607D01*
X8128750Y-13439750D02*
X8147798Y-13449274D01*
X8147798Y-13449274D02*
X8185893Y-13449274D01*
X8185893Y-13449274D02*
X8204941Y-13439750D01*
X8204941Y-13439750D02*
X8214465Y-13420702D01*
X8214465Y-13420702D02*
X8214465Y-13411178D01*
X8214465Y-13411178D02*
X8204941Y-13392131D01*
X8204941Y-13392131D02*
X8185893Y-13382607D01*
X8185893Y-13382607D02*
X8157322Y-13382607D01*
X8157322Y-13382607D02*
X8138274Y-13373083D01*
X8138274Y-13373083D02*
X8128750Y-13354036D01*
X8128750Y-13354036D02*
X8128750Y-13344512D01*
X8128750Y-13344512D02*
X8138274Y-13325464D01*
X8138274Y-13325464D02*
X8157322Y-13315940D01*
X8157322Y-13315940D02*
X8185893Y-13315940D01*
X8185893Y-13315940D02*
X8204941Y-13325464D01*
X8281131Y-13525464D02*
X8290655Y-13515940D01*
X8290655Y-13515940D02*
X8309703Y-13487369D01*
X8309703Y-13487369D02*
X8319227Y-13468321D01*
X8319227Y-13468321D02*
X8328750Y-13439750D01*
X8328750Y-13439750D02*
X8338274Y-13392131D01*
X8338274Y-13392131D02*
X8338274Y-13354036D01*
X8338274Y-13354036D02*
X8328750Y-13306416D01*
X8328750Y-13306416D02*
X8319227Y-13277845D01*
X8319227Y-13277845D02*
X8309703Y-13258797D01*
X8309703Y-13258797D02*
X8290655Y-13230226D01*
X8290655Y-13230226D02*
X8281131Y-13220702D01*
X8643036Y-13525464D02*
X8633512Y-13515940D01*
X8633512Y-13515940D02*
X8614465Y-13487369D01*
X8614465Y-13487369D02*
X8604941Y-13468321D01*
X8604941Y-13468321D02*
X8595417Y-13439750D01*
X8595417Y-13439750D02*
X8585893Y-13392131D01*
X8585893Y-13392131D02*
X8585893Y-13354036D01*
X8585893Y-13354036D02*
X8595417Y-13306416D01*
X8595417Y-13306416D02*
X8604941Y-13277845D01*
X8604941Y-13277845D02*
X8614465Y-13258797D01*
X8614465Y-13258797D02*
X8633512Y-13230226D01*
X8633512Y-13230226D02*
X8643036Y-13220702D01*
X8719227Y-13315940D02*
X8719227Y-13449274D01*
X8719227Y-13334988D02*
X8728751Y-13325464D01*
X8728751Y-13325464D02*
X8747798Y-13315940D01*
X8747798Y-13315940D02*
X8776370Y-13315940D01*
X8776370Y-13315940D02*
X8795417Y-13325464D01*
X8795417Y-13325464D02*
X8804941Y-13344512D01*
X8804941Y-13344512D02*
X8804941Y-13449274D01*
X8928751Y-13449274D02*
X8909703Y-13439750D01*
X8909703Y-13439750D02*
X8900179Y-13430226D01*
X8900179Y-13430226D02*
X8890655Y-13411178D01*
X8890655Y-13411178D02*
X8890655Y-13354036D01*
X8890655Y-13354036D02*
X8900179Y-13334988D01*
X8900179Y-13334988D02*
X8909703Y-13325464D01*
X8909703Y-13325464D02*
X8928751Y-13315940D01*
X8928751Y-13315940D02*
X8957322Y-13315940D01*
X8957322Y-13315940D02*
X8976370Y-13325464D01*
X8976370Y-13325464D02*
X8985893Y-13334988D01*
X8985893Y-13334988D02*
X8995417Y-13354036D01*
X8995417Y-13354036D02*
X8995417Y-13411178D01*
X8995417Y-13411178D02*
X8985893Y-13430226D01*
X8985893Y-13430226D02*
X8976370Y-13439750D01*
X8976370Y-13439750D02*
X8957322Y-13449274D01*
X8957322Y-13449274D02*
X8928751Y-13449274D01*
X9052560Y-13315940D02*
X9128751Y-13315940D01*
X9081132Y-13249274D02*
X9081132Y-13420702D01*
X9081132Y-13420702D02*
X9090655Y-13439750D01*
X9090655Y-13439750D02*
X9109703Y-13449274D01*
X9109703Y-13449274D02*
X9128751Y-13449274D01*
X9347798Y-13315940D02*
X9347798Y-13515940D01*
X9347798Y-13325464D02*
X9366846Y-13315940D01*
X9366846Y-13315940D02*
X9404941Y-13315940D01*
X9404941Y-13315940D02*
X9423989Y-13325464D01*
X9423989Y-13325464D02*
X9433513Y-13334988D01*
X9433513Y-13334988D02*
X9443036Y-13354036D01*
X9443036Y-13354036D02*
X9443036Y-13411178D01*
X9443036Y-13411178D02*
X9433513Y-13430226D01*
X9433513Y-13430226D02*
X9423989Y-13439750D01*
X9423989Y-13439750D02*
X9404941Y-13449274D01*
X9404941Y-13449274D02*
X9366846Y-13449274D01*
X9366846Y-13449274D02*
X9347798Y-13439750D01*
X9557322Y-13449274D02*
X9538274Y-13439750D01*
X9538274Y-13439750D02*
X9528751Y-13420702D01*
X9528751Y-13420702D02*
X9528751Y-13249274D01*
X9719227Y-13449274D02*
X9719227Y-13344512D01*
X9719227Y-13344512D02*
X9709703Y-13325464D01*
X9709703Y-13325464D02*
X9690655Y-13315940D01*
X9690655Y-13315940D02*
X9652560Y-13315940D01*
X9652560Y-13315940D02*
X9633513Y-13325464D01*
X9719227Y-13439750D02*
X9700179Y-13449274D01*
X9700179Y-13449274D02*
X9652560Y-13449274D01*
X9652560Y-13449274D02*
X9633513Y-13439750D01*
X9633513Y-13439750D02*
X9623989Y-13420702D01*
X9623989Y-13420702D02*
X9623989Y-13401655D01*
X9623989Y-13401655D02*
X9633513Y-13382607D01*
X9633513Y-13382607D02*
X9652560Y-13373083D01*
X9652560Y-13373083D02*
X9700179Y-13373083D01*
X9700179Y-13373083D02*
X9719227Y-13363559D01*
X9785894Y-13315940D02*
X9862084Y-13315940D01*
X9814465Y-13249274D02*
X9814465Y-13420702D01*
X9814465Y-13420702D02*
X9823989Y-13439750D01*
X9823989Y-13439750D02*
X9843036Y-13449274D01*
X9843036Y-13449274D02*
X9862084Y-13449274D01*
X10004941Y-13439750D02*
X9985894Y-13449274D01*
X9985894Y-13449274D02*
X9947798Y-13449274D01*
X9947798Y-13449274D02*
X9928751Y-13439750D01*
X9928751Y-13439750D02*
X9919227Y-13420702D01*
X9919227Y-13420702D02*
X9919227Y-13344512D01*
X9919227Y-13344512D02*
X9928751Y-13325464D01*
X9928751Y-13325464D02*
X9947798Y-13315940D01*
X9947798Y-13315940D02*
X9985894Y-13315940D01*
X9985894Y-13315940D02*
X10004941Y-13325464D01*
X10004941Y-13325464D02*
X10014465Y-13344512D01*
X10014465Y-13344512D02*
X10014465Y-13363559D01*
X10014465Y-13363559D02*
X9919227Y-13382607D01*
X10185894Y-13449274D02*
X10185894Y-13249274D01*
X10185894Y-13439750D02*
X10166846Y-13449274D01*
X10166846Y-13449274D02*
X10128751Y-13449274D01*
X10128751Y-13449274D02*
X10109703Y-13439750D01*
X10109703Y-13439750D02*
X10100179Y-13430226D01*
X10100179Y-13430226D02*
X10090655Y-13411178D01*
X10090655Y-13411178D02*
X10090655Y-13354036D01*
X10090655Y-13354036D02*
X10100179Y-13334988D01*
X10100179Y-13334988D02*
X10109703Y-13325464D01*
X10109703Y-13325464D02*
X10128751Y-13315940D01*
X10128751Y-13315940D02*
X10166846Y-13315940D01*
X10166846Y-13315940D02*
X10185894Y-13325464D01*
X10262084Y-13525464D02*
X10271608Y-13515940D01*
X10271608Y-13515940D02*
X10290655Y-13487369D01*
X10290655Y-13487369D02*
X10300179Y-13468321D01*
X10300179Y-13468321D02*
X10309703Y-13439750D01*
X10309703Y-13439750D02*
X10319227Y-13392131D01*
X10319227Y-13392131D02*
X10319227Y-13354036D01*
X10319227Y-13354036D02*
X10309703Y-13306416D01*
X10309703Y-13306416D02*
X10300179Y-13277845D01*
X10300179Y-13277845D02*
X10290655Y-13258797D01*
X10290655Y-13258797D02*
X10271608Y-13230226D01*
X10271608Y-13230226D02*
X10262084Y-13220702D01*
M02*
