%TF.GenerationSoftware,KiCad,Pcbnew,7.0.1*%
%TF.CreationDate,2023-04-30T14:25:03+01:00*%
%TF.ProjectId,40key,34306b65-792e-46b6-9963-61645f706362,rev?*%
%TF.SameCoordinates,Original*%
%TF.FileFunction,Soldermask,Top*%
%TF.FilePolarity,Negative*%
%FSLAX46Y46*%
G04 Gerber Fmt 4.6, Leading zero omitted, Abs format (unit mm)*
G04 Created by KiCad (PCBNEW 7.0.1) date 2023-04-30 14:25:03*
%MOMM*%
%LPD*%
G01*
G04 APERTURE LIST*
%ADD10C,3.048000*%
%ADD11C,3.987800*%
%ADD12R,1.500000X1.500000*%
%ADD13O,1.500000X1.500000*%
%ADD14C,1.750000*%
%ADD15R,1.700000X1.700000*%
%ADD16O,1.700000X1.700000*%
%ADD17R,1.600000X1.600000*%
%ADD18O,1.600000X1.600000*%
G04 APERTURE END LIST*
D10*
%TO.C,S2*%
X200536106Y-118427974D03*
D11*
X200536106Y-103187974D03*
D10*
X100523606Y-118427974D03*
D11*
X100523606Y-103187974D03*
%TD*%
D12*
%TO.C,D23*%
X151447500Y-65722500D03*
D13*
X151447500Y-73342500D03*
%TD*%
D12*
%TO.C,D37*%
X199072500Y-85243750D03*
D13*
X199072500Y-92863750D03*
%TD*%
D14*
%TO.C,MX16*%
X100171250Y-73342500D03*
D11*
X105251250Y-73342500D03*
D14*
X110331250Y-73342500D03*
%TD*%
D12*
%TO.C,D13*%
X184785000Y-46672500D03*
D13*
X184785000Y-54292500D03*
%TD*%
D14*
%TO.C,MX35*%
X40640000Y-111442500D03*
D11*
X45720000Y-111442500D03*
D14*
X50800000Y-111442500D03*
%TD*%
D15*
%TO.C,J1*%
X215423750Y-36628706D03*
D16*
X217963750Y-36628706D03*
X220503750Y-36628706D03*
X223043750Y-36628706D03*
X225583750Y-36628706D03*
X228123750Y-36628706D03*
X230663750Y-36628706D03*
X233203750Y-36628706D03*
X235743750Y-36628706D03*
%TD*%
D12*
%TO.C,D35*%
X160972500Y-85725000D03*
D13*
X160972500Y-93345000D03*
%TD*%
D12*
%TO.C,D34*%
X141922500Y-84772500D03*
D13*
X141922500Y-92392500D03*
%TD*%
D12*
%TO.C,D9*%
X108585000Y-46667500D03*
D13*
X108585000Y-54287500D03*
%TD*%
D14*
%TO.C,MX6*%
X133508750Y-54292500D03*
D11*
X138588750Y-54292500D03*
D14*
X143668750Y-54292500D03*
%TD*%
%TO.C,MX26*%
X71596250Y-92392500D03*
D11*
X76676250Y-92392500D03*
D14*
X81756250Y-92392500D03*
%TD*%
%TO.C,MX31*%
X166846250Y-92392500D03*
D11*
X171926250Y-92392500D03*
D14*
X177006250Y-92392500D03*
%TD*%
%TO.C,MX21*%
X195421250Y-73342500D03*
D11*
X200501250Y-73342500D03*
D14*
X205581250Y-73342500D03*
%TD*%
D12*
%TO.C,D36*%
X180022500Y-85720000D03*
D13*
X180022500Y-93340000D03*
%TD*%
D12*
%TO.C,D43*%
X227647500Y-104775000D03*
D13*
X227647500Y-112395000D03*
%TD*%
D10*
%TO.C,S1*%
X264636250Y-70961250D03*
D11*
X249396250Y-70961250D03*
D10*
X264636250Y-94773750D03*
D11*
X249396250Y-94773750D03*
%TD*%
D12*
%TO.C,D17*%
X263366250Y-46667500D03*
D13*
X263366250Y-54287500D03*
%TD*%
D14*
%TO.C,MX37*%
X145415000Y-111442500D03*
D11*
X150495000Y-111442500D03*
D14*
X155575000Y-111442500D03*
%TD*%
D12*
%TO.C,D38*%
X82391250Y-104293750D03*
D13*
X82391250Y-111913750D03*
%TD*%
D14*
%TO.C,MX33*%
X209708750Y-92392500D03*
D11*
X214788750Y-92392500D03*
D14*
X219868750Y-92392500D03*
%TD*%
D12*
%TO.C,D44*%
X246697500Y-104770000D03*
D13*
X246697500Y-112390000D03*
%TD*%
D12*
%TO.C,D25*%
X189547500Y-65722500D03*
D13*
X189547500Y-73342500D03*
%TD*%
D14*
%TO.C,MX12*%
X250190000Y-54292500D03*
D11*
X255270000Y-54292500D03*
D14*
X260350000Y-54292500D03*
%TD*%
D12*
%TO.C,D16*%
X241935000Y-61917500D03*
D13*
X241935000Y-54297500D03*
%TD*%
D14*
%TO.C,MX34*%
X233521250Y-92392500D03*
D11*
X238601250Y-92392500D03*
D14*
X243681250Y-92392500D03*
%TD*%
D12*
%TO.C,D3*%
X244316250Y-36623706D03*
D13*
X244316250Y-44243706D03*
%TD*%
D12*
%TO.C,D29*%
X265747500Y-75242500D03*
D13*
X265747500Y-82862500D03*
%TD*%
D12*
%TO.C,D40*%
X53816250Y-104770000D03*
D13*
X53816250Y-112390000D03*
%TD*%
D12*
%TO.C,D6*%
X51435000Y-46667500D03*
D13*
X51435000Y-54287500D03*
%TD*%
D12*
%TO.C,D28*%
X246697500Y-80967500D03*
D13*
X246697500Y-73347500D03*
%TD*%
D12*
%TO.C,D5*%
X249078750Y-36623706D03*
D13*
X249078750Y-44243706D03*
%TD*%
D15*
%TO.C,J2*%
X262572500Y-36628706D03*
D16*
X260032500Y-36628706D03*
X257492500Y-36628706D03*
X254952500Y-36628706D03*
X252412500Y-36628706D03*
%TD*%
D14*
%TO.C,MX13*%
X40640000Y-73342500D03*
D11*
X45720000Y-73342500D03*
D14*
X50800000Y-73342500D03*
%TD*%
D12*
%TO.C,D26*%
X208597500Y-65722500D03*
D13*
X208597500Y-73342500D03*
%TD*%
D12*
%TO.C,D32*%
X103822500Y-99541250D03*
D13*
X103822500Y-91921250D03*
%TD*%
D14*
%TO.C,MX17*%
X119221250Y-73342500D03*
D11*
X124301250Y-73342500D03*
D14*
X129381250Y-73342500D03*
%TD*%
D12*
%TO.C,D7*%
X70485000Y-61917500D03*
D13*
X70485000Y-54297500D03*
%TD*%
D14*
%TO.C,MX23*%
X233521250Y-73342500D03*
D11*
X238601250Y-73342500D03*
D14*
X243681250Y-73342500D03*
%TD*%
%TO.C,MX5*%
X114458750Y-54292500D03*
D11*
X119538750Y-54292500D03*
D14*
X124618750Y-54292500D03*
%TD*%
%TO.C,MX30*%
X147796250Y-92392500D03*
D11*
X152876250Y-92392500D03*
D14*
X157956250Y-92392500D03*
%TD*%
D12*
%TO.C,D14*%
X203835000Y-46667500D03*
D13*
X203835000Y-54287500D03*
%TD*%
D14*
%TO.C,MX22*%
X214471250Y-73342500D03*
D11*
X219551250Y-73342500D03*
D14*
X224631250Y-73342500D03*
%TD*%
%TO.C,MX19*%
X157321250Y-73342500D03*
D11*
X162401250Y-73342500D03*
D14*
X167481250Y-73342500D03*
%TD*%
D12*
%TO.C,D4*%
X246697500Y-36623706D03*
D13*
X246697500Y-44243706D03*
%TD*%
D12*
%TO.C,D31*%
X84772500Y-84767500D03*
D13*
X84772500Y-92387500D03*
%TD*%
D14*
%TO.C,MX28*%
X109696250Y-92392500D03*
D11*
X114776250Y-92392500D03*
D14*
X119856250Y-92392500D03*
%TD*%
%TO.C,MX1*%
X38258750Y-54292500D03*
D11*
X43338750Y-54292500D03*
D14*
X48418750Y-54292500D03*
%TD*%
%TO.C,MX40*%
X252571250Y-111442500D03*
D11*
X257651250Y-111442500D03*
D14*
X262731250Y-111442500D03*
%TD*%
%TO.C,MX27*%
X90646250Y-92392500D03*
D11*
X95726250Y-92392500D03*
D14*
X100806250Y-92392500D03*
%TD*%
%TO.C,MX11*%
X228758750Y-54292500D03*
D11*
X233838750Y-54292500D03*
D14*
X238918750Y-54292500D03*
%TD*%
%TO.C,MX14*%
X62071250Y-73342500D03*
D11*
X67151250Y-73342500D03*
D14*
X72231250Y-73342500D03*
%TD*%
D12*
%TO.C,D12*%
X165735000Y-61912500D03*
D13*
X165735000Y-54292500D03*
%TD*%
D12*
%TO.C,D8*%
X89535000Y-46667500D03*
D13*
X89535000Y-54287500D03*
%TD*%
D12*
%TO.C,D41*%
X222885000Y-84767500D03*
D13*
X222885000Y-92387500D03*
%TD*%
D12*
%TO.C,D1*%
X239553750Y-36623706D03*
D13*
X239553750Y-44243706D03*
%TD*%
D12*
%TO.C,D10*%
X127635000Y-46672500D03*
D13*
X127635000Y-54292500D03*
%TD*%
D12*
%TO.C,D30*%
X58578750Y-84767500D03*
D13*
X58578750Y-92387500D03*
%TD*%
D14*
%TO.C,MX15*%
X81121250Y-73342500D03*
D11*
X86201250Y-73342500D03*
D14*
X91281250Y-73342500D03*
%TD*%
%TO.C,MX25*%
X45402500Y-92392500D03*
D11*
X50482500Y-92392500D03*
D14*
X55562500Y-92392500D03*
%TD*%
D17*
%TO.C,RN1*%
X215423750Y-40481250D03*
D18*
X217963750Y-40481250D03*
X220503750Y-40481250D03*
X223043750Y-40481250D03*
X225583750Y-40481250D03*
X228123750Y-40481250D03*
X230663750Y-40481250D03*
X233203750Y-40481250D03*
X235743750Y-40481250D03*
%TD*%
D14*
%TO.C,MX29*%
X128746250Y-92392500D03*
D11*
X133826250Y-92392500D03*
D14*
X138906250Y-92392500D03*
%TD*%
D12*
%TO.C,D42*%
X158591250Y-103817500D03*
D13*
X158591250Y-111437500D03*
%TD*%
D14*
%TO.C,MX39*%
X233521250Y-111442500D03*
D11*
X238601250Y-111442500D03*
D14*
X243681250Y-111442500D03*
%TD*%
D12*
%TO.C,D39*%
X246697500Y-99065000D03*
D13*
X246697500Y-91445000D03*
%TD*%
D12*
%TO.C,D33*%
X122872500Y-99536250D03*
D13*
X122872500Y-91916250D03*
%TD*%
D14*
%TO.C,MX20*%
X176371250Y-73342500D03*
D11*
X181451250Y-73342500D03*
D14*
X186531250Y-73342500D03*
%TD*%
%TO.C,MX36*%
X69215000Y-111442500D03*
D11*
X74295000Y-111442500D03*
D14*
X79375000Y-111442500D03*
%TD*%
D12*
%TO.C,D20*%
X94297500Y-65717500D03*
D13*
X94297500Y-73337500D03*
%TD*%
D14*
%TO.C,MX24*%
X252571250Y-82867500D03*
D11*
X257651250Y-82867500D03*
D14*
X262731250Y-82867500D03*
%TD*%
%TO.C,MX18*%
X138271250Y-73342500D03*
D11*
X143351250Y-73342500D03*
D14*
X148431250Y-73342500D03*
%TD*%
D12*
%TO.C,D22*%
X132397500Y-80967500D03*
D13*
X132397500Y-73347500D03*
%TD*%
D12*
%TO.C,D45*%
X265747500Y-104770000D03*
D13*
X265747500Y-112390000D03*
%TD*%
D14*
%TO.C,MX38*%
X214471250Y-111442500D03*
D11*
X219551250Y-111442500D03*
D14*
X224631250Y-111442500D03*
%TD*%
%TO.C,MX8*%
X171608750Y-54292500D03*
D11*
X176688750Y-54292500D03*
D14*
X181768750Y-54292500D03*
%TD*%
D12*
%TO.C,D11*%
X146685000Y-46667500D03*
D13*
X146685000Y-54287500D03*
%TD*%
D14*
%TO.C,MX3*%
X76358750Y-54292500D03*
D11*
X81438750Y-54292500D03*
D14*
X86518750Y-54292500D03*
%TD*%
%TO.C,MX10*%
X209708750Y-54292500D03*
D11*
X214788750Y-54292500D03*
D14*
X219868750Y-54292500D03*
%TD*%
%TO.C,MX4*%
X95408750Y-54292500D03*
D11*
X100488750Y-54292500D03*
D14*
X105568750Y-54292500D03*
%TD*%
D12*
%TO.C,D2*%
X241935000Y-36623706D03*
D13*
X241935000Y-44243706D03*
%TD*%
D12*
%TO.C,D24*%
X170973750Y-80967500D03*
D13*
X170973750Y-73347500D03*
%TD*%
D12*
%TO.C,D15*%
X222885000Y-46667500D03*
D13*
X222885000Y-54287500D03*
%TD*%
D12*
%TO.C,D18*%
X53816250Y-65717500D03*
D13*
X53816250Y-73337500D03*
%TD*%
D14*
%TO.C,MX7*%
X152558750Y-54292500D03*
D11*
X157638750Y-54292500D03*
D14*
X162718750Y-54292500D03*
%TD*%
D12*
%TO.C,D21*%
X113347500Y-80967500D03*
D13*
X113347500Y-73347500D03*
%TD*%
D12*
%TO.C,D19*%
X75247500Y-80967500D03*
D13*
X75247500Y-73347500D03*
%TD*%
D14*
%TO.C,MX32*%
X185896250Y-92392500D03*
D11*
X190976250Y-92392500D03*
D14*
X196056250Y-92392500D03*
%TD*%
%TO.C,MX9*%
X190658750Y-54292500D03*
D11*
X195738750Y-54292500D03*
D14*
X200818750Y-54292500D03*
%TD*%
D12*
%TO.C,D27*%
X227647500Y-80962500D03*
D13*
X227647500Y-73342500D03*
%TD*%
D14*
%TO.C,MX2*%
X57308750Y-54292500D03*
D11*
X62388750Y-54292500D03*
D14*
X67468750Y-54292500D03*
%TD*%
M02*
