M48
; DRILL file {KiCad 7.0.1} date dom 30 abr 2023 14:24:59
; FORMAT={-:-/ absolute / inch / decimal}
; #@! TF.CreationDate,2023-04-30T14:24:59+01:00
; #@! TF.GenerationSoftware,Kicad,Pcbnew,7.0.1
; #@! TF.FileFunction,Plated,1,2,PTH
FMAT,2
INCH
; #@! TA.AperFunction,Plated,PTH,ComponentDrill
T1C0.0295
; #@! TA.AperFunction,Plated,PTH,ComponentDrill
T2C0.0315
; #@! TA.AperFunction,Plated,PTH,ComponentDrill
T3C0.0394
; #@! TA.AperFunction,Plated,PTH,ComponentDrill
T4C0.0600
%
G90
G05
T1
X2.025Y-1.8373
X2.025Y-2.1373
X2.1187Y-2.5873
X2.1187Y-2.8873
X2.1187Y-4.1248
X2.1187Y-4.4248
X2.3062Y-3.3373
X2.3062Y-3.6373
X2.775Y-2.1377
X2.775Y-2.4377
X2.9625Y-2.8877
X2.9625Y-3.1877
X3.2437Y-4.1061
X3.2437Y-4.4061
X3.3375Y-3.3373
X3.3375Y-3.6373
X3.525Y-1.8373
X3.525Y-2.1373
X3.7125Y-2.5873
X3.7125Y-2.8873
X4.0875Y-3.6189
X4.0875Y-3.9189
X4.275Y-1.8373
X4.275Y-2.1373
X4.4625Y-2.8877
X4.4625Y-3.1877
X4.8375Y-3.6187
X4.8375Y-3.9187
X5.025Y-1.8375
X5.025Y-2.1375
X5.2125Y-2.8877
X5.2125Y-3.1877
X5.5875Y-3.3375
X5.5875Y-3.6375
X5.775Y-1.8373
X5.775Y-2.1373
X5.9625Y-2.5875
X5.9625Y-2.8875
X6.2437Y-4.0873
X6.2437Y-4.3873
X6.3375Y-3.375
X6.3375Y-3.675
X6.525Y-2.1375
X6.525Y-2.4375
X6.7313Y-2.8877
X6.7313Y-3.1877
X7.0875Y-3.3748
X7.0875Y-3.6748
X7.275Y-1.8375
X7.275Y-2.1375
X7.4625Y-2.5875
X7.4625Y-2.8875
X7.8375Y-3.3561
X7.8375Y-3.6561
X8.025Y-1.8373
X8.025Y-2.1373
X8.2125Y-2.5875
X8.2125Y-2.8875
X8.775Y-1.8373
X8.775Y-2.1373
X8.775Y-3.3373
X8.775Y-3.6373
X8.9625Y-2.8875
X8.9625Y-3.1875
X8.9625Y-4.125
X8.9625Y-4.425
X9.4313Y-1.4419
X9.4313Y-1.7419
X9.525Y-1.4419
X9.525Y-1.7419
X9.525Y-2.1377
X9.525Y-2.4377
X9.6188Y-1.4419
X9.6188Y-1.7419
X9.7125Y-1.4419
X9.7125Y-1.7419
X9.7125Y-2.8877
X9.7125Y-3.1877
X9.7125Y-3.6002
X9.7125Y-3.9002
X9.7125Y-4.1248
X9.7125Y-4.4248
X9.8063Y-1.4419
X9.8063Y-1.7419
X10.3688Y-1.8373
X10.3688Y-2.1373
X10.4625Y-2.9623
X10.4625Y-3.2623
X10.4625Y-4.1248
X10.4625Y-4.4248
T2
X8.4812Y-1.5938
X8.5812Y-1.5938
X8.6813Y-1.5938
X8.7812Y-1.5938
X8.8812Y-1.5938
X8.9812Y-1.5938
X9.0812Y-1.5938
X9.1813Y-1.5938
X9.2812Y-1.5938
T3
X8.4812Y-1.4421
X8.5812Y-1.4421
X8.6813Y-1.4421
X8.7812Y-1.4421
X8.8812Y-1.4421
X8.9812Y-1.4421
X9.0812Y-1.4421
X9.1813Y-1.4421
X9.2812Y-1.4421
X9.9375Y-1.4421
X10.0375Y-1.4421
X10.1375Y-1.4421
X10.2375Y-1.4421
X10.3375Y-1.4421
T4
X1.5562Y-2.0375
X1.65Y-2.7875
X1.65Y-4.2875
X1.8062Y-1.9375
X1.8375Y-3.5375
X1.9Y-2.6875
X1.9Y-4.1875
X2.0875Y-3.4375
X2.3062Y-2.0375
X2.4937Y-2.7875
X2.5562Y-1.9375
X2.7437Y-2.6875
X2.775Y-4.2875
X2.8687Y-3.5375
X3.025Y-4.1875
X3.0562Y-2.0375
X3.1187Y-3.4375
X3.2437Y-2.7875
X3.3062Y-1.9375
X3.4937Y-2.6875
X3.6187Y-3.5375
X3.8062Y-2.0375
X3.8687Y-3.4375
X3.9937Y-2.7875
X4.0562Y-1.9375
X4.2437Y-2.6875
X4.3687Y-3.5375
X4.5562Y-2.0375
X4.6187Y-3.4375
X4.7437Y-2.7875
X4.8062Y-1.9375
X4.9937Y-2.6875
X5.1187Y-3.5375
X5.3062Y-2.0375
X5.3687Y-3.4375
X5.4937Y-2.7875
X5.5562Y-1.9375
X5.7437Y-2.6875
X5.775Y-4.2875
X5.8687Y-3.5375
X6.025Y-4.1875
X6.0562Y-2.0375
X6.1187Y-3.4375
X6.2437Y-2.7875
X6.3062Y-1.9375
X6.4937Y-2.6875
X6.6187Y-3.5375
X6.8062Y-2.0375
X6.8687Y-3.4375
X6.9937Y-2.7875
X7.0562Y-1.9375
X7.2437Y-2.6875
X7.3687Y-3.5375
X7.5562Y-2.0375
X7.6187Y-3.4375
X7.7437Y-2.7875
X7.8062Y-1.9375
X7.9937Y-2.6875
X8.3063Y-2.0375
X8.3063Y-3.5375
X8.4938Y-2.7875
X8.4938Y-4.2875
X8.5563Y-1.9375
X8.5563Y-3.4375
X8.7438Y-2.6875
X8.7438Y-4.1875
X9.0563Y-2.0375
X9.2438Y-2.7875
X9.2438Y-3.5375
X9.2438Y-4.2875
X9.3063Y-1.9375
X9.4938Y-2.6875
X9.4938Y-3.4375
X9.4938Y-4.1875
X9.9Y-2.0375
X9.9938Y-3.1625
X9.9938Y-4.2875
X10.15Y-1.9375
X10.2438Y-3.0625
X10.2438Y-4.1875
T0
M30
