M48
; DRILL file {KiCad 7.0.1} date dom 30 abr 2023 14:24:59
; FORMAT={-:-/ absolute / inch / decimal}
; #@! TF.CreationDate,2023-04-30T14:24:59+01:00
; #@! TF.GenerationSoftware,Kicad,Pcbnew,7.0.1
; #@! TF.FileFunction,NonPlated,1,2,NPTH
FMAT,2
INCH
; #@! TA.AperFunction,NonPlated,NPTH,ComponentDrill
T1C0.0689
; #@! TA.AperFunction,NonPlated,NPTH,ComponentDrill
T2C0.1200
; #@! TA.AperFunction,NonPlated,NPTH,ComponentDrill
T3C0.1570
%
G90
G05
T1
X1.5062Y-2.1375
X1.6Y-2.8875
X1.6Y-4.3875
X1.7875Y-3.6375
X1.9062Y-2.1375
X2.0Y-2.8875
X2.0Y-4.3875
X2.1875Y-3.6375
X2.2563Y-2.1375
X2.4438Y-2.8875
X2.6562Y-2.1375
X2.725Y-4.3875
X2.8188Y-3.6375
X2.8438Y-2.8875
X3.0063Y-2.1375
X3.125Y-4.3875
X3.1938Y-2.8875
X3.2188Y-3.6375
X3.4062Y-2.1375
X3.5688Y-3.6375
X3.5938Y-2.8875
X3.7563Y-2.1375
X3.9438Y-2.8875
X3.9688Y-3.6375
X4.1562Y-2.1375
X4.3187Y-3.6375
X4.3438Y-2.8875
X4.5062Y-2.1375
X4.6937Y-2.8875
X4.7188Y-3.6375
X4.9062Y-2.1375
X5.0687Y-3.6375
X5.0938Y-2.8875
X5.2562Y-2.1375
X5.4437Y-2.8875
X5.4688Y-3.6375
X5.6562Y-2.1375
X5.725Y-4.3875
X5.8187Y-3.6375
X5.8438Y-2.8875
X6.0062Y-2.1375
X6.125Y-4.3875
X6.1937Y-2.8875
X6.2188Y-3.6375
X6.4062Y-2.1375
X6.5687Y-3.6375
X6.5938Y-2.8875
X6.7562Y-2.1375
X6.9437Y-2.8875
X6.9688Y-3.6375
X7.1562Y-2.1375
X7.3187Y-3.6375
X7.3438Y-2.8875
X7.5062Y-2.1375
X7.6937Y-2.8875
X7.7188Y-3.6375
X7.9062Y-2.1375
X8.0938Y-2.8875
X8.2562Y-2.1375
X8.2562Y-3.6375
X8.4437Y-2.8875
X8.4437Y-4.3875
X8.6562Y-2.1375
X8.6562Y-3.6375
X8.8438Y-2.8875
X8.8438Y-4.3875
X9.0062Y-2.1375
X9.1937Y-2.8875
X9.1937Y-3.6375
X9.1937Y-4.3875
X9.4062Y-2.1375
X9.5938Y-2.8875
X9.5938Y-3.6375
X9.5938Y-4.3875
X9.85Y-2.1375
X9.9437Y-3.2625
X9.9437Y-4.3875
X10.25Y-2.1375
X10.3438Y-3.2625
X10.3438Y-4.3875
T2
X3.9576Y-4.6625
X7.8951Y-4.6625
X10.4187Y-2.7937
X10.4187Y-3.7312
T3
X1.7063Y-2.1375
X1.8Y-2.8875
X1.8Y-4.3875
X1.9875Y-3.6375
X2.4562Y-2.1375
X2.6437Y-2.8875
X2.925Y-4.3875
X3.0187Y-3.6375
X3.2062Y-2.1375
X3.3937Y-2.8875
X3.7687Y-3.6375
X3.9562Y-2.1375
X3.9576Y-4.0625
X4.1437Y-2.8875
X4.5187Y-3.6375
X4.7062Y-2.1375
X4.8937Y-2.8875
X5.2687Y-3.6375
X5.4562Y-2.1375
X5.6437Y-2.8875
X5.925Y-4.3875
X6.0187Y-3.6375
X6.2062Y-2.1375
X6.3937Y-2.8875
X6.7687Y-3.6375
X6.9562Y-2.1375
X7.1437Y-2.8875
X7.5187Y-3.6375
X7.7062Y-2.1375
X7.8937Y-2.8875
X7.8951Y-4.0625
X8.4562Y-2.1375
X8.4562Y-3.6375
X8.6437Y-2.8875
X8.6437Y-4.3875
X9.2062Y-2.1375
X9.3937Y-2.8875
X9.3937Y-3.6375
X9.3937Y-4.3875
X9.8187Y-2.7937
X9.8187Y-3.7312
X10.05Y-2.1375
X10.1437Y-3.2625
X10.1437Y-4.3875
T0
M30
