M48
; DRILL file {KiCad 7.0.3} date qui 29 jun 2023 20:26:00
; FORMAT={-:-/ absolute / inch / decimal}
; #@! TF.CreationDate,2023-06-29T20:26:00+01:00
; #@! TF.GenerationSoftware,Kicad,Pcbnew,7.0.3
; #@! TF.FileFunction,Plated,1,2,PTH
FMAT,2
INCH
; #@! TA.AperFunction,Plated,PTH,ViaDrill
T1C0.0157
; #@! TA.AperFunction,Plated,PTH,ComponentDrill
T2C0.0236
; #@! TA.AperFunction,Plated,PTH,ComponentDrill
T3C0.0276
; #@! TA.AperFunction,Plated,PTH,ComponentDrill
T4C0.0315
; #@! TA.AperFunction,Plated,PTH,ComponentDrill
T5C0.0354
; #@! TA.AperFunction,Plated,PTH,ComponentDrill
T6C0.0362
; #@! TA.AperFunction,Plated,PTH,ComponentDrill
T7C0.0394
; #@! TA.AperFunction,Plated,PTH,ComponentDrill
T8C0.0433
; #@! TA.AperFunction,Plated,PTH,ComponentDrill
T9C0.0917
%
G90
G05
T1
X2.5774Y-3.2411
X2.6108Y-3.1157
X2.629Y-3.5197
X2.6457Y-3.3425
X2.6585Y-3.1732
X2.8264Y-3.6831
X2.8756Y-2.3386
X3.0154Y-3.3455
X3.0189Y-2.6122
X3.0996Y-3.1651
X3.1827Y-3.3396
X3.1856Y-3.1417
X3.2244Y-3.3858
X3.3136Y-2.5669
X3.3229Y-3.3534
X3.3799Y-3.3927
X3.3839Y-2.561
X3.4553Y-3.1137
X3.4556Y-2.5479
X3.5197Y-3.2283
X3.54Y-2.372
X3.5853Y-3.0025
X3.599Y-2.7667
X3.6319Y-2.7953
X3.6561Y-2.3937
X3.6811Y-1.7992
X3.6856Y-2.7953
X3.7165Y-1.626
X3.8673Y-2.0453
X3.9925Y-2.6969
X4.0315Y-2.0823
X4.0413Y-1.8031
X4.0783Y-2.0453
X4.0833Y-2.7165
X4.1344Y-2.0463
X4.1735Y-2.0248
X4.1906Y-1.9894
X4.2283Y-1.7598
X4.2329Y-1.9823
X4.2654Y-1.9539
X4.2988Y-1.9173
X4.4219Y-2.6841
X4.4921Y-2.189
X4.5512Y-2.7795
X4.6769Y-3.0885
X4.749Y-3.1437
X4.7677Y-2.7795
X4.8189Y-3.3661
X4.8283Y-2.0472
X4.8707Y-3.2008
X4.8858Y-2.189
X4.9528Y-3.2402
X5.099Y-3.123
X5.2447Y-3.2726
X5.2506Y-2.6781
X5.2526Y-3.1437
X5.4069Y-2.252
X5.4939Y-3.1605
X5.9069Y-2.6614
X5.9955Y-2.6427
X6.0961Y-2.6142
T2
X3.3976Y-1.622
X3.4567Y-1.622
T3
X3.3252Y-1.4606
X3.5252Y-1.4606
X4.9715Y-3.3848
X5.1715Y-3.3848
X5.4699Y-3.3848
X5.6699Y-3.3848
X5.9242Y-3.3848
X6.1242Y-3.3848
T4
X2.5173Y-2.5295
X2.5173Y-2.6295
X2.5173Y-2.7295
X2.5173Y-2.8295
X2.5173Y-2.9295
X2.5173Y-3.0295
X2.5354Y-1.8898
X2.5354Y-1.9882
X2.6591Y-1.889
X2.6591Y-2.189
X2.7189Y-2.4709
X2.7189Y-3.0709
X2.7591Y-1.889
X2.7591Y-2.189
X2.8189Y-2.4709
X2.8189Y-3.0709
X2.8591Y-1.889
X2.8591Y-2.189
X2.9189Y-2.4709
X2.9189Y-3.0709
X2.9591Y-1.889
X2.9591Y-2.189
X3.0189Y-2.4709
X3.0189Y-3.0709
X3.0591Y-1.889
X3.0591Y-2.189
X3.1189Y-2.4709
X3.1189Y-3.0709
X3.1591Y-1.889
X3.1591Y-2.189
X3.2189Y-2.4709
X3.2189Y-3.0709
X3.2591Y-1.889
X3.2591Y-2.189
X3.3189Y-2.4709
X3.3189Y-3.0709
X3.3591Y-1.889
X3.3591Y-2.189
X3.4173Y-3.1772
X3.4173Y-3.2756
X3.4189Y-2.4709
X3.4189Y-3.0709
X3.5177Y-1.7598
X3.5189Y-2.4709
X3.5189Y-3.0709
X3.5197Y-1.8811
X3.5197Y-2.1811
X3.6161Y-1.7598
X3.6189Y-2.4709
X3.6189Y-3.0709
X3.6197Y-1.8811
X3.6197Y-2.1811
X3.7189Y-2.4709
X3.7189Y-3.0709
X3.7197Y-1.8811
X3.7197Y-2.1811
X3.8189Y-2.4709
X3.8189Y-3.0709
X3.8197Y-1.8811
X3.8197Y-2.1811
X3.9189Y-2.4709
X3.9189Y-3.0709
X3.9197Y-1.8811
X3.9197Y-2.1811
X4.0189Y-2.4709
X4.0189Y-3.0709
X4.0197Y-1.8811
X4.0197Y-2.1811
X4.1189Y-2.4709
X4.1189Y-3.0709
X4.1197Y-1.8811
X4.1197Y-2.1811
X4.2189Y-2.4709
X4.2189Y-3.0709
X4.3189Y-2.4709
X4.3189Y-3.0709
X4.3398Y-1.8657
X4.3398Y-2.1657
X4.4189Y-2.4709
X4.4189Y-3.0709
X4.5189Y-2.4709
X4.5189Y-3.0709
X4.6189Y-2.4709
X4.6189Y-3.0709
X4.624Y-2.3346
X4.6398Y-1.8657
X4.6398Y-2.1657
X4.7224Y-2.3346
X4.8307Y-1.6102
X4.8512Y-1.7307
X4.8512Y-2.3307
X4.8512Y-2.4787
X4.8512Y-3.0787
X4.9291Y-1.6102
X4.9512Y-1.7307
X4.9512Y-2.3307
X4.9512Y-2.4787
X4.9512Y-3.0787
X5.0222Y-3.2825
X5.0512Y-1.7307
X5.0512Y-2.3307
X5.0512Y-2.4787
X5.0512Y-3.0787
X5.1207Y-3.2825
X5.1512Y-1.7307
X5.1512Y-2.3307
X5.1512Y-2.4787
X5.1512Y-3.0787
X5.2512Y-1.7307
X5.2512Y-2.3307
X5.2512Y-2.4787
X5.2512Y-3.0787
X5.3512Y-1.7307
X5.3512Y-2.3307
X5.3512Y-2.4787
X5.3512Y-3.0787
X5.4512Y-1.7307
X5.4512Y-2.3307
X5.4512Y-2.4787
X5.4512Y-3.0787
X5.5183Y-3.2825
X5.5512Y-1.7307
X5.5512Y-2.3307
X5.5512Y-2.4787
X5.5512Y-3.0787
X5.6167Y-3.2825
X5.6512Y-1.7307
X5.6512Y-2.3307
X5.6512Y-2.4787
X5.6512Y-3.0787
X5.7512Y-1.7307
X5.7512Y-2.3307
X5.7512Y-2.4787
X5.7512Y-3.0787
X5.8512Y-1.7307
X5.8512Y-2.3307
X5.8512Y-2.4787
X5.8512Y-3.0787
X5.9512Y-1.7307
X5.9512Y-2.3307
X5.9512Y-2.4787
X5.9512Y-3.0787
X5.975Y-3.2825
X6.0512Y-1.7307
X6.0512Y-2.3307
X6.0512Y-2.4787
X6.0512Y-3.0787
X6.0734Y-3.2825
X6.1512Y-1.7307
X6.1512Y-2.3307
X6.1512Y-2.4787
X6.1512Y-3.0787
T5
X3.4289Y-1.1951
X3.4289Y-1.2951
T6
X2.8736Y-1.629
X2.8736Y-1.7078
X2.972Y-1.629
X2.972Y-1.7078
T7
X2.4724Y-3.3583
X2.4724Y-3.4583
X2.4724Y-3.5583
X2.7189Y-3.4567
X2.7189Y-3.5567
X2.8189Y-3.4567
X2.8189Y-3.5567
X2.9189Y-3.4567
X2.9189Y-3.5567
X3.0189Y-3.4567
X3.0189Y-3.5567
X3.1189Y-3.4567
X3.1189Y-3.5567
X3.2189Y-3.4567
X3.2189Y-3.5567
X3.3189Y-3.4567
X3.3189Y-3.5567
X3.4189Y-3.4567
X3.4189Y-3.5567
X3.5189Y-3.4567
X3.5189Y-3.5567
X3.6189Y-3.4567
X3.6189Y-3.5567
X3.6992Y-1.1949
X3.7189Y-3.4567
X3.7189Y-3.5567
X3.7992Y-1.1949
X3.8189Y-3.4567
X3.8189Y-3.5567
X3.8992Y-1.1949
X3.9189Y-3.4567
X3.9189Y-3.5567
X4.0189Y-3.4567
X4.0189Y-3.5567
X4.1189Y-3.4567
X4.1189Y-3.5567
X4.2189Y-3.4567
X4.2189Y-3.5567
X4.3189Y-3.4567
X4.3189Y-3.5567
X4.4189Y-3.4567
X4.4189Y-3.5567
X4.5189Y-3.4567
X4.5189Y-3.5567
X4.6189Y-3.4567
X4.6189Y-3.5567
T8
X4.941Y-3.4959
X4.941Y-3.6731
X5.1969Y-3.4959
X5.1969Y-3.6731
X5.4394Y-3.4926
X5.4394Y-3.6697
X5.6953Y-3.4926
X5.6953Y-3.6697
X5.8859Y-3.4957
X5.8859Y-3.6729
X6.1418Y-3.4957
X6.1418Y-3.6729
T9
X2.6858Y-1.5223
X3.1598Y-1.5223
T0
M30
