%TF.GenerationSoftware,KiCad,Pcbnew,7.0.3*%
%TF.CreationDate,2023-06-30T08:14:05+01:00*%
%TF.ProjectId,MinFox,4d696e46-6f78-42e6-9b69-6361645f7063,rev?*%
%TF.SameCoordinates,Original*%
%TF.FileFunction,Soldermask,Top*%
%TF.FilePolarity,Negative*%
%FSLAX46Y46*%
G04 Gerber Fmt 4.6, Leading zero omitted, Abs format (unit mm)*
G04 Created by KiCad (PCBNEW 7.0.3) date 2023-06-30 08:14:05*
%MOMM*%
%LPD*%
G01*
G04 APERTURE LIST*
%ADD10R,1.600000X1.600000*%
%ADD11O,1.600000X1.600000*%
%ADD12R,1.700000X1.700000*%
%ADD13O,1.700000X1.700000*%
%ADD14C,1.600000*%
%ADD15C,1.400000*%
%ADD16O,1.400000X1.400000*%
%ADD17C,2.000000*%
%ADD18R,1.800000X1.800000*%
%ADD19C,1.800000*%
%ADD20R,1.200000X1.200000*%
%ADD21C,1.200000*%
%ADD22C,1.700000*%
%ADD23C,3.500000*%
G04 APERTURE END LIST*
D10*
%TO.C,U3*%
X123220000Y-59200000D03*
D11*
X125760000Y-59200000D03*
X128300000Y-59200000D03*
X130840000Y-59200000D03*
X133380000Y-59200000D03*
X135920000Y-59200000D03*
X138460000Y-59200000D03*
X141000000Y-59200000D03*
X143540000Y-59200000D03*
X146080000Y-59200000D03*
X148620000Y-59200000D03*
X151160000Y-59200000D03*
X153700000Y-59200000D03*
X156240000Y-59200000D03*
X156240000Y-43960000D03*
X153700000Y-43960000D03*
X151160000Y-43960000D03*
X148620000Y-43960000D03*
X146080000Y-43960000D03*
X143540000Y-43960000D03*
X141000000Y-43960000D03*
X138460000Y-43960000D03*
X135920000Y-43960000D03*
X133380000Y-43960000D03*
X130840000Y-43960000D03*
X128300000Y-43960000D03*
X125760000Y-43960000D03*
X123220000Y-43960000D03*
%TD*%
D12*
%TO.C,SW1*%
X93960000Y-30350000D03*
D13*
X96500000Y-30350000D03*
X99040000Y-30350000D03*
%TD*%
D10*
%TO.C,U1*%
X69060000Y-78000000D03*
D11*
X71600000Y-78000000D03*
X74140000Y-78000000D03*
X76680000Y-78000000D03*
X79220000Y-78000000D03*
X81760000Y-78000000D03*
X84300000Y-78000000D03*
X86840000Y-78000000D03*
X89380000Y-78000000D03*
X91920000Y-78000000D03*
X94460000Y-78000000D03*
X97000000Y-78000000D03*
X99540000Y-78000000D03*
X102080000Y-78000000D03*
X104620000Y-78000000D03*
X107160000Y-78000000D03*
X109700000Y-78000000D03*
X112240000Y-78000000D03*
X114780000Y-78000000D03*
X117320000Y-78000000D03*
X117320000Y-62760000D03*
X114780000Y-62760000D03*
X112240000Y-62760000D03*
X109700000Y-62760000D03*
X107160000Y-62760000D03*
X104620000Y-62760000D03*
X102080000Y-62760000D03*
X99540000Y-62760000D03*
X97000000Y-62760000D03*
X94460000Y-62760000D03*
X91920000Y-62760000D03*
X89380000Y-62760000D03*
X86840000Y-62760000D03*
X84300000Y-62760000D03*
X81760000Y-62760000D03*
X79220000Y-62760000D03*
X76680000Y-62760000D03*
X74140000Y-62760000D03*
X71600000Y-62760000D03*
X69060000Y-62760000D03*
%TD*%
D10*
%TO.C,U2*%
X67540000Y-55600000D03*
D11*
X70080000Y-55600000D03*
X72620000Y-55600000D03*
X75160000Y-55600000D03*
X77700000Y-55600000D03*
X80240000Y-55600000D03*
X82780000Y-55600000D03*
X85320000Y-55600000D03*
X85320000Y-47980000D03*
X82780000Y-47980000D03*
X80240000Y-47980000D03*
X77700000Y-47980000D03*
X75160000Y-47980000D03*
X72620000Y-47980000D03*
X70080000Y-47980000D03*
X67540000Y-47980000D03*
%TD*%
D14*
%TO.C,C6*%
X89350000Y-44700000D03*
X91850000Y-44700000D03*
%TD*%
%TO.C,C4*%
X154265000Y-83375000D03*
X151765000Y-83375000D03*
%TD*%
D15*
%TO.C,R10*%
X150475000Y-85975000D03*
D16*
X155555000Y-85975000D03*
%TD*%
D15*
%TO.C,R5*%
X126275000Y-85975000D03*
D16*
X131355000Y-85975000D03*
%TD*%
D14*
%TO.C,C3*%
X130065000Y-83375000D03*
X127565000Y-83375000D03*
%TD*%
D10*
%TO.C,X1*%
X110230000Y-55010000D03*
D14*
X117850000Y-55010000D03*
X117850000Y-47390000D03*
X110230000Y-47390000D03*
%TD*%
D12*
%TO.C,J3*%
X69060000Y-87800000D03*
D13*
X69060000Y-90340000D03*
X71600000Y-87800000D03*
X71600000Y-90340000D03*
X74140000Y-87800000D03*
X74140000Y-90340000D03*
X76680000Y-87800000D03*
X76680000Y-90340000D03*
X79220000Y-87800000D03*
X79220000Y-90340000D03*
X81760000Y-87800000D03*
X81760000Y-90340000D03*
X84300000Y-87800000D03*
X84300000Y-90340000D03*
X86840000Y-87800000D03*
X86840000Y-90340000D03*
X89380000Y-87800000D03*
X89380000Y-90340000D03*
X91920000Y-87800000D03*
X91920000Y-90340000D03*
X94460000Y-87800000D03*
X94460000Y-90340000D03*
X97000000Y-87800000D03*
X97000000Y-90340000D03*
X99540000Y-87800000D03*
X99540000Y-90340000D03*
X102080000Y-87800000D03*
X102080000Y-90340000D03*
X104620000Y-87800000D03*
X104620000Y-90340000D03*
X107160000Y-87800000D03*
X107160000Y-90340000D03*
X109700000Y-87800000D03*
X109700000Y-90340000D03*
X112240000Y-87800000D03*
X112240000Y-90340000D03*
X114780000Y-87800000D03*
X114780000Y-90340000D03*
X117320000Y-87800000D03*
X117320000Y-90340000D03*
%TD*%
D14*
%TO.C,C9*%
X119950000Y-59300000D03*
X117450000Y-59300000D03*
%TD*%
D15*
%TO.C,R1*%
X84460000Y-37100000D03*
D16*
X89540000Y-37100000D03*
%TD*%
D14*
%TO.C,C2*%
X142665000Y-83375000D03*
X140165000Y-83375000D03*
%TD*%
%TO.C,C7*%
X64400000Y-48000000D03*
X64400000Y-50500000D03*
%TD*%
D17*
%TO.C,SW2*%
X132001489Y-93296397D03*
X125501489Y-93296397D03*
X132001489Y-88796397D03*
X125501489Y-88796397D03*
%TD*%
D18*
%TO.C,D1*%
X87095000Y-32895000D03*
D19*
X87095000Y-30355000D03*
%TD*%
D15*
%TO.C,R6*%
X138935000Y-85975000D03*
D16*
X144015000Y-85975000D03*
%TD*%
D20*
%TO.C,C1*%
X87800000Y-41200000D03*
D21*
X86300000Y-41200000D03*
%TD*%
D10*
%TO.C,U5*%
X89400000Y-55400000D03*
D11*
X91940000Y-55400000D03*
X94480000Y-55400000D03*
X97020000Y-55400000D03*
X99560000Y-55400000D03*
X102100000Y-55400000D03*
X104640000Y-55400000D03*
X104640000Y-47780000D03*
X102100000Y-47780000D03*
X99560000Y-47780000D03*
X97020000Y-47780000D03*
X94480000Y-47780000D03*
X91940000Y-47780000D03*
X89400000Y-47780000D03*
%TD*%
D12*
%TO.C,J2*%
X62800000Y-85300000D03*
D13*
X62800000Y-87840000D03*
X62800000Y-90380000D03*
%TD*%
D12*
%TO.C,J1*%
X72990000Y-43377500D03*
D22*
X75490000Y-43377500D03*
X75490000Y-41377500D03*
X72990000Y-41377500D03*
D23*
X68220000Y-38667500D03*
X80260000Y-38667500D03*
%TD*%
D10*
%TO.C,U4*%
X123220000Y-78200000D03*
D11*
X125760000Y-78200000D03*
X128300000Y-78200000D03*
X130840000Y-78200000D03*
X133380000Y-78200000D03*
X135920000Y-78200000D03*
X138460000Y-78200000D03*
X141000000Y-78200000D03*
X143540000Y-78200000D03*
X146080000Y-78200000D03*
X148620000Y-78200000D03*
X151160000Y-78200000D03*
X153700000Y-78200000D03*
X156240000Y-78200000D03*
X156240000Y-62960000D03*
X153700000Y-62960000D03*
X151160000Y-62960000D03*
X148620000Y-62960000D03*
X146080000Y-62960000D03*
X143540000Y-62960000D03*
X141000000Y-62960000D03*
X138460000Y-62960000D03*
X135920000Y-62960000D03*
X133380000Y-62960000D03*
X130840000Y-62960000D03*
X128300000Y-62960000D03*
X125760000Y-62960000D03*
X123220000Y-62960000D03*
%TD*%
D17*
%TO.C,SW3*%
X144659956Y-93211057D03*
X138159956Y-93211057D03*
X144659956Y-88711057D03*
X138159956Y-88711057D03*
%TD*%
%TO.C,SW4*%
X156001117Y-93291586D03*
X149501117Y-93291586D03*
X156001117Y-88791586D03*
X149501117Y-88791586D03*
%TD*%
D10*
%TO.C,RN1*%
X63940000Y-64250000D03*
D11*
X63940000Y-66790000D03*
X63940000Y-69330000D03*
X63940000Y-71870000D03*
X63940000Y-74410000D03*
X63940000Y-76950000D03*
%TD*%
D14*
%TO.C,C8*%
X122700000Y-40900000D03*
X125200000Y-40900000D03*
%TD*%
%TO.C,C5*%
X86800000Y-80700000D03*
X86800000Y-83200000D03*
%TD*%
M02*
