%TF.GenerationSoftware,KiCad,Pcbnew,7.0.3*%
%TF.CreationDate,2023-06-29T20:26:01+01:00*%
%TF.ProjectId,MinFox,4d696e46-6f78-42e6-9b69-6361645f7063,rev?*%
%TF.SameCoordinates,Original*%
%TF.FileFunction,Drillmap*%
%TF.FilePolarity,Positive*%
%FSLAX45Y45*%
G04 Gerber Fmt 4.5, Leading zero omitted, Abs format (unit mm)*
G04 Created by KiCad (PCBNEW 7.0.3) date 2023-06-29 20:26:01*
%MOMM*%
%LPD*%
G01*
G04 APERTURE LIST*
%ADD10C,0.100000*%
%ADD11C,0.200000*%
%ADD12C,0.040000*%
%ADD13C,0.060000*%
%ADD14C,0.070000*%
%ADD15C,0.080000*%
%ADD16C,0.090000*%
%ADD17C,0.092000*%
%ADD18C,0.110000*%
%ADD19C,0.233000*%
G04 APERTURE END LIST*
D10*
X6230000Y-2800000D02*
X15790000Y-2800000D01*
X6010000Y-9462500D02*
X6010000Y-3020000D01*
X15790000Y-9682500D02*
X6230000Y-9682500D01*
X16010000Y-3020000D02*
X16010000Y-9462500D01*
X6010000Y-9462500D02*
G75*
G03*
X6230000Y-9682500I220000J0D01*
G01*
X6230000Y-2800000D02*
G75*
G03*
X6010000Y-3020000I0J-220000D01*
G01*
X16010000Y-3020000D02*
G75*
G03*
X15790000Y-2800000I-220000J0D01*
G01*
X15790000Y-9682500D02*
G75*
G03*
X16010000Y-9462500I0J220000D01*
G01*
D11*
D12*
X6526500Y-8212500D02*
X6566500Y-8252500D01*
X6566500Y-8212500D02*
X6526500Y-8252500D01*
X6611550Y-7893760D02*
X6651550Y-7933760D01*
X6651550Y-7893760D02*
X6611550Y-7933760D01*
X6657550Y-8920000D02*
X6697550Y-8960000D01*
X6697550Y-8920000D02*
X6657550Y-8960000D01*
X6700000Y-8470000D02*
X6740000Y-8510000D01*
X6740000Y-8470000D02*
X6700000Y-8510000D01*
X6732550Y-8040000D02*
X6772550Y-8080000D01*
X6772550Y-8040000D02*
X6732550Y-8080000D01*
X7159000Y-9335000D02*
X7199000Y-9375000D01*
X7199000Y-9335000D02*
X7159000Y-9375000D01*
X7284000Y-5920000D02*
X7324000Y-5960000D01*
X7324000Y-5920000D02*
X7284000Y-5960000D01*
X7639000Y-8477550D02*
X7679000Y-8517550D01*
X7679000Y-8477550D02*
X7639000Y-8517550D01*
X7648000Y-6615000D02*
X7688000Y-6655000D01*
X7688000Y-6615000D02*
X7648000Y-6655000D01*
X7852878Y-8019317D02*
X7892878Y-8059317D01*
X7892878Y-8019317D02*
X7852878Y-8059317D01*
X8063950Y-8462500D02*
X8103950Y-8502500D01*
X8103950Y-8462500D02*
X8063950Y-8502500D01*
X8071500Y-7960000D02*
X8111500Y-8000000D01*
X8111500Y-7960000D02*
X8071500Y-8000000D01*
X8170000Y-8580000D02*
X8210000Y-8620000D01*
X8210000Y-8580000D02*
X8170000Y-8620000D01*
X8396500Y-6500000D02*
X8436500Y-6540000D01*
X8436500Y-6500000D02*
X8396500Y-6540000D01*
X8420050Y-8497644D02*
X8460050Y-8537644D01*
X8460050Y-8497644D02*
X8420050Y-8537644D01*
X8564950Y-8597473D02*
X8604950Y-8637473D01*
X8604950Y-8597473D02*
X8564950Y-8637473D01*
X8575000Y-6485000D02*
X8615000Y-6525000D01*
X8615000Y-6485000D02*
X8575000Y-6525000D01*
X8756358Y-7888818D02*
X8796358Y-7928818D01*
X8796358Y-7888818D02*
X8756358Y-7928818D01*
X8757270Y-6451730D02*
X8797270Y-6491730D01*
X8797270Y-6451730D02*
X8757270Y-6491730D01*
X8920000Y-8180000D02*
X8960000Y-8220000D01*
X8960000Y-8180000D02*
X8920000Y-8220000D01*
X8971500Y-6005000D02*
X9011500Y-6045000D01*
X9011500Y-6005000D02*
X8971500Y-6045000D01*
X9086648Y-7606285D02*
X9126648Y-7646285D01*
X9126648Y-7606285D02*
X9086648Y-7646285D01*
X9121500Y-7007500D02*
X9161500Y-7047500D01*
X9161500Y-7007500D02*
X9121500Y-7047500D01*
X9204950Y-7079950D02*
X9244950Y-7119950D01*
X9244950Y-7079950D02*
X9204950Y-7119950D01*
X9266500Y-6060000D02*
X9306500Y-6100000D01*
X9306500Y-6060000D02*
X9266500Y-6100000D01*
X9330000Y-4550000D02*
X9370000Y-4590000D01*
X9370000Y-4550000D02*
X9330000Y-4590000D01*
X9341500Y-7080000D02*
X9381500Y-7120000D01*
X9381500Y-7080000D02*
X9341500Y-7120000D01*
X9420000Y-4110000D02*
X9460000Y-4150000D01*
X9460000Y-4110000D02*
X9420000Y-4150000D01*
X9802882Y-5174950D02*
X9842882Y-5214950D01*
X9842882Y-5174950D02*
X9802882Y-5214950D01*
X10120948Y-6830050D02*
X10160948Y-6870050D01*
X10160948Y-6830050D02*
X10120948Y-6870050D01*
X10219993Y-5268936D02*
X10259993Y-5308936D01*
X10259993Y-5268936D02*
X10219993Y-5308936D01*
X10245000Y-4560000D02*
X10285000Y-4600000D01*
X10285000Y-4560000D02*
X10245000Y-4600000D01*
X10339000Y-5174950D02*
X10379000Y-5214950D01*
X10379000Y-5174950D02*
X10339000Y-5214950D01*
X10351500Y-6880000D02*
X10391500Y-6920000D01*
X10391500Y-6880000D02*
X10351500Y-6920000D01*
X10481500Y-5177500D02*
X10521500Y-5217500D01*
X10521500Y-5177500D02*
X10481500Y-5217500D01*
X10580733Y-5123050D02*
X10620733Y-5163050D01*
X10620733Y-5123050D02*
X10580733Y-5163050D01*
X10624000Y-5032950D02*
X10664000Y-5072950D01*
X10664000Y-5032950D02*
X10624000Y-5072950D01*
X10720000Y-4450000D02*
X10760000Y-4490000D01*
X10760000Y-4450000D02*
X10720000Y-4490000D01*
X10731500Y-5015000D02*
X10771500Y-5055000D01*
X10771500Y-5015000D02*
X10731500Y-5055000D01*
X10814000Y-4942950D02*
X10854000Y-4982950D01*
X10854000Y-4942950D02*
X10814000Y-4982950D01*
X10899000Y-4850000D02*
X10939000Y-4890000D01*
X10939000Y-4850000D02*
X10899000Y-4890000D01*
X11211500Y-6797500D02*
X11251500Y-6837500D01*
X11251500Y-6797500D02*
X11211500Y-6837500D01*
X11390000Y-5540000D02*
X11430000Y-5580000D01*
X11430000Y-5540000D02*
X11390000Y-5580000D01*
X11540000Y-7040000D02*
X11580000Y-7080000D01*
X11580000Y-7040000D02*
X11540000Y-7080000D01*
X11859230Y-7824770D02*
X11899230Y-7864770D01*
X11899230Y-7824770D02*
X11859230Y-7864770D01*
X12042500Y-7965117D02*
X12082500Y-8005117D01*
X12082500Y-7965117D02*
X12042500Y-8005117D01*
X12090000Y-7040000D02*
X12130000Y-7080000D01*
X12130000Y-7040000D02*
X12090000Y-7080000D01*
X12220000Y-8530000D02*
X12260000Y-8570000D01*
X12260000Y-8530000D02*
X12220000Y-8570000D01*
X12244000Y-5180000D02*
X12284000Y-5220000D01*
X12284000Y-5180000D02*
X12244000Y-5220000D01*
X12351530Y-8110017D02*
X12391530Y-8150017D01*
X12391530Y-8110017D02*
X12351530Y-8150017D01*
X12390000Y-5540000D02*
X12430000Y-5580000D01*
X12430000Y-5540000D02*
X12390000Y-5580000D01*
X12560000Y-8210000D02*
X12600000Y-8250000D01*
X12600000Y-8210000D02*
X12560000Y-8250000D01*
X12931500Y-7912500D02*
X12971500Y-7952500D01*
X12971500Y-7912500D02*
X12931500Y-7952500D01*
X13301500Y-8292500D02*
X13341500Y-8332500D01*
X13341500Y-8292500D02*
X13301500Y-8332500D01*
X13316500Y-6782500D02*
X13356500Y-6822500D01*
X13356500Y-6782500D02*
X13316500Y-6822500D01*
X13321500Y-7965117D02*
X13361500Y-8005117D01*
X13361500Y-7965117D02*
X13321500Y-8005117D01*
X13713500Y-5700000D02*
X13753500Y-5740000D01*
X13753500Y-5700000D02*
X13713500Y-5740000D01*
X13934448Y-8007659D02*
X13974448Y-8047659D01*
X13974448Y-8007659D02*
X13934448Y-8047659D01*
X14983500Y-6740000D02*
X15023500Y-6780000D01*
X15023500Y-6740000D02*
X14983500Y-6780000D01*
X15208500Y-6692450D02*
X15248500Y-6732450D01*
X15248500Y-6692450D02*
X15208500Y-6732450D01*
X15464000Y-6620000D02*
X15504000Y-6660000D01*
X15504000Y-6620000D02*
X15464000Y-6660000D01*
D13*
X8660000Y-4120000D02*
G75*
G03*
X8660000Y-4120000I-30000J0D01*
G01*
X8810000Y-4120000D02*
G75*
G03*
X8810000Y-4120000I-30000J0D01*
G01*
D14*
X8446000Y-3675000D02*
X8446000Y-3745000D01*
X8411000Y-3710000D02*
X8481000Y-3710000D01*
X8954000Y-3675000D02*
X8954000Y-3745000D01*
X8919000Y-3710000D02*
X8989000Y-3710000D01*
X12627500Y-8562500D02*
X12627500Y-8632500D01*
X12592500Y-8597500D02*
X12662500Y-8597500D01*
X13135500Y-8562500D02*
X13135500Y-8632500D01*
X13100500Y-8597500D02*
X13170500Y-8597500D01*
X13893500Y-8562500D02*
X13893500Y-8632500D01*
X13858500Y-8597500D02*
X13928500Y-8597500D01*
X14401500Y-8562500D02*
X14401500Y-8632500D01*
X14366500Y-8597500D02*
X14436500Y-8597500D01*
X15047500Y-8562500D02*
X15047500Y-8632500D01*
X15012500Y-8597500D02*
X15082500Y-8597500D01*
X15555500Y-8562500D02*
X15555500Y-8632500D01*
X15520500Y-8597500D02*
X15590500Y-8597500D01*
D15*
X6422284Y-6453284D02*
X6422284Y-6396715D01*
X6365715Y-6396715D01*
X6365715Y-6453284D01*
X6422284Y-6453284D01*
X6422284Y-6707284D02*
X6422284Y-6650715D01*
X6365715Y-6650715D01*
X6365715Y-6707284D01*
X6422284Y-6707284D01*
X6422284Y-6961284D02*
X6422284Y-6904715D01*
X6365715Y-6904715D01*
X6365715Y-6961284D01*
X6422284Y-6961284D01*
X6422284Y-7215284D02*
X6422284Y-7158715D01*
X6365715Y-7158715D01*
X6365715Y-7215284D01*
X6422284Y-7215284D01*
X6422284Y-7469284D02*
X6422284Y-7412715D01*
X6365715Y-7412715D01*
X6365715Y-7469284D01*
X6422284Y-7469284D01*
X6422284Y-7723284D02*
X6422284Y-7666715D01*
X6365715Y-7666715D01*
X6365715Y-7723284D01*
X6422284Y-7723284D01*
X6468284Y-4828285D02*
X6468284Y-4771716D01*
X6411715Y-4771716D01*
X6411715Y-4828285D01*
X6468284Y-4828285D01*
X6468284Y-5078285D02*
X6468284Y-5021716D01*
X6411715Y-5021716D01*
X6411715Y-5078285D01*
X6468284Y-5078285D01*
X6782284Y-4826285D02*
X6782284Y-4769716D01*
X6725715Y-4769716D01*
X6725715Y-4826285D01*
X6782284Y-4826285D01*
X6782284Y-5588285D02*
X6782284Y-5531716D01*
X6725715Y-5531716D01*
X6725715Y-5588285D01*
X6782284Y-5588285D01*
X6934284Y-6304284D02*
X6934284Y-6247715D01*
X6877715Y-6247715D01*
X6877715Y-6304284D01*
X6934284Y-6304284D01*
X6934284Y-7828284D02*
X6934284Y-7771715D01*
X6877715Y-7771715D01*
X6877715Y-7828284D01*
X6934284Y-7828284D01*
X7036284Y-4826285D02*
X7036284Y-4769716D01*
X6979715Y-4769716D01*
X6979715Y-4826285D01*
X7036284Y-4826285D01*
X7036284Y-5588285D02*
X7036284Y-5531716D01*
X6979715Y-5531716D01*
X6979715Y-5588285D01*
X7036284Y-5588285D01*
X7188284Y-6304284D02*
X7188284Y-6247715D01*
X7131715Y-6247715D01*
X7131715Y-6304284D01*
X7188284Y-6304284D01*
X7188284Y-7828284D02*
X7188284Y-7771715D01*
X7131715Y-7771715D01*
X7131715Y-7828284D01*
X7188284Y-7828284D01*
X7290284Y-4826285D02*
X7290284Y-4769716D01*
X7233715Y-4769716D01*
X7233715Y-4826285D01*
X7290284Y-4826285D01*
X7290284Y-5588285D02*
X7290284Y-5531716D01*
X7233715Y-5531716D01*
X7233715Y-5588285D01*
X7290284Y-5588285D01*
X7442284Y-6304284D02*
X7442284Y-6247715D01*
X7385715Y-6247715D01*
X7385715Y-6304284D01*
X7442284Y-6304284D01*
X7442284Y-7828284D02*
X7442284Y-7771715D01*
X7385715Y-7771715D01*
X7385715Y-7828284D01*
X7442284Y-7828284D01*
X7544284Y-4826285D02*
X7544284Y-4769716D01*
X7487715Y-4769716D01*
X7487715Y-4826285D01*
X7544284Y-4826285D01*
X7544284Y-5588285D02*
X7544284Y-5531716D01*
X7487715Y-5531716D01*
X7487715Y-5588285D01*
X7544284Y-5588285D01*
X7696284Y-6304284D02*
X7696284Y-6247715D01*
X7639715Y-6247715D01*
X7639715Y-6304284D01*
X7696284Y-6304284D01*
X7696284Y-7828284D02*
X7696284Y-7771715D01*
X7639715Y-7771715D01*
X7639715Y-7828284D01*
X7696284Y-7828284D01*
X7798284Y-4826285D02*
X7798284Y-4769716D01*
X7741715Y-4769716D01*
X7741715Y-4826285D01*
X7798284Y-4826285D01*
X7798284Y-5588285D02*
X7798284Y-5531716D01*
X7741715Y-5531716D01*
X7741715Y-5588285D01*
X7798284Y-5588285D01*
X7950284Y-6304284D02*
X7950284Y-6247715D01*
X7893715Y-6247715D01*
X7893715Y-6304284D01*
X7950284Y-6304284D01*
X7950284Y-7828284D02*
X7950284Y-7771715D01*
X7893715Y-7771715D01*
X7893715Y-7828284D01*
X7950284Y-7828284D01*
X8052284Y-4826285D02*
X8052284Y-4769716D01*
X7995715Y-4769716D01*
X7995715Y-4826285D01*
X8052284Y-4826285D01*
X8052284Y-5588285D02*
X8052284Y-5531716D01*
X7995715Y-5531716D01*
X7995715Y-5588285D01*
X8052284Y-5588285D01*
X8204284Y-6304284D02*
X8204284Y-6247715D01*
X8147715Y-6247715D01*
X8147715Y-6304284D01*
X8204284Y-6304284D01*
X8204284Y-7828284D02*
X8204284Y-7771715D01*
X8147715Y-7771715D01*
X8147715Y-7828284D01*
X8204284Y-7828284D01*
X8306284Y-4826285D02*
X8306284Y-4769716D01*
X8249715Y-4769716D01*
X8249715Y-4826285D01*
X8306284Y-4826285D01*
X8306284Y-5588285D02*
X8306284Y-5531716D01*
X8249715Y-5531716D01*
X8249715Y-5588285D01*
X8306284Y-5588285D01*
X8458285Y-6304284D02*
X8458285Y-6247715D01*
X8401716Y-6247715D01*
X8401716Y-6304284D01*
X8458285Y-6304284D01*
X8458285Y-7828284D02*
X8458285Y-7771715D01*
X8401716Y-7771715D01*
X8401716Y-7828284D01*
X8458285Y-7828284D01*
X8560285Y-4826285D02*
X8560285Y-4769716D01*
X8503716Y-4769716D01*
X8503716Y-4826285D01*
X8560285Y-4826285D01*
X8560285Y-5588285D02*
X8560285Y-5531716D01*
X8503716Y-5531716D01*
X8503716Y-5588285D01*
X8560285Y-5588285D01*
X8708285Y-8098284D02*
X8708285Y-8041715D01*
X8651716Y-8041715D01*
X8651716Y-8098284D01*
X8708285Y-8098284D01*
X8708285Y-8348284D02*
X8708285Y-8291715D01*
X8651716Y-8291715D01*
X8651716Y-8348284D01*
X8708285Y-8348284D01*
X8712285Y-6304284D02*
X8712285Y-6247715D01*
X8655716Y-6247715D01*
X8655716Y-6304284D01*
X8712285Y-6304284D01*
X8712285Y-7828284D02*
X8712285Y-7771715D01*
X8655716Y-7771715D01*
X8655716Y-7828284D01*
X8712285Y-7828284D01*
X8963285Y-4498285D02*
X8963285Y-4441716D01*
X8906716Y-4441716D01*
X8906716Y-4498285D01*
X8963285Y-4498285D01*
X8966285Y-6304284D02*
X8966285Y-6247715D01*
X8909716Y-6247715D01*
X8909716Y-6304284D01*
X8966285Y-6304284D01*
X8966285Y-7828284D02*
X8966285Y-7771715D01*
X8909716Y-7771715D01*
X8909716Y-7828284D01*
X8966285Y-7828284D01*
X8968285Y-4806285D02*
X8968285Y-4749716D01*
X8911716Y-4749716D01*
X8911716Y-4806285D01*
X8968285Y-4806285D01*
X8968285Y-5568285D02*
X8968285Y-5511716D01*
X8911716Y-5511716D01*
X8911716Y-5568285D01*
X8968285Y-5568285D01*
X9213285Y-4498285D02*
X9213285Y-4441716D01*
X9156716Y-4441716D01*
X9156716Y-4498285D01*
X9213285Y-4498285D01*
X9220285Y-6304284D02*
X9220285Y-6247715D01*
X9163716Y-6247715D01*
X9163716Y-6304284D01*
X9220285Y-6304284D01*
X9220285Y-7828284D02*
X9220285Y-7771715D01*
X9163716Y-7771715D01*
X9163716Y-7828284D01*
X9220285Y-7828284D01*
X9222285Y-4806285D02*
X9222285Y-4749716D01*
X9165716Y-4749716D01*
X9165716Y-4806285D01*
X9222285Y-4806285D01*
X9222285Y-5568285D02*
X9222285Y-5511716D01*
X9165716Y-5511716D01*
X9165716Y-5568285D01*
X9222285Y-5568285D01*
X9474285Y-6304284D02*
X9474285Y-6247715D01*
X9417716Y-6247715D01*
X9417716Y-6304284D01*
X9474285Y-6304284D01*
X9474285Y-7828284D02*
X9474285Y-7771715D01*
X9417716Y-7771715D01*
X9417716Y-7828284D01*
X9474285Y-7828284D01*
X9476285Y-4806285D02*
X9476285Y-4749716D01*
X9419716Y-4749716D01*
X9419716Y-4806285D01*
X9476285Y-4806285D01*
X9476285Y-5568285D02*
X9476285Y-5511716D01*
X9419716Y-5511716D01*
X9419716Y-5568285D01*
X9476285Y-5568285D01*
X9728285Y-6304284D02*
X9728285Y-6247715D01*
X9671716Y-6247715D01*
X9671716Y-6304284D01*
X9728285Y-6304284D01*
X9728285Y-7828284D02*
X9728285Y-7771715D01*
X9671716Y-7771715D01*
X9671716Y-7828284D01*
X9728285Y-7828284D01*
X9730285Y-4806285D02*
X9730285Y-4749716D01*
X9673716Y-4749716D01*
X9673716Y-4806285D01*
X9730285Y-4806285D01*
X9730285Y-5568285D02*
X9730285Y-5511716D01*
X9673716Y-5511716D01*
X9673716Y-5568285D01*
X9730285Y-5568285D01*
X9982285Y-6304284D02*
X9982285Y-6247715D01*
X9925716Y-6247715D01*
X9925716Y-6304284D01*
X9982285Y-6304284D01*
X9982285Y-7828284D02*
X9982285Y-7771715D01*
X9925716Y-7771715D01*
X9925716Y-7828284D01*
X9982285Y-7828284D01*
X9984285Y-4806285D02*
X9984285Y-4749716D01*
X9927716Y-4749716D01*
X9927716Y-4806285D01*
X9984285Y-4806285D01*
X9984285Y-5568285D02*
X9984285Y-5511716D01*
X9927716Y-5511716D01*
X9927716Y-5568285D01*
X9984285Y-5568285D01*
X10236285Y-6304284D02*
X10236285Y-6247715D01*
X10179716Y-6247715D01*
X10179716Y-6304284D01*
X10236285Y-6304284D01*
X10236285Y-7828284D02*
X10236285Y-7771715D01*
X10179716Y-7771715D01*
X10179716Y-7828284D01*
X10236285Y-7828284D01*
X10238285Y-4806285D02*
X10238285Y-4749716D01*
X10181716Y-4749716D01*
X10181716Y-4806285D01*
X10238285Y-4806285D01*
X10238285Y-5568285D02*
X10238285Y-5511716D01*
X10181716Y-5511716D01*
X10181716Y-5568285D01*
X10238285Y-5568285D01*
X10490285Y-6304284D02*
X10490285Y-6247715D01*
X10433716Y-6247715D01*
X10433716Y-6304284D01*
X10490285Y-6304284D01*
X10490285Y-7828284D02*
X10490285Y-7771715D01*
X10433716Y-7771715D01*
X10433716Y-7828284D01*
X10490285Y-7828284D01*
X10492285Y-4806285D02*
X10492285Y-4749716D01*
X10435716Y-4749716D01*
X10435716Y-4806285D01*
X10492285Y-4806285D01*
X10492285Y-5568285D02*
X10492285Y-5511716D01*
X10435716Y-5511716D01*
X10435716Y-5568285D01*
X10492285Y-5568285D01*
X10744285Y-6304284D02*
X10744285Y-6247715D01*
X10687716Y-6247715D01*
X10687716Y-6304284D01*
X10744285Y-6304284D01*
X10744285Y-7828284D02*
X10744285Y-7771715D01*
X10687716Y-7771715D01*
X10687716Y-7828284D01*
X10744285Y-7828284D01*
X10998285Y-6304284D02*
X10998285Y-6247715D01*
X10941716Y-6247715D01*
X10941716Y-6304284D01*
X10998285Y-6304284D01*
X10998285Y-7828284D02*
X10998285Y-7771715D01*
X10941716Y-7771715D01*
X10941716Y-7828284D01*
X10998285Y-7828284D01*
X11051285Y-4767285D02*
X11051285Y-4710716D01*
X10994716Y-4710716D01*
X10994716Y-4767285D01*
X11051285Y-4767285D01*
X11051285Y-5529285D02*
X11051285Y-5472716D01*
X10994716Y-5472716D01*
X10994716Y-5529285D01*
X11051285Y-5529285D01*
X11252284Y-6304284D02*
X11252284Y-6247715D01*
X11195715Y-6247715D01*
X11195715Y-6304284D01*
X11252284Y-6304284D01*
X11252284Y-7828284D02*
X11252284Y-7771715D01*
X11195715Y-7771715D01*
X11195715Y-7828284D01*
X11252284Y-7828284D01*
X11506284Y-6304284D02*
X11506284Y-6247715D01*
X11449715Y-6247715D01*
X11449715Y-6304284D01*
X11506284Y-6304284D01*
X11506284Y-7828284D02*
X11506284Y-7771715D01*
X11449715Y-7771715D01*
X11449715Y-7828284D01*
X11506284Y-7828284D01*
X11760284Y-6304284D02*
X11760284Y-6247715D01*
X11703715Y-6247715D01*
X11703715Y-6304284D01*
X11760284Y-6304284D01*
X11760284Y-7828284D02*
X11760284Y-7771715D01*
X11703715Y-7771715D01*
X11703715Y-7828284D01*
X11760284Y-7828284D01*
X11773284Y-5958284D02*
X11773284Y-5901715D01*
X11716715Y-5901715D01*
X11716715Y-5958284D01*
X11773284Y-5958284D01*
X11813284Y-4767285D02*
X11813284Y-4710716D01*
X11756715Y-4710716D01*
X11756715Y-4767285D01*
X11813284Y-4767285D01*
X11813284Y-5529285D02*
X11813284Y-5472716D01*
X11756715Y-5472716D01*
X11756715Y-5529285D01*
X11813284Y-5529285D01*
X12023284Y-5958284D02*
X12023284Y-5901715D01*
X11966715Y-5901715D01*
X11966715Y-5958284D01*
X12023284Y-5958284D01*
X12298284Y-4118284D02*
X12298284Y-4061715D01*
X12241715Y-4061715D01*
X12241715Y-4118284D01*
X12298284Y-4118284D01*
X12350284Y-4424285D02*
X12350284Y-4367716D01*
X12293715Y-4367716D01*
X12293715Y-4424285D01*
X12350284Y-4424285D01*
X12350284Y-5948284D02*
X12350284Y-5891715D01*
X12293715Y-5891715D01*
X12293715Y-5948284D01*
X12350284Y-5948284D01*
X12350284Y-6324284D02*
X12350284Y-6267715D01*
X12293715Y-6267715D01*
X12293715Y-6324284D01*
X12350284Y-6324284D01*
X12350284Y-7848284D02*
X12350284Y-7791715D01*
X12293715Y-7791715D01*
X12293715Y-7848284D01*
X12350284Y-7848284D01*
X12548284Y-4118284D02*
X12548284Y-4061715D01*
X12491715Y-4061715D01*
X12491715Y-4118284D01*
X12548284Y-4118284D01*
X12604284Y-4424285D02*
X12604284Y-4367716D01*
X12547715Y-4367716D01*
X12547715Y-4424285D01*
X12604284Y-4424285D01*
X12604284Y-5948284D02*
X12604284Y-5891715D01*
X12547715Y-5891715D01*
X12547715Y-5948284D01*
X12604284Y-5948284D01*
X12604284Y-6324284D02*
X12604284Y-6267715D01*
X12547715Y-6267715D01*
X12547715Y-6324284D01*
X12604284Y-6324284D01*
X12604284Y-7848284D02*
X12604284Y-7791715D01*
X12547715Y-7791715D01*
X12547715Y-7848284D01*
X12604284Y-7848284D01*
X12784784Y-8365784D02*
X12784784Y-8309215D01*
X12728215Y-8309215D01*
X12728215Y-8365784D01*
X12784784Y-8365784D01*
X12858284Y-4424285D02*
X12858284Y-4367716D01*
X12801715Y-4367716D01*
X12801715Y-4424285D01*
X12858284Y-4424285D01*
X12858284Y-5948284D02*
X12858284Y-5891715D01*
X12801715Y-5891715D01*
X12801715Y-5948284D01*
X12858284Y-5948284D01*
X12858284Y-6324284D02*
X12858284Y-6267715D01*
X12801715Y-6267715D01*
X12801715Y-6324284D01*
X12858284Y-6324284D01*
X12858284Y-7848284D02*
X12858284Y-7791715D01*
X12801715Y-7791715D01*
X12801715Y-7848284D01*
X12858284Y-7848284D01*
X13034784Y-8365784D02*
X13034784Y-8309215D01*
X12978215Y-8309215D01*
X12978215Y-8365784D01*
X13034784Y-8365784D01*
X13112284Y-4424285D02*
X13112284Y-4367716D01*
X13055715Y-4367716D01*
X13055715Y-4424285D01*
X13112284Y-4424285D01*
X13112284Y-5948284D02*
X13112284Y-5891715D01*
X13055715Y-5891715D01*
X13055715Y-5948284D01*
X13112284Y-5948284D01*
X13112284Y-6324284D02*
X13112284Y-6267715D01*
X13055715Y-6267715D01*
X13055715Y-6324284D01*
X13112284Y-6324284D01*
X13112284Y-7848284D02*
X13112284Y-7791715D01*
X13055715Y-7791715D01*
X13055715Y-7848284D01*
X13112284Y-7848284D01*
X13366284Y-4424285D02*
X13366284Y-4367716D01*
X13309715Y-4367716D01*
X13309715Y-4424285D01*
X13366284Y-4424285D01*
X13366284Y-5948284D02*
X13366284Y-5891715D01*
X13309715Y-5891715D01*
X13309715Y-5948284D01*
X13366284Y-5948284D01*
X13366284Y-6324284D02*
X13366284Y-6267715D01*
X13309715Y-6267715D01*
X13309715Y-6324284D01*
X13366284Y-6324284D01*
X13366284Y-7848284D02*
X13366284Y-7791715D01*
X13309715Y-7791715D01*
X13309715Y-7848284D01*
X13366284Y-7848284D01*
X13620284Y-4424285D02*
X13620284Y-4367716D01*
X13563715Y-4367716D01*
X13563715Y-4424285D01*
X13620284Y-4424285D01*
X13620284Y-5948284D02*
X13620284Y-5891715D01*
X13563715Y-5891715D01*
X13563715Y-5948284D01*
X13620284Y-5948284D01*
X13620284Y-6324284D02*
X13620284Y-6267715D01*
X13563715Y-6267715D01*
X13563715Y-6324284D01*
X13620284Y-6324284D01*
X13620284Y-7848284D02*
X13620284Y-7791715D01*
X13563715Y-7791715D01*
X13563715Y-7848284D01*
X13620284Y-7848284D01*
X13874284Y-4424285D02*
X13874284Y-4367716D01*
X13817715Y-4367716D01*
X13817715Y-4424285D01*
X13874284Y-4424285D01*
X13874284Y-5948284D02*
X13874284Y-5891715D01*
X13817715Y-5891715D01*
X13817715Y-5948284D01*
X13874284Y-5948284D01*
X13874284Y-6324284D02*
X13874284Y-6267715D01*
X13817715Y-6267715D01*
X13817715Y-6324284D01*
X13874284Y-6324284D01*
X13874284Y-7848284D02*
X13874284Y-7791715D01*
X13817715Y-7791715D01*
X13817715Y-7848284D01*
X13874284Y-7848284D01*
X14044784Y-8365784D02*
X14044784Y-8309215D01*
X13988215Y-8309215D01*
X13988215Y-8365784D01*
X14044784Y-8365784D01*
X14128284Y-4424285D02*
X14128284Y-4367716D01*
X14071715Y-4367716D01*
X14071715Y-4424285D01*
X14128284Y-4424285D01*
X14128284Y-5948284D02*
X14128284Y-5891715D01*
X14071715Y-5891715D01*
X14071715Y-5948284D01*
X14128284Y-5948284D01*
X14128284Y-6324284D02*
X14128284Y-6267715D01*
X14071715Y-6267715D01*
X14071715Y-6324284D01*
X14128284Y-6324284D01*
X14128284Y-7848284D02*
X14128284Y-7791715D01*
X14071715Y-7791715D01*
X14071715Y-7848284D01*
X14128284Y-7848284D01*
X14294784Y-8365784D02*
X14294784Y-8309215D01*
X14238215Y-8309215D01*
X14238215Y-8365784D01*
X14294784Y-8365784D01*
X14382284Y-4424285D02*
X14382284Y-4367716D01*
X14325715Y-4367716D01*
X14325715Y-4424285D01*
X14382284Y-4424285D01*
X14382284Y-5948284D02*
X14382284Y-5891715D01*
X14325715Y-5891715D01*
X14325715Y-5948284D01*
X14382284Y-5948284D01*
X14382284Y-6324284D02*
X14382284Y-6267715D01*
X14325715Y-6267715D01*
X14325715Y-6324284D01*
X14382284Y-6324284D01*
X14382284Y-7848284D02*
X14382284Y-7791715D01*
X14325715Y-7791715D01*
X14325715Y-7848284D01*
X14382284Y-7848284D01*
X14636284Y-4424285D02*
X14636284Y-4367716D01*
X14579715Y-4367716D01*
X14579715Y-4424285D01*
X14636284Y-4424285D01*
X14636284Y-5948284D02*
X14636284Y-5891715D01*
X14579715Y-5891715D01*
X14579715Y-5948284D01*
X14636284Y-5948284D01*
X14636284Y-6324284D02*
X14636284Y-6267715D01*
X14579715Y-6267715D01*
X14579715Y-6324284D01*
X14636284Y-6324284D01*
X14636284Y-7848284D02*
X14636284Y-7791715D01*
X14579715Y-7791715D01*
X14579715Y-7848284D01*
X14636284Y-7848284D01*
X14890284Y-4424285D02*
X14890284Y-4367716D01*
X14833715Y-4367716D01*
X14833715Y-4424285D01*
X14890284Y-4424285D01*
X14890284Y-5948284D02*
X14890284Y-5891715D01*
X14833715Y-5891715D01*
X14833715Y-5948284D01*
X14890284Y-5948284D01*
X14890284Y-6324284D02*
X14890284Y-6267715D01*
X14833715Y-6267715D01*
X14833715Y-6324284D01*
X14890284Y-6324284D01*
X14890284Y-7848284D02*
X14890284Y-7791715D01*
X14833715Y-7791715D01*
X14833715Y-7848284D01*
X14890284Y-7848284D01*
X15144284Y-4424285D02*
X15144284Y-4367716D01*
X15087715Y-4367716D01*
X15087715Y-4424285D01*
X15144284Y-4424285D01*
X15144284Y-5948284D02*
X15144284Y-5891715D01*
X15087715Y-5891715D01*
X15087715Y-5948284D01*
X15144284Y-5948284D01*
X15144284Y-6324284D02*
X15144284Y-6267715D01*
X15087715Y-6267715D01*
X15087715Y-6324284D01*
X15144284Y-6324284D01*
X15144284Y-7848284D02*
X15144284Y-7791715D01*
X15087715Y-7791715D01*
X15087715Y-7848284D01*
X15144284Y-7848284D01*
X15204784Y-8365784D02*
X15204784Y-8309215D01*
X15148215Y-8309215D01*
X15148215Y-8365784D01*
X15204784Y-8365784D01*
X15398284Y-4424285D02*
X15398284Y-4367716D01*
X15341715Y-4367716D01*
X15341715Y-4424285D01*
X15398284Y-4424285D01*
X15398284Y-5948284D02*
X15398284Y-5891715D01*
X15341715Y-5891715D01*
X15341715Y-5948284D01*
X15398284Y-5948284D01*
X15398284Y-6324284D02*
X15398284Y-6267715D01*
X15341715Y-6267715D01*
X15341715Y-6324284D01*
X15398284Y-6324284D01*
X15398284Y-7848284D02*
X15398284Y-7791715D01*
X15341715Y-7791715D01*
X15341715Y-7848284D01*
X15398284Y-7848284D01*
X15454784Y-8365784D02*
X15454784Y-8309215D01*
X15398215Y-8309215D01*
X15398215Y-8365784D01*
X15454784Y-8365784D01*
X15652284Y-4424285D02*
X15652284Y-4367716D01*
X15595715Y-4367716D01*
X15595715Y-4424285D01*
X15652284Y-4424285D01*
X15652284Y-5948284D02*
X15652284Y-5891715D01*
X15595715Y-5891715D01*
X15595715Y-5948284D01*
X15652284Y-5948284D01*
X15652284Y-6324284D02*
X15652284Y-6267715D01*
X15595715Y-6267715D01*
X15595715Y-6324284D01*
X15652284Y-6324284D01*
X15652284Y-7848284D02*
X15652284Y-7791715D01*
X15595715Y-7791715D01*
X15595715Y-7848284D01*
X15652284Y-7848284D01*
D16*
X8709500Y-3080500D02*
X8754500Y-3035500D01*
X8709500Y-2990500D01*
X8664500Y-3035500D01*
X8709500Y-3080500D01*
X8709500Y-3334500D02*
X8754500Y-3289500D01*
X8709500Y-3244500D01*
X8664500Y-3289500D01*
X8709500Y-3334500D01*
D17*
X7253000Y-4091750D02*
X7345000Y-4183750D01*
X7345000Y-4091750D02*
X7253000Y-4183750D01*
X7345000Y-4137750D02*
G75*
G03*
X7345000Y-4137750I-46000J0D01*
G01*
X7253000Y-4291750D02*
X7345000Y-4383750D01*
X7345000Y-4291750D02*
X7253000Y-4383750D01*
X7345000Y-4337750D02*
G75*
G03*
X7345000Y-4337750I-46000J0D01*
G01*
X7503000Y-4091750D02*
X7595000Y-4183750D01*
X7595000Y-4091750D02*
X7503000Y-4183750D01*
X7595000Y-4137750D02*
G75*
G03*
X7595000Y-4137750I-46000J0D01*
G01*
X7503000Y-4291750D02*
X7595000Y-4383750D01*
X7595000Y-4291750D02*
X7503000Y-4383750D01*
X7595000Y-4337750D02*
G75*
G03*
X7595000Y-4337750I-46000J0D01*
G01*
D10*
X6230000Y-8480000D02*
X6330000Y-8580000D01*
X6330000Y-8480000D02*
X6230000Y-8580000D01*
X6280000Y-8480000D02*
X6280000Y-8580000D01*
X6230000Y-8530000D02*
X6330000Y-8530000D01*
X6230000Y-8734000D02*
X6330000Y-8834000D01*
X6330000Y-8734000D02*
X6230000Y-8834000D01*
X6280000Y-8734000D02*
X6280000Y-8834000D01*
X6230000Y-8784000D02*
X6330000Y-8784000D01*
X6230000Y-8988000D02*
X6330000Y-9088000D01*
X6330000Y-8988000D02*
X6230000Y-9088000D01*
X6280000Y-8988000D02*
X6280000Y-9088000D01*
X6230000Y-9038000D02*
X6330000Y-9038000D01*
X6856000Y-8730000D02*
X6956000Y-8830000D01*
X6956000Y-8730000D02*
X6856000Y-8830000D01*
X6906000Y-8730000D02*
X6906000Y-8830000D01*
X6856000Y-8780000D02*
X6956000Y-8780000D01*
X6856000Y-8984000D02*
X6956000Y-9084000D01*
X6956000Y-8984000D02*
X6856000Y-9084000D01*
X6906000Y-8984000D02*
X6906000Y-9084000D01*
X6856000Y-9034000D02*
X6956000Y-9034000D01*
X7110000Y-8730000D02*
X7210000Y-8830000D01*
X7210000Y-8730000D02*
X7110000Y-8830000D01*
X7160000Y-8730000D02*
X7160000Y-8830000D01*
X7110000Y-8780000D02*
X7210000Y-8780000D01*
X7110000Y-8984000D02*
X7210000Y-9084000D01*
X7210000Y-8984000D02*
X7110000Y-9084000D01*
X7160000Y-8984000D02*
X7160000Y-9084000D01*
X7110000Y-9034000D02*
X7210000Y-9034000D01*
X7364000Y-8730000D02*
X7464000Y-8830000D01*
X7464000Y-8730000D02*
X7364000Y-8830000D01*
X7414000Y-8730000D02*
X7414000Y-8830000D01*
X7364000Y-8780000D02*
X7464000Y-8780000D01*
X7364000Y-8984000D02*
X7464000Y-9084000D01*
X7464000Y-8984000D02*
X7364000Y-9084000D01*
X7414000Y-8984000D02*
X7414000Y-9084000D01*
X7364000Y-9034000D02*
X7464000Y-9034000D01*
X7618000Y-8730000D02*
X7718000Y-8830000D01*
X7718000Y-8730000D02*
X7618000Y-8830000D01*
X7668000Y-8730000D02*
X7668000Y-8830000D01*
X7618000Y-8780000D02*
X7718000Y-8780000D01*
X7618000Y-8984000D02*
X7718000Y-9084000D01*
X7718000Y-8984000D02*
X7618000Y-9084000D01*
X7668000Y-8984000D02*
X7668000Y-9084000D01*
X7618000Y-9034000D02*
X7718000Y-9034000D01*
X7872000Y-8730000D02*
X7972000Y-8830000D01*
X7972000Y-8730000D02*
X7872000Y-8830000D01*
X7922000Y-8730000D02*
X7922000Y-8830000D01*
X7872000Y-8780000D02*
X7972000Y-8780000D01*
X7872000Y-8984000D02*
X7972000Y-9084000D01*
X7972000Y-8984000D02*
X7872000Y-9084000D01*
X7922000Y-8984000D02*
X7922000Y-9084000D01*
X7872000Y-9034000D02*
X7972000Y-9034000D01*
X8126000Y-8730000D02*
X8226000Y-8830000D01*
X8226000Y-8730000D02*
X8126000Y-8830000D01*
X8176000Y-8730000D02*
X8176000Y-8830000D01*
X8126000Y-8780000D02*
X8226000Y-8780000D01*
X8126000Y-8984000D02*
X8226000Y-9084000D01*
X8226000Y-8984000D02*
X8126000Y-9084000D01*
X8176000Y-8984000D02*
X8176000Y-9084000D01*
X8126000Y-9034000D02*
X8226000Y-9034000D01*
X8380000Y-8730000D02*
X8480000Y-8830000D01*
X8480000Y-8730000D02*
X8380000Y-8830000D01*
X8430000Y-8730000D02*
X8430000Y-8830000D01*
X8380000Y-8780000D02*
X8480000Y-8780000D01*
X8380000Y-8984000D02*
X8480000Y-9084000D01*
X8480000Y-8984000D02*
X8380000Y-9084000D01*
X8430000Y-8984000D02*
X8430000Y-9084000D01*
X8380000Y-9034000D02*
X8480000Y-9034000D01*
X8634000Y-8730000D02*
X8734000Y-8830000D01*
X8734000Y-8730000D02*
X8634000Y-8830000D01*
X8684000Y-8730000D02*
X8684000Y-8830000D01*
X8634000Y-8780000D02*
X8734000Y-8780000D01*
X8634000Y-8984000D02*
X8734000Y-9084000D01*
X8734000Y-8984000D02*
X8634000Y-9084000D01*
X8684000Y-8984000D02*
X8684000Y-9084000D01*
X8634000Y-9034000D02*
X8734000Y-9034000D01*
X8888000Y-8730000D02*
X8988000Y-8830000D01*
X8988000Y-8730000D02*
X8888000Y-8830000D01*
X8938000Y-8730000D02*
X8938000Y-8830000D01*
X8888000Y-8780000D02*
X8988000Y-8780000D01*
X8888000Y-8984000D02*
X8988000Y-9084000D01*
X8988000Y-8984000D02*
X8888000Y-9084000D01*
X8938000Y-8984000D02*
X8938000Y-9084000D01*
X8888000Y-9034000D02*
X8988000Y-9034000D01*
X9142000Y-8730000D02*
X9242000Y-8830000D01*
X9242000Y-8730000D02*
X9142000Y-8830000D01*
X9192000Y-8730000D02*
X9192000Y-8830000D01*
X9142000Y-8780000D02*
X9242000Y-8780000D01*
X9142000Y-8984000D02*
X9242000Y-9084000D01*
X9242000Y-8984000D02*
X9142000Y-9084000D01*
X9192000Y-8984000D02*
X9192000Y-9084000D01*
X9142000Y-9034000D02*
X9242000Y-9034000D01*
X9346000Y-2985000D02*
X9446000Y-3085000D01*
X9446000Y-2985000D02*
X9346000Y-3085000D01*
X9396000Y-2985000D02*
X9396000Y-3085000D01*
X9346000Y-3035000D02*
X9446000Y-3035000D01*
X9396000Y-8730000D02*
X9496000Y-8830000D01*
X9496000Y-8730000D02*
X9396000Y-8830000D01*
X9446000Y-8730000D02*
X9446000Y-8830000D01*
X9396000Y-8780000D02*
X9496000Y-8780000D01*
X9396000Y-8984000D02*
X9496000Y-9084000D01*
X9496000Y-8984000D02*
X9396000Y-9084000D01*
X9446000Y-8984000D02*
X9446000Y-9084000D01*
X9396000Y-9034000D02*
X9496000Y-9034000D01*
X9600000Y-2985000D02*
X9700000Y-3085000D01*
X9700000Y-2985000D02*
X9600000Y-3085000D01*
X9650000Y-2985000D02*
X9650000Y-3085000D01*
X9600000Y-3035000D02*
X9700000Y-3035000D01*
X9650000Y-8730000D02*
X9750000Y-8830000D01*
X9750000Y-8730000D02*
X9650000Y-8830000D01*
X9700000Y-8730000D02*
X9700000Y-8830000D01*
X9650000Y-8780000D02*
X9750000Y-8780000D01*
X9650000Y-8984000D02*
X9750000Y-9084000D01*
X9750000Y-8984000D02*
X9650000Y-9084000D01*
X9700000Y-8984000D02*
X9700000Y-9084000D01*
X9650000Y-9034000D02*
X9750000Y-9034000D01*
X9854000Y-2985000D02*
X9954000Y-3085000D01*
X9954000Y-2985000D02*
X9854000Y-3085000D01*
X9904000Y-2985000D02*
X9904000Y-3085000D01*
X9854000Y-3035000D02*
X9954000Y-3035000D01*
X9904000Y-8730000D02*
X10004000Y-8830000D01*
X10004000Y-8730000D02*
X9904000Y-8830000D01*
X9954000Y-8730000D02*
X9954000Y-8830000D01*
X9904000Y-8780000D02*
X10004000Y-8780000D01*
X9904000Y-8984000D02*
X10004000Y-9084000D01*
X10004000Y-8984000D02*
X9904000Y-9084000D01*
X9954000Y-8984000D02*
X9954000Y-9084000D01*
X9904000Y-9034000D02*
X10004000Y-9034000D01*
X10158000Y-8730000D02*
X10258000Y-8830000D01*
X10258000Y-8730000D02*
X10158000Y-8830000D01*
X10208000Y-8730000D02*
X10208000Y-8830000D01*
X10158000Y-8780000D02*
X10258000Y-8780000D01*
X10158000Y-8984000D02*
X10258000Y-9084000D01*
X10258000Y-8984000D02*
X10158000Y-9084000D01*
X10208000Y-8984000D02*
X10208000Y-9084000D01*
X10158000Y-9034000D02*
X10258000Y-9034000D01*
X10412000Y-8730000D02*
X10512000Y-8830000D01*
X10512000Y-8730000D02*
X10412000Y-8830000D01*
X10462000Y-8730000D02*
X10462000Y-8830000D01*
X10412000Y-8780000D02*
X10512000Y-8780000D01*
X10412000Y-8984000D02*
X10512000Y-9084000D01*
X10512000Y-8984000D02*
X10412000Y-9084000D01*
X10462000Y-8984000D02*
X10462000Y-9084000D01*
X10412000Y-9034000D02*
X10512000Y-9034000D01*
X10666000Y-8730000D02*
X10766000Y-8830000D01*
X10766000Y-8730000D02*
X10666000Y-8830000D01*
X10716000Y-8730000D02*
X10716000Y-8830000D01*
X10666000Y-8780000D02*
X10766000Y-8780000D01*
X10666000Y-8984000D02*
X10766000Y-9084000D01*
X10766000Y-8984000D02*
X10666000Y-9084000D01*
X10716000Y-8984000D02*
X10716000Y-9084000D01*
X10666000Y-9034000D02*
X10766000Y-9034000D01*
X10920000Y-8730000D02*
X11020000Y-8830000D01*
X11020000Y-8730000D02*
X10920000Y-8830000D01*
X10970000Y-8730000D02*
X10970000Y-8830000D01*
X10920000Y-8780000D02*
X11020000Y-8780000D01*
X10920000Y-8984000D02*
X11020000Y-9084000D01*
X11020000Y-8984000D02*
X10920000Y-9084000D01*
X10970000Y-8984000D02*
X10970000Y-9084000D01*
X10920000Y-9034000D02*
X11020000Y-9034000D01*
X11174000Y-8730000D02*
X11274000Y-8830000D01*
X11274000Y-8730000D02*
X11174000Y-8830000D01*
X11224000Y-8730000D02*
X11224000Y-8830000D01*
X11174000Y-8780000D02*
X11274000Y-8780000D01*
X11174000Y-8984000D02*
X11274000Y-9084000D01*
X11274000Y-8984000D02*
X11174000Y-9084000D01*
X11224000Y-8984000D02*
X11224000Y-9084000D01*
X11174000Y-9034000D02*
X11274000Y-9034000D01*
X11428000Y-8730000D02*
X11528000Y-8830000D01*
X11528000Y-8730000D02*
X11428000Y-8830000D01*
X11478000Y-8730000D02*
X11478000Y-8830000D01*
X11428000Y-8780000D02*
X11528000Y-8780000D01*
X11428000Y-8984000D02*
X11528000Y-9084000D01*
X11528000Y-8984000D02*
X11428000Y-9084000D01*
X11478000Y-8984000D02*
X11478000Y-9084000D01*
X11428000Y-9034000D02*
X11528000Y-9034000D01*
X11682000Y-8730000D02*
X11782000Y-8830000D01*
X11782000Y-8730000D02*
X11682000Y-8830000D01*
X11732000Y-8730000D02*
X11732000Y-8830000D01*
X11682000Y-8780000D02*
X11782000Y-8780000D01*
X11682000Y-8984000D02*
X11782000Y-9084000D01*
X11782000Y-8984000D02*
X11682000Y-9084000D01*
X11732000Y-8984000D02*
X11732000Y-9084000D01*
X11682000Y-9034000D02*
X11782000Y-9034000D01*
D18*
X12495149Y-8824640D02*
X12605149Y-8934640D01*
X12605149Y-8824640D02*
X12495149Y-8934640D01*
X12589040Y-8918531D02*
X12589040Y-8840749D01*
X12511258Y-8840749D01*
X12511258Y-8918531D01*
X12589040Y-8918531D01*
X12495149Y-9274640D02*
X12605149Y-9384640D01*
X12605149Y-9274640D02*
X12495149Y-9384640D01*
X12589040Y-9368531D02*
X12589040Y-9290749D01*
X12511258Y-9290749D01*
X12511258Y-9368531D01*
X12589040Y-9368531D01*
X13145149Y-8824640D02*
X13255149Y-8934640D01*
X13255149Y-8824640D02*
X13145149Y-8934640D01*
X13239040Y-8918531D02*
X13239040Y-8840749D01*
X13161258Y-8840749D01*
X13161258Y-8918531D01*
X13239040Y-8918531D01*
X13145149Y-9274640D02*
X13255149Y-9384640D01*
X13255149Y-9274640D02*
X13145149Y-9384640D01*
X13239040Y-9368531D02*
X13239040Y-9290749D01*
X13161258Y-9290749D01*
X13161258Y-9368531D01*
X13239040Y-9368531D01*
X13760996Y-8816106D02*
X13870996Y-8926106D01*
X13870996Y-8816106D02*
X13760996Y-8926106D01*
X13854887Y-8909997D02*
X13854887Y-8832215D01*
X13777104Y-8832215D01*
X13777104Y-8909997D01*
X13854887Y-8909997D01*
X13760996Y-9266106D02*
X13870996Y-9376106D01*
X13870996Y-9266106D02*
X13760996Y-9376106D01*
X13854887Y-9359997D02*
X13854887Y-9282215D01*
X13777104Y-9282215D01*
X13777104Y-9359997D01*
X13854887Y-9359997D01*
X14410996Y-8816106D02*
X14520996Y-8926106D01*
X14520996Y-8816106D02*
X14410996Y-8926106D01*
X14504887Y-8909997D02*
X14504887Y-8832215D01*
X14427104Y-8832215D01*
X14427104Y-8909997D01*
X14504887Y-8909997D01*
X14410996Y-9266106D02*
X14520996Y-9376106D01*
X14520996Y-9266106D02*
X14410996Y-9376106D01*
X14504887Y-9359997D02*
X14504887Y-9282215D01*
X14427104Y-9282215D01*
X14427104Y-9359997D01*
X14504887Y-9359997D01*
X14895112Y-8824159D02*
X15005112Y-8934159D01*
X15005112Y-8824159D02*
X14895112Y-8934159D01*
X14989003Y-8918050D02*
X14989003Y-8840267D01*
X14911220Y-8840267D01*
X14911220Y-8918050D01*
X14989003Y-8918050D01*
X14895112Y-9274159D02*
X15005112Y-9384159D01*
X15005112Y-9274159D02*
X14895112Y-9384159D01*
X14989003Y-9368050D02*
X14989003Y-9290267D01*
X14911220Y-9290267D01*
X14911220Y-9368050D01*
X14989003Y-9368050D01*
X15545112Y-8824159D02*
X15655112Y-8934159D01*
X15655112Y-8824159D02*
X15545112Y-8934159D01*
X15639003Y-8918050D02*
X15639003Y-8840267D01*
X15561220Y-8840267D01*
X15561220Y-8918050D01*
X15639003Y-8918050D01*
X15545112Y-9274159D02*
X15655112Y-9384159D01*
X15655112Y-9274159D02*
X15545112Y-9384159D01*
X15639003Y-9368050D02*
X15639003Y-9290267D01*
X15561220Y-9290267D01*
X15561220Y-9368050D01*
X15639003Y-9368050D01*
D19*
X6705500Y-3750250D02*
X6938500Y-3983250D01*
X6938500Y-3750250D02*
X6705500Y-3983250D01*
X6822000Y-3983250D02*
X6938500Y-3866750D01*
X6822000Y-3750250D01*
X6705500Y-3866750D01*
X6822000Y-3983250D01*
X7909500Y-3750250D02*
X8142500Y-3983250D01*
X8142500Y-3750250D02*
X7909500Y-3983250D01*
X8026000Y-3983250D02*
X8142500Y-3866750D01*
X8026000Y-3750250D01*
X7909500Y-3866750D01*
X8026000Y-3983250D01*
D11*
X6265777Y-9998984D02*
X6265777Y-9798984D01*
X6265777Y-9798984D02*
X6313396Y-9798984D01*
X6313396Y-9798984D02*
X6341967Y-9808508D01*
X6341967Y-9808508D02*
X6361015Y-9827555D01*
X6361015Y-9827555D02*
X6370539Y-9846603D01*
X6370539Y-9846603D02*
X6380062Y-9884698D01*
X6380062Y-9884698D02*
X6380062Y-9913270D01*
X6380062Y-9913270D02*
X6370539Y-9951365D01*
X6370539Y-9951365D02*
X6361015Y-9970412D01*
X6361015Y-9970412D02*
X6341967Y-9989460D01*
X6341967Y-9989460D02*
X6313396Y-9998984D01*
X6313396Y-9998984D02*
X6265777Y-9998984D01*
X6465777Y-9998984D02*
X6465777Y-9865650D01*
X6465777Y-9903746D02*
X6475301Y-9884698D01*
X6475301Y-9884698D02*
X6484824Y-9875174D01*
X6484824Y-9875174D02*
X6503872Y-9865650D01*
X6503872Y-9865650D02*
X6522920Y-9865650D01*
X6589586Y-9998984D02*
X6589586Y-9865650D01*
X6589586Y-9798984D02*
X6580062Y-9808508D01*
X6580062Y-9808508D02*
X6589586Y-9818031D01*
X6589586Y-9818031D02*
X6599110Y-9808508D01*
X6599110Y-9808508D02*
X6589586Y-9798984D01*
X6589586Y-9798984D02*
X6589586Y-9818031D01*
X6713396Y-9998984D02*
X6694348Y-9989460D01*
X6694348Y-9989460D02*
X6684824Y-9970412D01*
X6684824Y-9970412D02*
X6684824Y-9798984D01*
X6818158Y-9998984D02*
X6799110Y-9989460D01*
X6799110Y-9989460D02*
X6789586Y-9970412D01*
X6789586Y-9970412D02*
X6789586Y-9798984D01*
X7046729Y-9998984D02*
X7046729Y-9798984D01*
X7046729Y-9798984D02*
X7113396Y-9941841D01*
X7113396Y-9941841D02*
X7180062Y-9798984D01*
X7180062Y-9798984D02*
X7180062Y-9998984D01*
X7361015Y-9998984D02*
X7361015Y-9894222D01*
X7361015Y-9894222D02*
X7351491Y-9875174D01*
X7351491Y-9875174D02*
X7332443Y-9865650D01*
X7332443Y-9865650D02*
X7294348Y-9865650D01*
X7294348Y-9865650D02*
X7275301Y-9875174D01*
X7361015Y-9989460D02*
X7341967Y-9998984D01*
X7341967Y-9998984D02*
X7294348Y-9998984D01*
X7294348Y-9998984D02*
X7275301Y-9989460D01*
X7275301Y-9989460D02*
X7265777Y-9970412D01*
X7265777Y-9970412D02*
X7265777Y-9951365D01*
X7265777Y-9951365D02*
X7275301Y-9932317D01*
X7275301Y-9932317D02*
X7294348Y-9922793D01*
X7294348Y-9922793D02*
X7341967Y-9922793D01*
X7341967Y-9922793D02*
X7361015Y-9913270D01*
X7456253Y-9865650D02*
X7456253Y-10065650D01*
X7456253Y-9875174D02*
X7475301Y-9865650D01*
X7475301Y-9865650D02*
X7513396Y-9865650D01*
X7513396Y-9865650D02*
X7532443Y-9875174D01*
X7532443Y-9875174D02*
X7541967Y-9884698D01*
X7541967Y-9884698D02*
X7551491Y-9903746D01*
X7551491Y-9903746D02*
X7551491Y-9960889D01*
X7551491Y-9960889D02*
X7541967Y-9979936D01*
X7541967Y-9979936D02*
X7532443Y-9989460D01*
X7532443Y-9989460D02*
X7513396Y-9998984D01*
X7513396Y-9998984D02*
X7475301Y-9998984D01*
X7475301Y-9998984D02*
X7456253Y-9989460D01*
X7637205Y-9979936D02*
X7646729Y-9989460D01*
X7646729Y-9989460D02*
X7637205Y-9998984D01*
X7637205Y-9998984D02*
X7627682Y-9989460D01*
X7627682Y-9989460D02*
X7637205Y-9979936D01*
X7637205Y-9979936D02*
X7637205Y-9998984D01*
X7637205Y-9875174D02*
X7646729Y-9884698D01*
X7646729Y-9884698D02*
X7637205Y-9894222D01*
X7637205Y-9894222D02*
X7627682Y-9884698D01*
X7627682Y-9884698D02*
X7637205Y-9875174D01*
X7637205Y-9875174D02*
X7637205Y-9894222D01*
D12*
X5965000Y-10307500D02*
X6005000Y-10347500D01*
X6005000Y-10307500D02*
X5965000Y-10347500D01*
D11*
X6303872Y-10218984D02*
X6322920Y-10218984D01*
X6322920Y-10218984D02*
X6341967Y-10228508D01*
X6341967Y-10228508D02*
X6351491Y-10238031D01*
X6351491Y-10238031D02*
X6361015Y-10257079D01*
X6361015Y-10257079D02*
X6370539Y-10295174D01*
X6370539Y-10295174D02*
X6370539Y-10342793D01*
X6370539Y-10342793D02*
X6361015Y-10380889D01*
X6361015Y-10380889D02*
X6351491Y-10399936D01*
X6351491Y-10399936D02*
X6341967Y-10409460D01*
X6341967Y-10409460D02*
X6322920Y-10418984D01*
X6322920Y-10418984D02*
X6303872Y-10418984D01*
X6303872Y-10418984D02*
X6284824Y-10409460D01*
X6284824Y-10409460D02*
X6275301Y-10399936D01*
X6275301Y-10399936D02*
X6265777Y-10380889D01*
X6265777Y-10380889D02*
X6256253Y-10342793D01*
X6256253Y-10342793D02*
X6256253Y-10295174D01*
X6256253Y-10295174D02*
X6265777Y-10257079D01*
X6265777Y-10257079D02*
X6275301Y-10238031D01*
X6275301Y-10238031D02*
X6284824Y-10228508D01*
X6284824Y-10228508D02*
X6303872Y-10218984D01*
X6456253Y-10399936D02*
X6465777Y-10409460D01*
X6465777Y-10409460D02*
X6456253Y-10418984D01*
X6456253Y-10418984D02*
X6446729Y-10409460D01*
X6446729Y-10409460D02*
X6456253Y-10399936D01*
X6456253Y-10399936D02*
X6456253Y-10418984D01*
X6637205Y-10285650D02*
X6637205Y-10418984D01*
X6589586Y-10209460D02*
X6541967Y-10352317D01*
X6541967Y-10352317D02*
X6665777Y-10352317D01*
X6780062Y-10218984D02*
X6799110Y-10218984D01*
X6799110Y-10218984D02*
X6818158Y-10228508D01*
X6818158Y-10228508D02*
X6827682Y-10238031D01*
X6827682Y-10238031D02*
X6837205Y-10257079D01*
X6837205Y-10257079D02*
X6846729Y-10295174D01*
X6846729Y-10295174D02*
X6846729Y-10342793D01*
X6846729Y-10342793D02*
X6837205Y-10380889D01*
X6837205Y-10380889D02*
X6827682Y-10399936D01*
X6827682Y-10399936D02*
X6818158Y-10409460D01*
X6818158Y-10409460D02*
X6799110Y-10418984D01*
X6799110Y-10418984D02*
X6780062Y-10418984D01*
X6780062Y-10418984D02*
X6761015Y-10409460D01*
X6761015Y-10409460D02*
X6751491Y-10399936D01*
X6751491Y-10399936D02*
X6741967Y-10380889D01*
X6741967Y-10380889D02*
X6732443Y-10342793D01*
X6732443Y-10342793D02*
X6732443Y-10295174D01*
X6732443Y-10295174D02*
X6741967Y-10257079D01*
X6741967Y-10257079D02*
X6751491Y-10238031D01*
X6751491Y-10238031D02*
X6761015Y-10228508D01*
X6761015Y-10228508D02*
X6780062Y-10218984D01*
X6970539Y-10218984D02*
X6989586Y-10218984D01*
X6989586Y-10218984D02*
X7008634Y-10228508D01*
X7008634Y-10228508D02*
X7018158Y-10238031D01*
X7018158Y-10238031D02*
X7027682Y-10257079D01*
X7027682Y-10257079D02*
X7037205Y-10295174D01*
X7037205Y-10295174D02*
X7037205Y-10342793D01*
X7037205Y-10342793D02*
X7027682Y-10380889D01*
X7027682Y-10380889D02*
X7018158Y-10399936D01*
X7018158Y-10399936D02*
X7008634Y-10409460D01*
X7008634Y-10409460D02*
X6989586Y-10418984D01*
X6989586Y-10418984D02*
X6970539Y-10418984D01*
X6970539Y-10418984D02*
X6951491Y-10409460D01*
X6951491Y-10409460D02*
X6941967Y-10399936D01*
X6941967Y-10399936D02*
X6932443Y-10380889D01*
X6932443Y-10380889D02*
X6922920Y-10342793D01*
X6922920Y-10342793D02*
X6922920Y-10295174D01*
X6922920Y-10295174D02*
X6932443Y-10257079D01*
X6932443Y-10257079D02*
X6941967Y-10238031D01*
X6941967Y-10238031D02*
X6951491Y-10228508D01*
X6951491Y-10228508D02*
X6970539Y-10218984D01*
X7122920Y-10418984D02*
X7122920Y-10285650D01*
X7122920Y-10304698D02*
X7132443Y-10295174D01*
X7132443Y-10295174D02*
X7151491Y-10285650D01*
X7151491Y-10285650D02*
X7180063Y-10285650D01*
X7180063Y-10285650D02*
X7199110Y-10295174D01*
X7199110Y-10295174D02*
X7208634Y-10314222D01*
X7208634Y-10314222D02*
X7208634Y-10418984D01*
X7208634Y-10314222D02*
X7218158Y-10295174D01*
X7218158Y-10295174D02*
X7237205Y-10285650D01*
X7237205Y-10285650D02*
X7265777Y-10285650D01*
X7265777Y-10285650D02*
X7284824Y-10295174D01*
X7284824Y-10295174D02*
X7294348Y-10314222D01*
X7294348Y-10314222D02*
X7294348Y-10418984D01*
X7389586Y-10418984D02*
X7389586Y-10285650D01*
X7389586Y-10304698D02*
X7399110Y-10295174D01*
X7399110Y-10295174D02*
X7418158Y-10285650D01*
X7418158Y-10285650D02*
X7446729Y-10285650D01*
X7446729Y-10285650D02*
X7465777Y-10295174D01*
X7465777Y-10295174D02*
X7475301Y-10314222D01*
X7475301Y-10314222D02*
X7475301Y-10418984D01*
X7475301Y-10314222D02*
X7484824Y-10295174D01*
X7484824Y-10295174D02*
X7503872Y-10285650D01*
X7503872Y-10285650D02*
X7532443Y-10285650D01*
X7532443Y-10285650D02*
X7551491Y-10295174D01*
X7551491Y-10295174D02*
X7561015Y-10314222D01*
X7561015Y-10314222D02*
X7561015Y-10418984D01*
X7951491Y-10209460D02*
X7780063Y-10466603D01*
X8208634Y-10218984D02*
X8227682Y-10218984D01*
X8227682Y-10218984D02*
X8246729Y-10228508D01*
X8246729Y-10228508D02*
X8256253Y-10238031D01*
X8256253Y-10238031D02*
X8265777Y-10257079D01*
X8265777Y-10257079D02*
X8275301Y-10295174D01*
X8275301Y-10295174D02*
X8275301Y-10342793D01*
X8275301Y-10342793D02*
X8265777Y-10380889D01*
X8265777Y-10380889D02*
X8256253Y-10399936D01*
X8256253Y-10399936D02*
X8246729Y-10409460D01*
X8246729Y-10409460D02*
X8227682Y-10418984D01*
X8227682Y-10418984D02*
X8208634Y-10418984D01*
X8208634Y-10418984D02*
X8189586Y-10409460D01*
X8189586Y-10409460D02*
X8180063Y-10399936D01*
X8180063Y-10399936D02*
X8170539Y-10380889D01*
X8170539Y-10380889D02*
X8161015Y-10342793D01*
X8161015Y-10342793D02*
X8161015Y-10295174D01*
X8161015Y-10295174D02*
X8170539Y-10257079D01*
X8170539Y-10257079D02*
X8180063Y-10238031D01*
X8180063Y-10238031D02*
X8189586Y-10228508D01*
X8189586Y-10228508D02*
X8208634Y-10218984D01*
X8361015Y-10399936D02*
X8370539Y-10409460D01*
X8370539Y-10409460D02*
X8361015Y-10418984D01*
X8361015Y-10418984D02*
X8351491Y-10409460D01*
X8351491Y-10409460D02*
X8361015Y-10399936D01*
X8361015Y-10399936D02*
X8361015Y-10418984D01*
X8494348Y-10218984D02*
X8513396Y-10218984D01*
X8513396Y-10218984D02*
X8532444Y-10228508D01*
X8532444Y-10228508D02*
X8541968Y-10238031D01*
X8541968Y-10238031D02*
X8551491Y-10257079D01*
X8551491Y-10257079D02*
X8561015Y-10295174D01*
X8561015Y-10295174D02*
X8561015Y-10342793D01*
X8561015Y-10342793D02*
X8551491Y-10380889D01*
X8551491Y-10380889D02*
X8541968Y-10399936D01*
X8541968Y-10399936D02*
X8532444Y-10409460D01*
X8532444Y-10409460D02*
X8513396Y-10418984D01*
X8513396Y-10418984D02*
X8494348Y-10418984D01*
X8494348Y-10418984D02*
X8475301Y-10409460D01*
X8475301Y-10409460D02*
X8465777Y-10399936D01*
X8465777Y-10399936D02*
X8456253Y-10380889D01*
X8456253Y-10380889D02*
X8446729Y-10342793D01*
X8446729Y-10342793D02*
X8446729Y-10295174D01*
X8446729Y-10295174D02*
X8456253Y-10257079D01*
X8456253Y-10257079D02*
X8465777Y-10238031D01*
X8465777Y-10238031D02*
X8475301Y-10228508D01*
X8475301Y-10228508D02*
X8494348Y-10218984D01*
X8751491Y-10418984D02*
X8637206Y-10418984D01*
X8694348Y-10418984D02*
X8694348Y-10218984D01*
X8694348Y-10218984D02*
X8675301Y-10247555D01*
X8675301Y-10247555D02*
X8656253Y-10266603D01*
X8656253Y-10266603D02*
X8637206Y-10276127D01*
X8932444Y-10218984D02*
X8837206Y-10218984D01*
X8837206Y-10218984D02*
X8827682Y-10314222D01*
X8827682Y-10314222D02*
X8837206Y-10304698D01*
X8837206Y-10304698D02*
X8856253Y-10295174D01*
X8856253Y-10295174D02*
X8903872Y-10295174D01*
X8903872Y-10295174D02*
X8922920Y-10304698D01*
X8922920Y-10304698D02*
X8932444Y-10314222D01*
X8932444Y-10314222D02*
X8941968Y-10333270D01*
X8941968Y-10333270D02*
X8941968Y-10380889D01*
X8941968Y-10380889D02*
X8932444Y-10399936D01*
X8932444Y-10399936D02*
X8922920Y-10409460D01*
X8922920Y-10409460D02*
X8903872Y-10418984D01*
X8903872Y-10418984D02*
X8856253Y-10418984D01*
X8856253Y-10418984D02*
X8837206Y-10409460D01*
X8837206Y-10409460D02*
X8827682Y-10399936D01*
X9008634Y-10218984D02*
X9141968Y-10218984D01*
X9141968Y-10218984D02*
X9056253Y-10418984D01*
X9208634Y-10218984D02*
X9208634Y-10257079D01*
X9284825Y-10218984D02*
X9284825Y-10257079D01*
X9580063Y-10495174D02*
X9570539Y-10485650D01*
X9570539Y-10485650D02*
X9551491Y-10457079D01*
X9551491Y-10457079D02*
X9541968Y-10438031D01*
X9541968Y-10438031D02*
X9532444Y-10409460D01*
X9532444Y-10409460D02*
X9522920Y-10361841D01*
X9522920Y-10361841D02*
X9522920Y-10323746D01*
X9522920Y-10323746D02*
X9532444Y-10276127D01*
X9532444Y-10276127D02*
X9541968Y-10247555D01*
X9541968Y-10247555D02*
X9551491Y-10228508D01*
X9551491Y-10228508D02*
X9570539Y-10199936D01*
X9570539Y-10199936D02*
X9580063Y-10190412D01*
X9741968Y-10218984D02*
X9703872Y-10218984D01*
X9703872Y-10218984D02*
X9684825Y-10228508D01*
X9684825Y-10228508D02*
X9675301Y-10238031D01*
X9675301Y-10238031D02*
X9656253Y-10266603D01*
X9656253Y-10266603D02*
X9646730Y-10304698D01*
X9646730Y-10304698D02*
X9646730Y-10380889D01*
X9646730Y-10380889D02*
X9656253Y-10399936D01*
X9656253Y-10399936D02*
X9665777Y-10409460D01*
X9665777Y-10409460D02*
X9684825Y-10418984D01*
X9684825Y-10418984D02*
X9722920Y-10418984D01*
X9722920Y-10418984D02*
X9741968Y-10409460D01*
X9741968Y-10409460D02*
X9751491Y-10399936D01*
X9751491Y-10399936D02*
X9761015Y-10380889D01*
X9761015Y-10380889D02*
X9761015Y-10333270D01*
X9761015Y-10333270D02*
X9751491Y-10314222D01*
X9751491Y-10314222D02*
X9741968Y-10304698D01*
X9741968Y-10304698D02*
X9722920Y-10295174D01*
X9722920Y-10295174D02*
X9684825Y-10295174D01*
X9684825Y-10295174D02*
X9665777Y-10304698D01*
X9665777Y-10304698D02*
X9656253Y-10314222D01*
X9656253Y-10314222D02*
X9646730Y-10333270D01*
X9951491Y-10418984D02*
X9837206Y-10418984D01*
X9894349Y-10418984D02*
X9894349Y-10218984D01*
X9894349Y-10218984D02*
X9875301Y-10247555D01*
X9875301Y-10247555D02*
X9856253Y-10266603D01*
X9856253Y-10266603D02*
X9837206Y-10276127D01*
X10189587Y-10418984D02*
X10189587Y-10218984D01*
X10275301Y-10418984D02*
X10275301Y-10314222D01*
X10275301Y-10314222D02*
X10265777Y-10295174D01*
X10265777Y-10295174D02*
X10246730Y-10285650D01*
X10246730Y-10285650D02*
X10218158Y-10285650D01*
X10218158Y-10285650D02*
X10199111Y-10295174D01*
X10199111Y-10295174D02*
X10189587Y-10304698D01*
X10399111Y-10418984D02*
X10380063Y-10409460D01*
X10380063Y-10409460D02*
X10370539Y-10399936D01*
X10370539Y-10399936D02*
X10361015Y-10380889D01*
X10361015Y-10380889D02*
X10361015Y-10323746D01*
X10361015Y-10323746D02*
X10370539Y-10304698D01*
X10370539Y-10304698D02*
X10380063Y-10295174D01*
X10380063Y-10295174D02*
X10399111Y-10285650D01*
X10399111Y-10285650D02*
X10427682Y-10285650D01*
X10427682Y-10285650D02*
X10446730Y-10295174D01*
X10446730Y-10295174D02*
X10456253Y-10304698D01*
X10456253Y-10304698D02*
X10465777Y-10323746D01*
X10465777Y-10323746D02*
X10465777Y-10380889D01*
X10465777Y-10380889D02*
X10456253Y-10399936D01*
X10456253Y-10399936D02*
X10446730Y-10409460D01*
X10446730Y-10409460D02*
X10427682Y-10418984D01*
X10427682Y-10418984D02*
X10399111Y-10418984D01*
X10580063Y-10418984D02*
X10561015Y-10409460D01*
X10561015Y-10409460D02*
X10551492Y-10390412D01*
X10551492Y-10390412D02*
X10551492Y-10218984D01*
X10732444Y-10409460D02*
X10713396Y-10418984D01*
X10713396Y-10418984D02*
X10675301Y-10418984D01*
X10675301Y-10418984D02*
X10656253Y-10409460D01*
X10656253Y-10409460D02*
X10646730Y-10390412D01*
X10646730Y-10390412D02*
X10646730Y-10314222D01*
X10646730Y-10314222D02*
X10656253Y-10295174D01*
X10656253Y-10295174D02*
X10675301Y-10285650D01*
X10675301Y-10285650D02*
X10713396Y-10285650D01*
X10713396Y-10285650D02*
X10732444Y-10295174D01*
X10732444Y-10295174D02*
X10741968Y-10314222D01*
X10741968Y-10314222D02*
X10741968Y-10333270D01*
X10741968Y-10333270D02*
X10646730Y-10352317D01*
X10818158Y-10409460D02*
X10837206Y-10418984D01*
X10837206Y-10418984D02*
X10875301Y-10418984D01*
X10875301Y-10418984D02*
X10894349Y-10409460D01*
X10894349Y-10409460D02*
X10903873Y-10390412D01*
X10903873Y-10390412D02*
X10903873Y-10380889D01*
X10903873Y-10380889D02*
X10894349Y-10361841D01*
X10894349Y-10361841D02*
X10875301Y-10352317D01*
X10875301Y-10352317D02*
X10846730Y-10352317D01*
X10846730Y-10352317D02*
X10827682Y-10342793D01*
X10827682Y-10342793D02*
X10818158Y-10323746D01*
X10818158Y-10323746D02*
X10818158Y-10314222D01*
X10818158Y-10314222D02*
X10827682Y-10295174D01*
X10827682Y-10295174D02*
X10846730Y-10285650D01*
X10846730Y-10285650D02*
X10875301Y-10285650D01*
X10875301Y-10285650D02*
X10894349Y-10295174D01*
X10970539Y-10495174D02*
X10980063Y-10485650D01*
X10980063Y-10485650D02*
X10999111Y-10457079D01*
X10999111Y-10457079D02*
X11008634Y-10438031D01*
X11008634Y-10438031D02*
X11018158Y-10409460D01*
X11018158Y-10409460D02*
X11027682Y-10361841D01*
X11027682Y-10361841D02*
X11027682Y-10323746D01*
X11027682Y-10323746D02*
X11018158Y-10276127D01*
X11018158Y-10276127D02*
X11008634Y-10247555D01*
X11008634Y-10247555D02*
X10999111Y-10228508D01*
X10999111Y-10228508D02*
X10980063Y-10199936D01*
X10980063Y-10199936D02*
X10970539Y-10190412D01*
D13*
X6005000Y-10591500D02*
G75*
G03*
X6005000Y-10591500I-30000J0D01*
G01*
D11*
X6303872Y-10482984D02*
X6322920Y-10482984D01*
X6322920Y-10482984D02*
X6341967Y-10492508D01*
X6341967Y-10492508D02*
X6351491Y-10502031D01*
X6351491Y-10502031D02*
X6361015Y-10521079D01*
X6361015Y-10521079D02*
X6370539Y-10559174D01*
X6370539Y-10559174D02*
X6370539Y-10606793D01*
X6370539Y-10606793D02*
X6361015Y-10644889D01*
X6361015Y-10644889D02*
X6351491Y-10663936D01*
X6351491Y-10663936D02*
X6341967Y-10673460D01*
X6341967Y-10673460D02*
X6322920Y-10682984D01*
X6322920Y-10682984D02*
X6303872Y-10682984D01*
X6303872Y-10682984D02*
X6284824Y-10673460D01*
X6284824Y-10673460D02*
X6275301Y-10663936D01*
X6275301Y-10663936D02*
X6265777Y-10644889D01*
X6265777Y-10644889D02*
X6256253Y-10606793D01*
X6256253Y-10606793D02*
X6256253Y-10559174D01*
X6256253Y-10559174D02*
X6265777Y-10521079D01*
X6265777Y-10521079D02*
X6275301Y-10502031D01*
X6275301Y-10502031D02*
X6284824Y-10492508D01*
X6284824Y-10492508D02*
X6303872Y-10482984D01*
X6456253Y-10663936D02*
X6465777Y-10673460D01*
X6465777Y-10673460D02*
X6456253Y-10682984D01*
X6456253Y-10682984D02*
X6446729Y-10673460D01*
X6446729Y-10673460D02*
X6456253Y-10663936D01*
X6456253Y-10663936D02*
X6456253Y-10682984D01*
X6637205Y-10482984D02*
X6599110Y-10482984D01*
X6599110Y-10482984D02*
X6580062Y-10492508D01*
X6580062Y-10492508D02*
X6570539Y-10502031D01*
X6570539Y-10502031D02*
X6551491Y-10530603D01*
X6551491Y-10530603D02*
X6541967Y-10568698D01*
X6541967Y-10568698D02*
X6541967Y-10644889D01*
X6541967Y-10644889D02*
X6551491Y-10663936D01*
X6551491Y-10663936D02*
X6561015Y-10673460D01*
X6561015Y-10673460D02*
X6580062Y-10682984D01*
X6580062Y-10682984D02*
X6618158Y-10682984D01*
X6618158Y-10682984D02*
X6637205Y-10673460D01*
X6637205Y-10673460D02*
X6646729Y-10663936D01*
X6646729Y-10663936D02*
X6656253Y-10644889D01*
X6656253Y-10644889D02*
X6656253Y-10597270D01*
X6656253Y-10597270D02*
X6646729Y-10578222D01*
X6646729Y-10578222D02*
X6637205Y-10568698D01*
X6637205Y-10568698D02*
X6618158Y-10559174D01*
X6618158Y-10559174D02*
X6580062Y-10559174D01*
X6580062Y-10559174D02*
X6561015Y-10568698D01*
X6561015Y-10568698D02*
X6551491Y-10578222D01*
X6551491Y-10578222D02*
X6541967Y-10597270D01*
X6780062Y-10482984D02*
X6799110Y-10482984D01*
X6799110Y-10482984D02*
X6818158Y-10492508D01*
X6818158Y-10492508D02*
X6827682Y-10502031D01*
X6827682Y-10502031D02*
X6837205Y-10521079D01*
X6837205Y-10521079D02*
X6846729Y-10559174D01*
X6846729Y-10559174D02*
X6846729Y-10606793D01*
X6846729Y-10606793D02*
X6837205Y-10644889D01*
X6837205Y-10644889D02*
X6827682Y-10663936D01*
X6827682Y-10663936D02*
X6818158Y-10673460D01*
X6818158Y-10673460D02*
X6799110Y-10682984D01*
X6799110Y-10682984D02*
X6780062Y-10682984D01*
X6780062Y-10682984D02*
X6761015Y-10673460D01*
X6761015Y-10673460D02*
X6751491Y-10663936D01*
X6751491Y-10663936D02*
X6741967Y-10644889D01*
X6741967Y-10644889D02*
X6732443Y-10606793D01*
X6732443Y-10606793D02*
X6732443Y-10559174D01*
X6732443Y-10559174D02*
X6741967Y-10521079D01*
X6741967Y-10521079D02*
X6751491Y-10502031D01*
X6751491Y-10502031D02*
X6761015Y-10492508D01*
X6761015Y-10492508D02*
X6780062Y-10482984D01*
X6970539Y-10482984D02*
X6989586Y-10482984D01*
X6989586Y-10482984D02*
X7008634Y-10492508D01*
X7008634Y-10492508D02*
X7018158Y-10502031D01*
X7018158Y-10502031D02*
X7027682Y-10521079D01*
X7027682Y-10521079D02*
X7037205Y-10559174D01*
X7037205Y-10559174D02*
X7037205Y-10606793D01*
X7037205Y-10606793D02*
X7027682Y-10644889D01*
X7027682Y-10644889D02*
X7018158Y-10663936D01*
X7018158Y-10663936D02*
X7008634Y-10673460D01*
X7008634Y-10673460D02*
X6989586Y-10682984D01*
X6989586Y-10682984D02*
X6970539Y-10682984D01*
X6970539Y-10682984D02*
X6951491Y-10673460D01*
X6951491Y-10673460D02*
X6941967Y-10663936D01*
X6941967Y-10663936D02*
X6932443Y-10644889D01*
X6932443Y-10644889D02*
X6922920Y-10606793D01*
X6922920Y-10606793D02*
X6922920Y-10559174D01*
X6922920Y-10559174D02*
X6932443Y-10521079D01*
X6932443Y-10521079D02*
X6941967Y-10502031D01*
X6941967Y-10502031D02*
X6951491Y-10492508D01*
X6951491Y-10492508D02*
X6970539Y-10482984D01*
X7122920Y-10682984D02*
X7122920Y-10549650D01*
X7122920Y-10568698D02*
X7132443Y-10559174D01*
X7132443Y-10559174D02*
X7151491Y-10549650D01*
X7151491Y-10549650D02*
X7180063Y-10549650D01*
X7180063Y-10549650D02*
X7199110Y-10559174D01*
X7199110Y-10559174D02*
X7208634Y-10578222D01*
X7208634Y-10578222D02*
X7208634Y-10682984D01*
X7208634Y-10578222D02*
X7218158Y-10559174D01*
X7218158Y-10559174D02*
X7237205Y-10549650D01*
X7237205Y-10549650D02*
X7265777Y-10549650D01*
X7265777Y-10549650D02*
X7284824Y-10559174D01*
X7284824Y-10559174D02*
X7294348Y-10578222D01*
X7294348Y-10578222D02*
X7294348Y-10682984D01*
X7389586Y-10682984D02*
X7389586Y-10549650D01*
X7389586Y-10568698D02*
X7399110Y-10559174D01*
X7399110Y-10559174D02*
X7418158Y-10549650D01*
X7418158Y-10549650D02*
X7446729Y-10549650D01*
X7446729Y-10549650D02*
X7465777Y-10559174D01*
X7465777Y-10559174D02*
X7475301Y-10578222D01*
X7475301Y-10578222D02*
X7475301Y-10682984D01*
X7475301Y-10578222D02*
X7484824Y-10559174D01*
X7484824Y-10559174D02*
X7503872Y-10549650D01*
X7503872Y-10549650D02*
X7532443Y-10549650D01*
X7532443Y-10549650D02*
X7551491Y-10559174D01*
X7551491Y-10559174D02*
X7561015Y-10578222D01*
X7561015Y-10578222D02*
X7561015Y-10682984D01*
X7951491Y-10473460D02*
X7780063Y-10730603D01*
X8208634Y-10482984D02*
X8227682Y-10482984D01*
X8227682Y-10482984D02*
X8246729Y-10492508D01*
X8246729Y-10492508D02*
X8256253Y-10502031D01*
X8256253Y-10502031D02*
X8265777Y-10521079D01*
X8265777Y-10521079D02*
X8275301Y-10559174D01*
X8275301Y-10559174D02*
X8275301Y-10606793D01*
X8275301Y-10606793D02*
X8265777Y-10644889D01*
X8265777Y-10644889D02*
X8256253Y-10663936D01*
X8256253Y-10663936D02*
X8246729Y-10673460D01*
X8246729Y-10673460D02*
X8227682Y-10682984D01*
X8227682Y-10682984D02*
X8208634Y-10682984D01*
X8208634Y-10682984D02*
X8189586Y-10673460D01*
X8189586Y-10673460D02*
X8180063Y-10663936D01*
X8180063Y-10663936D02*
X8170539Y-10644889D01*
X8170539Y-10644889D02*
X8161015Y-10606793D01*
X8161015Y-10606793D02*
X8161015Y-10559174D01*
X8161015Y-10559174D02*
X8170539Y-10521079D01*
X8170539Y-10521079D02*
X8180063Y-10502031D01*
X8180063Y-10502031D02*
X8189586Y-10492508D01*
X8189586Y-10492508D02*
X8208634Y-10482984D01*
X8361015Y-10663936D02*
X8370539Y-10673460D01*
X8370539Y-10673460D02*
X8361015Y-10682984D01*
X8361015Y-10682984D02*
X8351491Y-10673460D01*
X8351491Y-10673460D02*
X8361015Y-10663936D01*
X8361015Y-10663936D02*
X8361015Y-10682984D01*
X8494348Y-10482984D02*
X8513396Y-10482984D01*
X8513396Y-10482984D02*
X8532444Y-10492508D01*
X8532444Y-10492508D02*
X8541968Y-10502031D01*
X8541968Y-10502031D02*
X8551491Y-10521079D01*
X8551491Y-10521079D02*
X8561015Y-10559174D01*
X8561015Y-10559174D02*
X8561015Y-10606793D01*
X8561015Y-10606793D02*
X8551491Y-10644889D01*
X8551491Y-10644889D02*
X8541968Y-10663936D01*
X8541968Y-10663936D02*
X8532444Y-10673460D01*
X8532444Y-10673460D02*
X8513396Y-10682984D01*
X8513396Y-10682984D02*
X8494348Y-10682984D01*
X8494348Y-10682984D02*
X8475301Y-10673460D01*
X8475301Y-10673460D02*
X8465777Y-10663936D01*
X8465777Y-10663936D02*
X8456253Y-10644889D01*
X8456253Y-10644889D02*
X8446729Y-10606793D01*
X8446729Y-10606793D02*
X8446729Y-10559174D01*
X8446729Y-10559174D02*
X8456253Y-10521079D01*
X8456253Y-10521079D02*
X8465777Y-10502031D01*
X8465777Y-10502031D02*
X8475301Y-10492508D01*
X8475301Y-10492508D02*
X8494348Y-10482984D01*
X8637206Y-10502031D02*
X8646729Y-10492508D01*
X8646729Y-10492508D02*
X8665777Y-10482984D01*
X8665777Y-10482984D02*
X8713396Y-10482984D01*
X8713396Y-10482984D02*
X8732444Y-10492508D01*
X8732444Y-10492508D02*
X8741968Y-10502031D01*
X8741968Y-10502031D02*
X8751491Y-10521079D01*
X8751491Y-10521079D02*
X8751491Y-10540127D01*
X8751491Y-10540127D02*
X8741968Y-10568698D01*
X8741968Y-10568698D02*
X8627682Y-10682984D01*
X8627682Y-10682984D02*
X8751491Y-10682984D01*
X8818158Y-10482984D02*
X8941968Y-10482984D01*
X8941968Y-10482984D02*
X8875301Y-10559174D01*
X8875301Y-10559174D02*
X8903872Y-10559174D01*
X8903872Y-10559174D02*
X8922920Y-10568698D01*
X8922920Y-10568698D02*
X8932444Y-10578222D01*
X8932444Y-10578222D02*
X8941968Y-10597270D01*
X8941968Y-10597270D02*
X8941968Y-10644889D01*
X8941968Y-10644889D02*
X8932444Y-10663936D01*
X8932444Y-10663936D02*
X8922920Y-10673460D01*
X8922920Y-10673460D02*
X8903872Y-10682984D01*
X8903872Y-10682984D02*
X8846729Y-10682984D01*
X8846729Y-10682984D02*
X8827682Y-10673460D01*
X8827682Y-10673460D02*
X8818158Y-10663936D01*
X9113396Y-10482984D02*
X9075301Y-10482984D01*
X9075301Y-10482984D02*
X9056253Y-10492508D01*
X9056253Y-10492508D02*
X9046729Y-10502031D01*
X9046729Y-10502031D02*
X9027682Y-10530603D01*
X9027682Y-10530603D02*
X9018158Y-10568698D01*
X9018158Y-10568698D02*
X9018158Y-10644889D01*
X9018158Y-10644889D02*
X9027682Y-10663936D01*
X9027682Y-10663936D02*
X9037206Y-10673460D01*
X9037206Y-10673460D02*
X9056253Y-10682984D01*
X9056253Y-10682984D02*
X9094349Y-10682984D01*
X9094349Y-10682984D02*
X9113396Y-10673460D01*
X9113396Y-10673460D02*
X9122920Y-10663936D01*
X9122920Y-10663936D02*
X9132444Y-10644889D01*
X9132444Y-10644889D02*
X9132444Y-10597270D01*
X9132444Y-10597270D02*
X9122920Y-10578222D01*
X9122920Y-10578222D02*
X9113396Y-10568698D01*
X9113396Y-10568698D02*
X9094349Y-10559174D01*
X9094349Y-10559174D02*
X9056253Y-10559174D01*
X9056253Y-10559174D02*
X9037206Y-10568698D01*
X9037206Y-10568698D02*
X9027682Y-10578222D01*
X9027682Y-10578222D02*
X9018158Y-10597270D01*
X9208634Y-10482984D02*
X9208634Y-10521079D01*
X9284825Y-10482984D02*
X9284825Y-10521079D01*
X9580063Y-10759174D02*
X9570539Y-10749650D01*
X9570539Y-10749650D02*
X9551491Y-10721079D01*
X9551491Y-10721079D02*
X9541968Y-10702031D01*
X9541968Y-10702031D02*
X9532444Y-10673460D01*
X9532444Y-10673460D02*
X9522920Y-10625841D01*
X9522920Y-10625841D02*
X9522920Y-10587746D01*
X9522920Y-10587746D02*
X9532444Y-10540127D01*
X9532444Y-10540127D02*
X9541968Y-10511555D01*
X9541968Y-10511555D02*
X9551491Y-10492508D01*
X9551491Y-10492508D02*
X9570539Y-10463936D01*
X9570539Y-10463936D02*
X9580063Y-10454412D01*
X9646730Y-10502031D02*
X9656253Y-10492508D01*
X9656253Y-10492508D02*
X9675301Y-10482984D01*
X9675301Y-10482984D02*
X9722920Y-10482984D01*
X9722920Y-10482984D02*
X9741968Y-10492508D01*
X9741968Y-10492508D02*
X9751491Y-10502031D01*
X9751491Y-10502031D02*
X9761015Y-10521079D01*
X9761015Y-10521079D02*
X9761015Y-10540127D01*
X9761015Y-10540127D02*
X9751491Y-10568698D01*
X9751491Y-10568698D02*
X9637206Y-10682984D01*
X9637206Y-10682984D02*
X9761015Y-10682984D01*
X9999111Y-10682984D02*
X9999111Y-10482984D01*
X10084825Y-10682984D02*
X10084825Y-10578222D01*
X10084825Y-10578222D02*
X10075301Y-10559174D01*
X10075301Y-10559174D02*
X10056253Y-10549650D01*
X10056253Y-10549650D02*
X10027682Y-10549650D01*
X10027682Y-10549650D02*
X10008634Y-10559174D01*
X10008634Y-10559174D02*
X9999111Y-10568698D01*
X10208634Y-10682984D02*
X10189587Y-10673460D01*
X10189587Y-10673460D02*
X10180063Y-10663936D01*
X10180063Y-10663936D02*
X10170539Y-10644889D01*
X10170539Y-10644889D02*
X10170539Y-10587746D01*
X10170539Y-10587746D02*
X10180063Y-10568698D01*
X10180063Y-10568698D02*
X10189587Y-10559174D01*
X10189587Y-10559174D02*
X10208634Y-10549650D01*
X10208634Y-10549650D02*
X10237206Y-10549650D01*
X10237206Y-10549650D02*
X10256253Y-10559174D01*
X10256253Y-10559174D02*
X10265777Y-10568698D01*
X10265777Y-10568698D02*
X10275301Y-10587746D01*
X10275301Y-10587746D02*
X10275301Y-10644889D01*
X10275301Y-10644889D02*
X10265777Y-10663936D01*
X10265777Y-10663936D02*
X10256253Y-10673460D01*
X10256253Y-10673460D02*
X10237206Y-10682984D01*
X10237206Y-10682984D02*
X10208634Y-10682984D01*
X10389587Y-10682984D02*
X10370539Y-10673460D01*
X10370539Y-10673460D02*
X10361015Y-10654412D01*
X10361015Y-10654412D02*
X10361015Y-10482984D01*
X10541968Y-10673460D02*
X10522920Y-10682984D01*
X10522920Y-10682984D02*
X10484825Y-10682984D01*
X10484825Y-10682984D02*
X10465777Y-10673460D01*
X10465777Y-10673460D02*
X10456253Y-10654412D01*
X10456253Y-10654412D02*
X10456253Y-10578222D01*
X10456253Y-10578222D02*
X10465777Y-10559174D01*
X10465777Y-10559174D02*
X10484825Y-10549650D01*
X10484825Y-10549650D02*
X10522920Y-10549650D01*
X10522920Y-10549650D02*
X10541968Y-10559174D01*
X10541968Y-10559174D02*
X10551492Y-10578222D01*
X10551492Y-10578222D02*
X10551492Y-10597270D01*
X10551492Y-10597270D02*
X10456253Y-10616317D01*
X10627682Y-10673460D02*
X10646730Y-10682984D01*
X10646730Y-10682984D02*
X10684825Y-10682984D01*
X10684825Y-10682984D02*
X10703873Y-10673460D01*
X10703873Y-10673460D02*
X10713396Y-10654412D01*
X10713396Y-10654412D02*
X10713396Y-10644889D01*
X10713396Y-10644889D02*
X10703873Y-10625841D01*
X10703873Y-10625841D02*
X10684825Y-10616317D01*
X10684825Y-10616317D02*
X10656253Y-10616317D01*
X10656253Y-10616317D02*
X10637206Y-10606793D01*
X10637206Y-10606793D02*
X10627682Y-10587746D01*
X10627682Y-10587746D02*
X10627682Y-10578222D01*
X10627682Y-10578222D02*
X10637206Y-10559174D01*
X10637206Y-10559174D02*
X10656253Y-10549650D01*
X10656253Y-10549650D02*
X10684825Y-10549650D01*
X10684825Y-10549650D02*
X10703873Y-10559174D01*
X10780063Y-10759174D02*
X10789587Y-10749650D01*
X10789587Y-10749650D02*
X10808634Y-10721079D01*
X10808634Y-10721079D02*
X10818158Y-10702031D01*
X10818158Y-10702031D02*
X10827682Y-10673460D01*
X10827682Y-10673460D02*
X10837206Y-10625841D01*
X10837206Y-10625841D02*
X10837206Y-10587746D01*
X10837206Y-10587746D02*
X10827682Y-10540127D01*
X10827682Y-10540127D02*
X10818158Y-10511555D01*
X10818158Y-10511555D02*
X10808634Y-10492508D01*
X10808634Y-10492508D02*
X10789587Y-10463936D01*
X10789587Y-10463936D02*
X10780063Y-10454412D01*
D14*
X5970000Y-10820500D02*
X5970000Y-10890500D01*
X5935000Y-10855500D02*
X6005000Y-10855500D01*
D11*
X6303872Y-10746984D02*
X6322920Y-10746984D01*
X6322920Y-10746984D02*
X6341967Y-10756508D01*
X6341967Y-10756508D02*
X6351491Y-10766031D01*
X6351491Y-10766031D02*
X6361015Y-10785079D01*
X6361015Y-10785079D02*
X6370539Y-10823174D01*
X6370539Y-10823174D02*
X6370539Y-10870793D01*
X6370539Y-10870793D02*
X6361015Y-10908889D01*
X6361015Y-10908889D02*
X6351491Y-10927936D01*
X6351491Y-10927936D02*
X6341967Y-10937460D01*
X6341967Y-10937460D02*
X6322920Y-10946984D01*
X6322920Y-10946984D02*
X6303872Y-10946984D01*
X6303872Y-10946984D02*
X6284824Y-10937460D01*
X6284824Y-10937460D02*
X6275301Y-10927936D01*
X6275301Y-10927936D02*
X6265777Y-10908889D01*
X6265777Y-10908889D02*
X6256253Y-10870793D01*
X6256253Y-10870793D02*
X6256253Y-10823174D01*
X6256253Y-10823174D02*
X6265777Y-10785079D01*
X6265777Y-10785079D02*
X6275301Y-10766031D01*
X6275301Y-10766031D02*
X6284824Y-10756508D01*
X6284824Y-10756508D02*
X6303872Y-10746984D01*
X6456253Y-10927936D02*
X6465777Y-10937460D01*
X6465777Y-10937460D02*
X6456253Y-10946984D01*
X6456253Y-10946984D02*
X6446729Y-10937460D01*
X6446729Y-10937460D02*
X6456253Y-10927936D01*
X6456253Y-10927936D02*
X6456253Y-10946984D01*
X6532443Y-10746984D02*
X6665777Y-10746984D01*
X6665777Y-10746984D02*
X6580062Y-10946984D01*
X6780062Y-10746984D02*
X6799110Y-10746984D01*
X6799110Y-10746984D02*
X6818158Y-10756508D01*
X6818158Y-10756508D02*
X6827682Y-10766031D01*
X6827682Y-10766031D02*
X6837205Y-10785079D01*
X6837205Y-10785079D02*
X6846729Y-10823174D01*
X6846729Y-10823174D02*
X6846729Y-10870793D01*
X6846729Y-10870793D02*
X6837205Y-10908889D01*
X6837205Y-10908889D02*
X6827682Y-10927936D01*
X6827682Y-10927936D02*
X6818158Y-10937460D01*
X6818158Y-10937460D02*
X6799110Y-10946984D01*
X6799110Y-10946984D02*
X6780062Y-10946984D01*
X6780062Y-10946984D02*
X6761015Y-10937460D01*
X6761015Y-10937460D02*
X6751491Y-10927936D01*
X6751491Y-10927936D02*
X6741967Y-10908889D01*
X6741967Y-10908889D02*
X6732443Y-10870793D01*
X6732443Y-10870793D02*
X6732443Y-10823174D01*
X6732443Y-10823174D02*
X6741967Y-10785079D01*
X6741967Y-10785079D02*
X6751491Y-10766031D01*
X6751491Y-10766031D02*
X6761015Y-10756508D01*
X6761015Y-10756508D02*
X6780062Y-10746984D01*
X6970539Y-10746984D02*
X6989586Y-10746984D01*
X6989586Y-10746984D02*
X7008634Y-10756508D01*
X7008634Y-10756508D02*
X7018158Y-10766031D01*
X7018158Y-10766031D02*
X7027682Y-10785079D01*
X7027682Y-10785079D02*
X7037205Y-10823174D01*
X7037205Y-10823174D02*
X7037205Y-10870793D01*
X7037205Y-10870793D02*
X7027682Y-10908889D01*
X7027682Y-10908889D02*
X7018158Y-10927936D01*
X7018158Y-10927936D02*
X7008634Y-10937460D01*
X7008634Y-10937460D02*
X6989586Y-10946984D01*
X6989586Y-10946984D02*
X6970539Y-10946984D01*
X6970539Y-10946984D02*
X6951491Y-10937460D01*
X6951491Y-10937460D02*
X6941967Y-10927936D01*
X6941967Y-10927936D02*
X6932443Y-10908889D01*
X6932443Y-10908889D02*
X6922920Y-10870793D01*
X6922920Y-10870793D02*
X6922920Y-10823174D01*
X6922920Y-10823174D02*
X6932443Y-10785079D01*
X6932443Y-10785079D02*
X6941967Y-10766031D01*
X6941967Y-10766031D02*
X6951491Y-10756508D01*
X6951491Y-10756508D02*
X6970539Y-10746984D01*
X7122920Y-10946984D02*
X7122920Y-10813650D01*
X7122920Y-10832698D02*
X7132443Y-10823174D01*
X7132443Y-10823174D02*
X7151491Y-10813650D01*
X7151491Y-10813650D02*
X7180063Y-10813650D01*
X7180063Y-10813650D02*
X7199110Y-10823174D01*
X7199110Y-10823174D02*
X7208634Y-10842222D01*
X7208634Y-10842222D02*
X7208634Y-10946984D01*
X7208634Y-10842222D02*
X7218158Y-10823174D01*
X7218158Y-10823174D02*
X7237205Y-10813650D01*
X7237205Y-10813650D02*
X7265777Y-10813650D01*
X7265777Y-10813650D02*
X7284824Y-10823174D01*
X7284824Y-10823174D02*
X7294348Y-10842222D01*
X7294348Y-10842222D02*
X7294348Y-10946984D01*
X7389586Y-10946984D02*
X7389586Y-10813650D01*
X7389586Y-10832698D02*
X7399110Y-10823174D01*
X7399110Y-10823174D02*
X7418158Y-10813650D01*
X7418158Y-10813650D02*
X7446729Y-10813650D01*
X7446729Y-10813650D02*
X7465777Y-10823174D01*
X7465777Y-10823174D02*
X7475301Y-10842222D01*
X7475301Y-10842222D02*
X7475301Y-10946984D01*
X7475301Y-10842222D02*
X7484824Y-10823174D01*
X7484824Y-10823174D02*
X7503872Y-10813650D01*
X7503872Y-10813650D02*
X7532443Y-10813650D01*
X7532443Y-10813650D02*
X7551491Y-10823174D01*
X7551491Y-10823174D02*
X7561015Y-10842222D01*
X7561015Y-10842222D02*
X7561015Y-10946984D01*
X7951491Y-10737460D02*
X7780063Y-10994603D01*
X8208634Y-10746984D02*
X8227682Y-10746984D01*
X8227682Y-10746984D02*
X8246729Y-10756508D01*
X8246729Y-10756508D02*
X8256253Y-10766031D01*
X8256253Y-10766031D02*
X8265777Y-10785079D01*
X8265777Y-10785079D02*
X8275301Y-10823174D01*
X8275301Y-10823174D02*
X8275301Y-10870793D01*
X8275301Y-10870793D02*
X8265777Y-10908889D01*
X8265777Y-10908889D02*
X8256253Y-10927936D01*
X8256253Y-10927936D02*
X8246729Y-10937460D01*
X8246729Y-10937460D02*
X8227682Y-10946984D01*
X8227682Y-10946984D02*
X8208634Y-10946984D01*
X8208634Y-10946984D02*
X8189586Y-10937460D01*
X8189586Y-10937460D02*
X8180063Y-10927936D01*
X8180063Y-10927936D02*
X8170539Y-10908889D01*
X8170539Y-10908889D02*
X8161015Y-10870793D01*
X8161015Y-10870793D02*
X8161015Y-10823174D01*
X8161015Y-10823174D02*
X8170539Y-10785079D01*
X8170539Y-10785079D02*
X8180063Y-10766031D01*
X8180063Y-10766031D02*
X8189586Y-10756508D01*
X8189586Y-10756508D02*
X8208634Y-10746984D01*
X8361015Y-10927936D02*
X8370539Y-10937460D01*
X8370539Y-10937460D02*
X8361015Y-10946984D01*
X8361015Y-10946984D02*
X8351491Y-10937460D01*
X8351491Y-10937460D02*
X8361015Y-10927936D01*
X8361015Y-10927936D02*
X8361015Y-10946984D01*
X8494348Y-10746984D02*
X8513396Y-10746984D01*
X8513396Y-10746984D02*
X8532444Y-10756508D01*
X8532444Y-10756508D02*
X8541968Y-10766031D01*
X8541968Y-10766031D02*
X8551491Y-10785079D01*
X8551491Y-10785079D02*
X8561015Y-10823174D01*
X8561015Y-10823174D02*
X8561015Y-10870793D01*
X8561015Y-10870793D02*
X8551491Y-10908889D01*
X8551491Y-10908889D02*
X8541968Y-10927936D01*
X8541968Y-10927936D02*
X8532444Y-10937460D01*
X8532444Y-10937460D02*
X8513396Y-10946984D01*
X8513396Y-10946984D02*
X8494348Y-10946984D01*
X8494348Y-10946984D02*
X8475301Y-10937460D01*
X8475301Y-10937460D02*
X8465777Y-10927936D01*
X8465777Y-10927936D02*
X8456253Y-10908889D01*
X8456253Y-10908889D02*
X8446729Y-10870793D01*
X8446729Y-10870793D02*
X8446729Y-10823174D01*
X8446729Y-10823174D02*
X8456253Y-10785079D01*
X8456253Y-10785079D02*
X8465777Y-10766031D01*
X8465777Y-10766031D02*
X8475301Y-10756508D01*
X8475301Y-10756508D02*
X8494348Y-10746984D01*
X8637206Y-10766031D02*
X8646729Y-10756508D01*
X8646729Y-10756508D02*
X8665777Y-10746984D01*
X8665777Y-10746984D02*
X8713396Y-10746984D01*
X8713396Y-10746984D02*
X8732444Y-10756508D01*
X8732444Y-10756508D02*
X8741968Y-10766031D01*
X8741968Y-10766031D02*
X8751491Y-10785079D01*
X8751491Y-10785079D02*
X8751491Y-10804127D01*
X8751491Y-10804127D02*
X8741968Y-10832698D01*
X8741968Y-10832698D02*
X8627682Y-10946984D01*
X8627682Y-10946984D02*
X8751491Y-10946984D01*
X8818158Y-10746984D02*
X8951491Y-10746984D01*
X8951491Y-10746984D02*
X8865777Y-10946984D01*
X9113396Y-10746984D02*
X9075301Y-10746984D01*
X9075301Y-10746984D02*
X9056253Y-10756508D01*
X9056253Y-10756508D02*
X9046729Y-10766031D01*
X9046729Y-10766031D02*
X9027682Y-10794603D01*
X9027682Y-10794603D02*
X9018158Y-10832698D01*
X9018158Y-10832698D02*
X9018158Y-10908889D01*
X9018158Y-10908889D02*
X9027682Y-10927936D01*
X9027682Y-10927936D02*
X9037206Y-10937460D01*
X9037206Y-10937460D02*
X9056253Y-10946984D01*
X9056253Y-10946984D02*
X9094349Y-10946984D01*
X9094349Y-10946984D02*
X9113396Y-10937460D01*
X9113396Y-10937460D02*
X9122920Y-10927936D01*
X9122920Y-10927936D02*
X9132444Y-10908889D01*
X9132444Y-10908889D02*
X9132444Y-10861270D01*
X9132444Y-10861270D02*
X9122920Y-10842222D01*
X9122920Y-10842222D02*
X9113396Y-10832698D01*
X9113396Y-10832698D02*
X9094349Y-10823174D01*
X9094349Y-10823174D02*
X9056253Y-10823174D01*
X9056253Y-10823174D02*
X9037206Y-10832698D01*
X9037206Y-10832698D02*
X9027682Y-10842222D01*
X9027682Y-10842222D02*
X9018158Y-10861270D01*
X9208634Y-10746984D02*
X9208634Y-10785079D01*
X9284825Y-10746984D02*
X9284825Y-10785079D01*
X9580063Y-11023174D02*
X9570539Y-11013650D01*
X9570539Y-11013650D02*
X9551491Y-10985079D01*
X9551491Y-10985079D02*
X9541968Y-10966031D01*
X9541968Y-10966031D02*
X9532444Y-10937460D01*
X9532444Y-10937460D02*
X9522920Y-10889841D01*
X9522920Y-10889841D02*
X9522920Y-10851746D01*
X9522920Y-10851746D02*
X9532444Y-10804127D01*
X9532444Y-10804127D02*
X9541968Y-10775555D01*
X9541968Y-10775555D02*
X9551491Y-10756508D01*
X9551491Y-10756508D02*
X9570539Y-10727936D01*
X9570539Y-10727936D02*
X9580063Y-10718412D01*
X9684825Y-10832698D02*
X9665777Y-10823174D01*
X9665777Y-10823174D02*
X9656253Y-10813650D01*
X9656253Y-10813650D02*
X9646730Y-10794603D01*
X9646730Y-10794603D02*
X9646730Y-10785079D01*
X9646730Y-10785079D02*
X9656253Y-10766031D01*
X9656253Y-10766031D02*
X9665777Y-10756508D01*
X9665777Y-10756508D02*
X9684825Y-10746984D01*
X9684825Y-10746984D02*
X9722920Y-10746984D01*
X9722920Y-10746984D02*
X9741968Y-10756508D01*
X9741968Y-10756508D02*
X9751491Y-10766031D01*
X9751491Y-10766031D02*
X9761015Y-10785079D01*
X9761015Y-10785079D02*
X9761015Y-10794603D01*
X9761015Y-10794603D02*
X9751491Y-10813650D01*
X9751491Y-10813650D02*
X9741968Y-10823174D01*
X9741968Y-10823174D02*
X9722920Y-10832698D01*
X9722920Y-10832698D02*
X9684825Y-10832698D01*
X9684825Y-10832698D02*
X9665777Y-10842222D01*
X9665777Y-10842222D02*
X9656253Y-10851746D01*
X9656253Y-10851746D02*
X9646730Y-10870793D01*
X9646730Y-10870793D02*
X9646730Y-10908889D01*
X9646730Y-10908889D02*
X9656253Y-10927936D01*
X9656253Y-10927936D02*
X9665777Y-10937460D01*
X9665777Y-10937460D02*
X9684825Y-10946984D01*
X9684825Y-10946984D02*
X9722920Y-10946984D01*
X9722920Y-10946984D02*
X9741968Y-10937460D01*
X9741968Y-10937460D02*
X9751491Y-10927936D01*
X9751491Y-10927936D02*
X9761015Y-10908889D01*
X9761015Y-10908889D02*
X9761015Y-10870793D01*
X9761015Y-10870793D02*
X9751491Y-10851746D01*
X9751491Y-10851746D02*
X9741968Y-10842222D01*
X9741968Y-10842222D02*
X9722920Y-10832698D01*
X9999111Y-10946984D02*
X9999111Y-10746984D01*
X10084825Y-10946984D02*
X10084825Y-10842222D01*
X10084825Y-10842222D02*
X10075301Y-10823174D01*
X10075301Y-10823174D02*
X10056253Y-10813650D01*
X10056253Y-10813650D02*
X10027682Y-10813650D01*
X10027682Y-10813650D02*
X10008634Y-10823174D01*
X10008634Y-10823174D02*
X9999111Y-10832698D01*
X10208634Y-10946984D02*
X10189587Y-10937460D01*
X10189587Y-10937460D02*
X10180063Y-10927936D01*
X10180063Y-10927936D02*
X10170539Y-10908889D01*
X10170539Y-10908889D02*
X10170539Y-10851746D01*
X10170539Y-10851746D02*
X10180063Y-10832698D01*
X10180063Y-10832698D02*
X10189587Y-10823174D01*
X10189587Y-10823174D02*
X10208634Y-10813650D01*
X10208634Y-10813650D02*
X10237206Y-10813650D01*
X10237206Y-10813650D02*
X10256253Y-10823174D01*
X10256253Y-10823174D02*
X10265777Y-10832698D01*
X10265777Y-10832698D02*
X10275301Y-10851746D01*
X10275301Y-10851746D02*
X10275301Y-10908889D01*
X10275301Y-10908889D02*
X10265777Y-10927936D01*
X10265777Y-10927936D02*
X10256253Y-10937460D01*
X10256253Y-10937460D02*
X10237206Y-10946984D01*
X10237206Y-10946984D02*
X10208634Y-10946984D01*
X10389587Y-10946984D02*
X10370539Y-10937460D01*
X10370539Y-10937460D02*
X10361015Y-10918412D01*
X10361015Y-10918412D02*
X10361015Y-10746984D01*
X10541968Y-10937460D02*
X10522920Y-10946984D01*
X10522920Y-10946984D02*
X10484825Y-10946984D01*
X10484825Y-10946984D02*
X10465777Y-10937460D01*
X10465777Y-10937460D02*
X10456253Y-10918412D01*
X10456253Y-10918412D02*
X10456253Y-10842222D01*
X10456253Y-10842222D02*
X10465777Y-10823174D01*
X10465777Y-10823174D02*
X10484825Y-10813650D01*
X10484825Y-10813650D02*
X10522920Y-10813650D01*
X10522920Y-10813650D02*
X10541968Y-10823174D01*
X10541968Y-10823174D02*
X10551492Y-10842222D01*
X10551492Y-10842222D02*
X10551492Y-10861270D01*
X10551492Y-10861270D02*
X10456253Y-10880317D01*
X10627682Y-10937460D02*
X10646730Y-10946984D01*
X10646730Y-10946984D02*
X10684825Y-10946984D01*
X10684825Y-10946984D02*
X10703873Y-10937460D01*
X10703873Y-10937460D02*
X10713396Y-10918412D01*
X10713396Y-10918412D02*
X10713396Y-10908889D01*
X10713396Y-10908889D02*
X10703873Y-10889841D01*
X10703873Y-10889841D02*
X10684825Y-10880317D01*
X10684825Y-10880317D02*
X10656253Y-10880317D01*
X10656253Y-10880317D02*
X10637206Y-10870793D01*
X10637206Y-10870793D02*
X10627682Y-10851746D01*
X10627682Y-10851746D02*
X10627682Y-10842222D01*
X10627682Y-10842222D02*
X10637206Y-10823174D01*
X10637206Y-10823174D02*
X10656253Y-10813650D01*
X10656253Y-10813650D02*
X10684825Y-10813650D01*
X10684825Y-10813650D02*
X10703873Y-10823174D01*
X10780063Y-11023174D02*
X10789587Y-11013650D01*
X10789587Y-11013650D02*
X10808634Y-10985079D01*
X10808634Y-10985079D02*
X10818158Y-10966031D01*
X10818158Y-10966031D02*
X10827682Y-10937460D01*
X10827682Y-10937460D02*
X10837206Y-10889841D01*
X10837206Y-10889841D02*
X10837206Y-10851746D01*
X10837206Y-10851746D02*
X10827682Y-10804127D01*
X10827682Y-10804127D02*
X10818158Y-10775555D01*
X10818158Y-10775555D02*
X10808634Y-10756508D01*
X10808634Y-10756508D02*
X10789587Y-10727936D01*
X10789587Y-10727936D02*
X10780063Y-10718412D01*
D15*
X5993284Y-11147785D02*
X5993284Y-11091216D01*
X5936715Y-11091216D01*
X5936715Y-11147785D01*
X5993284Y-11147785D01*
D11*
X6303872Y-11010984D02*
X6322920Y-11010984D01*
X6322920Y-11010984D02*
X6341967Y-11020508D01*
X6341967Y-11020508D02*
X6351491Y-11030031D01*
X6351491Y-11030031D02*
X6361015Y-11049079D01*
X6361015Y-11049079D02*
X6370539Y-11087174D01*
X6370539Y-11087174D02*
X6370539Y-11134793D01*
X6370539Y-11134793D02*
X6361015Y-11172889D01*
X6361015Y-11172889D02*
X6351491Y-11191936D01*
X6351491Y-11191936D02*
X6341967Y-11201460D01*
X6341967Y-11201460D02*
X6322920Y-11210984D01*
X6322920Y-11210984D02*
X6303872Y-11210984D01*
X6303872Y-11210984D02*
X6284824Y-11201460D01*
X6284824Y-11201460D02*
X6275301Y-11191936D01*
X6275301Y-11191936D02*
X6265777Y-11172889D01*
X6265777Y-11172889D02*
X6256253Y-11134793D01*
X6256253Y-11134793D02*
X6256253Y-11087174D01*
X6256253Y-11087174D02*
X6265777Y-11049079D01*
X6265777Y-11049079D02*
X6275301Y-11030031D01*
X6275301Y-11030031D02*
X6284824Y-11020508D01*
X6284824Y-11020508D02*
X6303872Y-11010984D01*
X6456253Y-11191936D02*
X6465777Y-11201460D01*
X6465777Y-11201460D02*
X6456253Y-11210984D01*
X6456253Y-11210984D02*
X6446729Y-11201460D01*
X6446729Y-11201460D02*
X6456253Y-11191936D01*
X6456253Y-11191936D02*
X6456253Y-11210984D01*
X6580062Y-11096698D02*
X6561015Y-11087174D01*
X6561015Y-11087174D02*
X6551491Y-11077650D01*
X6551491Y-11077650D02*
X6541967Y-11058603D01*
X6541967Y-11058603D02*
X6541967Y-11049079D01*
X6541967Y-11049079D02*
X6551491Y-11030031D01*
X6551491Y-11030031D02*
X6561015Y-11020508D01*
X6561015Y-11020508D02*
X6580062Y-11010984D01*
X6580062Y-11010984D02*
X6618158Y-11010984D01*
X6618158Y-11010984D02*
X6637205Y-11020508D01*
X6637205Y-11020508D02*
X6646729Y-11030031D01*
X6646729Y-11030031D02*
X6656253Y-11049079D01*
X6656253Y-11049079D02*
X6656253Y-11058603D01*
X6656253Y-11058603D02*
X6646729Y-11077650D01*
X6646729Y-11077650D02*
X6637205Y-11087174D01*
X6637205Y-11087174D02*
X6618158Y-11096698D01*
X6618158Y-11096698D02*
X6580062Y-11096698D01*
X6580062Y-11096698D02*
X6561015Y-11106222D01*
X6561015Y-11106222D02*
X6551491Y-11115746D01*
X6551491Y-11115746D02*
X6541967Y-11134793D01*
X6541967Y-11134793D02*
X6541967Y-11172889D01*
X6541967Y-11172889D02*
X6551491Y-11191936D01*
X6551491Y-11191936D02*
X6561015Y-11201460D01*
X6561015Y-11201460D02*
X6580062Y-11210984D01*
X6580062Y-11210984D02*
X6618158Y-11210984D01*
X6618158Y-11210984D02*
X6637205Y-11201460D01*
X6637205Y-11201460D02*
X6646729Y-11191936D01*
X6646729Y-11191936D02*
X6656253Y-11172889D01*
X6656253Y-11172889D02*
X6656253Y-11134793D01*
X6656253Y-11134793D02*
X6646729Y-11115746D01*
X6646729Y-11115746D02*
X6637205Y-11106222D01*
X6637205Y-11106222D02*
X6618158Y-11096698D01*
X6780062Y-11010984D02*
X6799110Y-11010984D01*
X6799110Y-11010984D02*
X6818158Y-11020508D01*
X6818158Y-11020508D02*
X6827682Y-11030031D01*
X6827682Y-11030031D02*
X6837205Y-11049079D01*
X6837205Y-11049079D02*
X6846729Y-11087174D01*
X6846729Y-11087174D02*
X6846729Y-11134793D01*
X6846729Y-11134793D02*
X6837205Y-11172889D01*
X6837205Y-11172889D02*
X6827682Y-11191936D01*
X6827682Y-11191936D02*
X6818158Y-11201460D01*
X6818158Y-11201460D02*
X6799110Y-11210984D01*
X6799110Y-11210984D02*
X6780062Y-11210984D01*
X6780062Y-11210984D02*
X6761015Y-11201460D01*
X6761015Y-11201460D02*
X6751491Y-11191936D01*
X6751491Y-11191936D02*
X6741967Y-11172889D01*
X6741967Y-11172889D02*
X6732443Y-11134793D01*
X6732443Y-11134793D02*
X6732443Y-11087174D01*
X6732443Y-11087174D02*
X6741967Y-11049079D01*
X6741967Y-11049079D02*
X6751491Y-11030031D01*
X6751491Y-11030031D02*
X6761015Y-11020508D01*
X6761015Y-11020508D02*
X6780062Y-11010984D01*
X6970539Y-11010984D02*
X6989586Y-11010984D01*
X6989586Y-11010984D02*
X7008634Y-11020508D01*
X7008634Y-11020508D02*
X7018158Y-11030031D01*
X7018158Y-11030031D02*
X7027682Y-11049079D01*
X7027682Y-11049079D02*
X7037205Y-11087174D01*
X7037205Y-11087174D02*
X7037205Y-11134793D01*
X7037205Y-11134793D02*
X7027682Y-11172889D01*
X7027682Y-11172889D02*
X7018158Y-11191936D01*
X7018158Y-11191936D02*
X7008634Y-11201460D01*
X7008634Y-11201460D02*
X6989586Y-11210984D01*
X6989586Y-11210984D02*
X6970539Y-11210984D01*
X6970539Y-11210984D02*
X6951491Y-11201460D01*
X6951491Y-11201460D02*
X6941967Y-11191936D01*
X6941967Y-11191936D02*
X6932443Y-11172889D01*
X6932443Y-11172889D02*
X6922920Y-11134793D01*
X6922920Y-11134793D02*
X6922920Y-11087174D01*
X6922920Y-11087174D02*
X6932443Y-11049079D01*
X6932443Y-11049079D02*
X6941967Y-11030031D01*
X6941967Y-11030031D02*
X6951491Y-11020508D01*
X6951491Y-11020508D02*
X6970539Y-11010984D01*
X7122920Y-11210984D02*
X7122920Y-11077650D01*
X7122920Y-11096698D02*
X7132443Y-11087174D01*
X7132443Y-11087174D02*
X7151491Y-11077650D01*
X7151491Y-11077650D02*
X7180063Y-11077650D01*
X7180063Y-11077650D02*
X7199110Y-11087174D01*
X7199110Y-11087174D02*
X7208634Y-11106222D01*
X7208634Y-11106222D02*
X7208634Y-11210984D01*
X7208634Y-11106222D02*
X7218158Y-11087174D01*
X7218158Y-11087174D02*
X7237205Y-11077650D01*
X7237205Y-11077650D02*
X7265777Y-11077650D01*
X7265777Y-11077650D02*
X7284824Y-11087174D01*
X7284824Y-11087174D02*
X7294348Y-11106222D01*
X7294348Y-11106222D02*
X7294348Y-11210984D01*
X7389586Y-11210984D02*
X7389586Y-11077650D01*
X7389586Y-11096698D02*
X7399110Y-11087174D01*
X7399110Y-11087174D02*
X7418158Y-11077650D01*
X7418158Y-11077650D02*
X7446729Y-11077650D01*
X7446729Y-11077650D02*
X7465777Y-11087174D01*
X7465777Y-11087174D02*
X7475301Y-11106222D01*
X7475301Y-11106222D02*
X7475301Y-11210984D01*
X7475301Y-11106222D02*
X7484824Y-11087174D01*
X7484824Y-11087174D02*
X7503872Y-11077650D01*
X7503872Y-11077650D02*
X7532443Y-11077650D01*
X7532443Y-11077650D02*
X7551491Y-11087174D01*
X7551491Y-11087174D02*
X7561015Y-11106222D01*
X7561015Y-11106222D02*
X7561015Y-11210984D01*
X7951491Y-11001460D02*
X7780063Y-11258603D01*
X8208634Y-11010984D02*
X8227682Y-11010984D01*
X8227682Y-11010984D02*
X8246729Y-11020508D01*
X8246729Y-11020508D02*
X8256253Y-11030031D01*
X8256253Y-11030031D02*
X8265777Y-11049079D01*
X8265777Y-11049079D02*
X8275301Y-11087174D01*
X8275301Y-11087174D02*
X8275301Y-11134793D01*
X8275301Y-11134793D02*
X8265777Y-11172889D01*
X8265777Y-11172889D02*
X8256253Y-11191936D01*
X8256253Y-11191936D02*
X8246729Y-11201460D01*
X8246729Y-11201460D02*
X8227682Y-11210984D01*
X8227682Y-11210984D02*
X8208634Y-11210984D01*
X8208634Y-11210984D02*
X8189586Y-11201460D01*
X8189586Y-11201460D02*
X8180063Y-11191936D01*
X8180063Y-11191936D02*
X8170539Y-11172889D01*
X8170539Y-11172889D02*
X8161015Y-11134793D01*
X8161015Y-11134793D02*
X8161015Y-11087174D01*
X8161015Y-11087174D02*
X8170539Y-11049079D01*
X8170539Y-11049079D02*
X8180063Y-11030031D01*
X8180063Y-11030031D02*
X8189586Y-11020508D01*
X8189586Y-11020508D02*
X8208634Y-11010984D01*
X8361015Y-11191936D02*
X8370539Y-11201460D01*
X8370539Y-11201460D02*
X8361015Y-11210984D01*
X8361015Y-11210984D02*
X8351491Y-11201460D01*
X8351491Y-11201460D02*
X8361015Y-11191936D01*
X8361015Y-11191936D02*
X8361015Y-11210984D01*
X8494348Y-11010984D02*
X8513396Y-11010984D01*
X8513396Y-11010984D02*
X8532444Y-11020508D01*
X8532444Y-11020508D02*
X8541968Y-11030031D01*
X8541968Y-11030031D02*
X8551491Y-11049079D01*
X8551491Y-11049079D02*
X8561015Y-11087174D01*
X8561015Y-11087174D02*
X8561015Y-11134793D01*
X8561015Y-11134793D02*
X8551491Y-11172889D01*
X8551491Y-11172889D02*
X8541968Y-11191936D01*
X8541968Y-11191936D02*
X8532444Y-11201460D01*
X8532444Y-11201460D02*
X8513396Y-11210984D01*
X8513396Y-11210984D02*
X8494348Y-11210984D01*
X8494348Y-11210984D02*
X8475301Y-11201460D01*
X8475301Y-11201460D02*
X8465777Y-11191936D01*
X8465777Y-11191936D02*
X8456253Y-11172889D01*
X8456253Y-11172889D02*
X8446729Y-11134793D01*
X8446729Y-11134793D02*
X8446729Y-11087174D01*
X8446729Y-11087174D02*
X8456253Y-11049079D01*
X8456253Y-11049079D02*
X8465777Y-11030031D01*
X8465777Y-11030031D02*
X8475301Y-11020508D01*
X8475301Y-11020508D02*
X8494348Y-11010984D01*
X8627682Y-11010984D02*
X8751491Y-11010984D01*
X8751491Y-11010984D02*
X8684825Y-11087174D01*
X8684825Y-11087174D02*
X8713396Y-11087174D01*
X8713396Y-11087174D02*
X8732444Y-11096698D01*
X8732444Y-11096698D02*
X8741968Y-11106222D01*
X8741968Y-11106222D02*
X8751491Y-11125270D01*
X8751491Y-11125270D02*
X8751491Y-11172889D01*
X8751491Y-11172889D02*
X8741968Y-11191936D01*
X8741968Y-11191936D02*
X8732444Y-11201460D01*
X8732444Y-11201460D02*
X8713396Y-11210984D01*
X8713396Y-11210984D02*
X8656253Y-11210984D01*
X8656253Y-11210984D02*
X8637206Y-11201460D01*
X8637206Y-11201460D02*
X8627682Y-11191936D01*
X8941968Y-11210984D02*
X8827682Y-11210984D01*
X8884825Y-11210984D02*
X8884825Y-11010984D01*
X8884825Y-11010984D02*
X8865777Y-11039555D01*
X8865777Y-11039555D02*
X8846729Y-11058603D01*
X8846729Y-11058603D02*
X8827682Y-11068127D01*
X9122920Y-11010984D02*
X9027682Y-11010984D01*
X9027682Y-11010984D02*
X9018158Y-11106222D01*
X9018158Y-11106222D02*
X9027682Y-11096698D01*
X9027682Y-11096698D02*
X9046729Y-11087174D01*
X9046729Y-11087174D02*
X9094349Y-11087174D01*
X9094349Y-11087174D02*
X9113396Y-11096698D01*
X9113396Y-11096698D02*
X9122920Y-11106222D01*
X9122920Y-11106222D02*
X9132444Y-11125270D01*
X9132444Y-11125270D02*
X9132444Y-11172889D01*
X9132444Y-11172889D02*
X9122920Y-11191936D01*
X9122920Y-11191936D02*
X9113396Y-11201460D01*
X9113396Y-11201460D02*
X9094349Y-11210984D01*
X9094349Y-11210984D02*
X9046729Y-11210984D01*
X9046729Y-11210984D02*
X9027682Y-11201460D01*
X9027682Y-11201460D02*
X9018158Y-11191936D01*
X9208634Y-11010984D02*
X9208634Y-11049079D01*
X9284825Y-11010984D02*
X9284825Y-11049079D01*
X9580063Y-11287174D02*
X9570539Y-11277650D01*
X9570539Y-11277650D02*
X9551491Y-11249079D01*
X9551491Y-11249079D02*
X9541968Y-11230031D01*
X9541968Y-11230031D02*
X9532444Y-11201460D01*
X9532444Y-11201460D02*
X9522920Y-11153841D01*
X9522920Y-11153841D02*
X9522920Y-11115746D01*
X9522920Y-11115746D02*
X9532444Y-11068127D01*
X9532444Y-11068127D02*
X9541968Y-11039555D01*
X9541968Y-11039555D02*
X9551491Y-11020508D01*
X9551491Y-11020508D02*
X9570539Y-10991936D01*
X9570539Y-10991936D02*
X9580063Y-10982412D01*
X9761015Y-11210984D02*
X9646730Y-11210984D01*
X9703872Y-11210984D02*
X9703872Y-11010984D01*
X9703872Y-11010984D02*
X9684825Y-11039555D01*
X9684825Y-11039555D02*
X9665777Y-11058603D01*
X9665777Y-11058603D02*
X9646730Y-11068127D01*
X9941968Y-11010984D02*
X9846730Y-11010984D01*
X9846730Y-11010984D02*
X9837206Y-11106222D01*
X9837206Y-11106222D02*
X9846730Y-11096698D01*
X9846730Y-11096698D02*
X9865777Y-11087174D01*
X9865777Y-11087174D02*
X9913396Y-11087174D01*
X9913396Y-11087174D02*
X9932444Y-11096698D01*
X9932444Y-11096698D02*
X9941968Y-11106222D01*
X9941968Y-11106222D02*
X9951491Y-11125270D01*
X9951491Y-11125270D02*
X9951491Y-11172889D01*
X9951491Y-11172889D02*
X9941968Y-11191936D01*
X9941968Y-11191936D02*
X9932444Y-11201460D01*
X9932444Y-11201460D02*
X9913396Y-11210984D01*
X9913396Y-11210984D02*
X9865777Y-11210984D01*
X9865777Y-11210984D02*
X9846730Y-11201460D01*
X9846730Y-11201460D02*
X9837206Y-11191936D01*
X10027682Y-11030031D02*
X10037206Y-11020508D01*
X10037206Y-11020508D02*
X10056253Y-11010984D01*
X10056253Y-11010984D02*
X10103872Y-11010984D01*
X10103872Y-11010984D02*
X10122920Y-11020508D01*
X10122920Y-11020508D02*
X10132444Y-11030031D01*
X10132444Y-11030031D02*
X10141968Y-11049079D01*
X10141968Y-11049079D02*
X10141968Y-11068127D01*
X10141968Y-11068127D02*
X10132444Y-11096698D01*
X10132444Y-11096698D02*
X10018158Y-11210984D01*
X10018158Y-11210984D02*
X10141968Y-11210984D01*
X10380063Y-11210984D02*
X10380063Y-11010984D01*
X10465777Y-11210984D02*
X10465777Y-11106222D01*
X10465777Y-11106222D02*
X10456253Y-11087174D01*
X10456253Y-11087174D02*
X10437206Y-11077650D01*
X10437206Y-11077650D02*
X10408634Y-11077650D01*
X10408634Y-11077650D02*
X10389587Y-11087174D01*
X10389587Y-11087174D02*
X10380063Y-11096698D01*
X10589587Y-11210984D02*
X10570539Y-11201460D01*
X10570539Y-11201460D02*
X10561015Y-11191936D01*
X10561015Y-11191936D02*
X10551492Y-11172889D01*
X10551492Y-11172889D02*
X10551492Y-11115746D01*
X10551492Y-11115746D02*
X10561015Y-11096698D01*
X10561015Y-11096698D02*
X10570539Y-11087174D01*
X10570539Y-11087174D02*
X10589587Y-11077650D01*
X10589587Y-11077650D02*
X10618158Y-11077650D01*
X10618158Y-11077650D02*
X10637206Y-11087174D01*
X10637206Y-11087174D02*
X10646730Y-11096698D01*
X10646730Y-11096698D02*
X10656253Y-11115746D01*
X10656253Y-11115746D02*
X10656253Y-11172889D01*
X10656253Y-11172889D02*
X10646730Y-11191936D01*
X10646730Y-11191936D02*
X10637206Y-11201460D01*
X10637206Y-11201460D02*
X10618158Y-11210984D01*
X10618158Y-11210984D02*
X10589587Y-11210984D01*
X10770539Y-11210984D02*
X10751492Y-11201460D01*
X10751492Y-11201460D02*
X10741968Y-11182412D01*
X10741968Y-11182412D02*
X10741968Y-11010984D01*
X10922920Y-11201460D02*
X10903873Y-11210984D01*
X10903873Y-11210984D02*
X10865777Y-11210984D01*
X10865777Y-11210984D02*
X10846730Y-11201460D01*
X10846730Y-11201460D02*
X10837206Y-11182412D01*
X10837206Y-11182412D02*
X10837206Y-11106222D01*
X10837206Y-11106222D02*
X10846730Y-11087174D01*
X10846730Y-11087174D02*
X10865777Y-11077650D01*
X10865777Y-11077650D02*
X10903873Y-11077650D01*
X10903873Y-11077650D02*
X10922920Y-11087174D01*
X10922920Y-11087174D02*
X10932444Y-11106222D01*
X10932444Y-11106222D02*
X10932444Y-11125270D01*
X10932444Y-11125270D02*
X10837206Y-11144317D01*
X11008634Y-11201460D02*
X11027682Y-11210984D01*
X11027682Y-11210984D02*
X11065777Y-11210984D01*
X11065777Y-11210984D02*
X11084825Y-11201460D01*
X11084825Y-11201460D02*
X11094349Y-11182412D01*
X11094349Y-11182412D02*
X11094349Y-11172889D01*
X11094349Y-11172889D02*
X11084825Y-11153841D01*
X11084825Y-11153841D02*
X11065777Y-11144317D01*
X11065777Y-11144317D02*
X11037206Y-11144317D01*
X11037206Y-11144317D02*
X11018158Y-11134793D01*
X11018158Y-11134793D02*
X11008634Y-11115746D01*
X11008634Y-11115746D02*
X11008634Y-11106222D01*
X11008634Y-11106222D02*
X11018158Y-11087174D01*
X11018158Y-11087174D02*
X11037206Y-11077650D01*
X11037206Y-11077650D02*
X11065777Y-11077650D01*
X11065777Y-11077650D02*
X11084825Y-11087174D01*
X11161015Y-11287174D02*
X11170539Y-11277650D01*
X11170539Y-11277650D02*
X11189587Y-11249079D01*
X11189587Y-11249079D02*
X11199111Y-11230031D01*
X11199111Y-11230031D02*
X11208634Y-11201460D01*
X11208634Y-11201460D02*
X11218158Y-11153841D01*
X11218158Y-11153841D02*
X11218158Y-11115746D01*
X11218158Y-11115746D02*
X11208634Y-11068127D01*
X11208634Y-11068127D02*
X11199111Y-11039555D01*
X11199111Y-11039555D02*
X11189587Y-11020508D01*
X11189587Y-11020508D02*
X11170539Y-10991936D01*
X11170539Y-10991936D02*
X11161015Y-10982412D01*
D16*
X5960000Y-11428500D02*
X6005000Y-11383500D01*
X5960000Y-11338500D01*
X5915000Y-11383500D01*
X5960000Y-11428500D01*
D11*
X6303872Y-11274984D02*
X6322920Y-11274984D01*
X6322920Y-11274984D02*
X6341967Y-11284508D01*
X6341967Y-11284508D02*
X6351491Y-11294031D01*
X6351491Y-11294031D02*
X6361015Y-11313079D01*
X6361015Y-11313079D02*
X6370539Y-11351174D01*
X6370539Y-11351174D02*
X6370539Y-11398793D01*
X6370539Y-11398793D02*
X6361015Y-11436888D01*
X6361015Y-11436888D02*
X6351491Y-11455936D01*
X6351491Y-11455936D02*
X6341967Y-11465460D01*
X6341967Y-11465460D02*
X6322920Y-11474984D01*
X6322920Y-11474984D02*
X6303872Y-11474984D01*
X6303872Y-11474984D02*
X6284824Y-11465460D01*
X6284824Y-11465460D02*
X6275301Y-11455936D01*
X6275301Y-11455936D02*
X6265777Y-11436888D01*
X6265777Y-11436888D02*
X6256253Y-11398793D01*
X6256253Y-11398793D02*
X6256253Y-11351174D01*
X6256253Y-11351174D02*
X6265777Y-11313079D01*
X6265777Y-11313079D02*
X6275301Y-11294031D01*
X6275301Y-11294031D02*
X6284824Y-11284508D01*
X6284824Y-11284508D02*
X6303872Y-11274984D01*
X6456253Y-11455936D02*
X6465777Y-11465460D01*
X6465777Y-11465460D02*
X6456253Y-11474984D01*
X6456253Y-11474984D02*
X6446729Y-11465460D01*
X6446729Y-11465460D02*
X6456253Y-11455936D01*
X6456253Y-11455936D02*
X6456253Y-11474984D01*
X6561015Y-11474984D02*
X6599110Y-11474984D01*
X6599110Y-11474984D02*
X6618158Y-11465460D01*
X6618158Y-11465460D02*
X6627682Y-11455936D01*
X6627682Y-11455936D02*
X6646729Y-11427365D01*
X6646729Y-11427365D02*
X6656253Y-11389269D01*
X6656253Y-11389269D02*
X6656253Y-11313079D01*
X6656253Y-11313079D02*
X6646729Y-11294031D01*
X6646729Y-11294031D02*
X6637205Y-11284508D01*
X6637205Y-11284508D02*
X6618158Y-11274984D01*
X6618158Y-11274984D02*
X6580062Y-11274984D01*
X6580062Y-11274984D02*
X6561015Y-11284508D01*
X6561015Y-11284508D02*
X6551491Y-11294031D01*
X6551491Y-11294031D02*
X6541967Y-11313079D01*
X6541967Y-11313079D02*
X6541967Y-11360698D01*
X6541967Y-11360698D02*
X6551491Y-11379746D01*
X6551491Y-11379746D02*
X6561015Y-11389269D01*
X6561015Y-11389269D02*
X6580062Y-11398793D01*
X6580062Y-11398793D02*
X6618158Y-11398793D01*
X6618158Y-11398793D02*
X6637205Y-11389269D01*
X6637205Y-11389269D02*
X6646729Y-11379746D01*
X6646729Y-11379746D02*
X6656253Y-11360698D01*
X6780062Y-11274984D02*
X6799110Y-11274984D01*
X6799110Y-11274984D02*
X6818158Y-11284508D01*
X6818158Y-11284508D02*
X6827682Y-11294031D01*
X6827682Y-11294031D02*
X6837205Y-11313079D01*
X6837205Y-11313079D02*
X6846729Y-11351174D01*
X6846729Y-11351174D02*
X6846729Y-11398793D01*
X6846729Y-11398793D02*
X6837205Y-11436888D01*
X6837205Y-11436888D02*
X6827682Y-11455936D01*
X6827682Y-11455936D02*
X6818158Y-11465460D01*
X6818158Y-11465460D02*
X6799110Y-11474984D01*
X6799110Y-11474984D02*
X6780062Y-11474984D01*
X6780062Y-11474984D02*
X6761015Y-11465460D01*
X6761015Y-11465460D02*
X6751491Y-11455936D01*
X6751491Y-11455936D02*
X6741967Y-11436888D01*
X6741967Y-11436888D02*
X6732443Y-11398793D01*
X6732443Y-11398793D02*
X6732443Y-11351174D01*
X6732443Y-11351174D02*
X6741967Y-11313079D01*
X6741967Y-11313079D02*
X6751491Y-11294031D01*
X6751491Y-11294031D02*
X6761015Y-11284508D01*
X6761015Y-11284508D02*
X6780062Y-11274984D01*
X6970539Y-11274984D02*
X6989586Y-11274984D01*
X6989586Y-11274984D02*
X7008634Y-11284508D01*
X7008634Y-11284508D02*
X7018158Y-11294031D01*
X7018158Y-11294031D02*
X7027682Y-11313079D01*
X7027682Y-11313079D02*
X7037205Y-11351174D01*
X7037205Y-11351174D02*
X7037205Y-11398793D01*
X7037205Y-11398793D02*
X7027682Y-11436888D01*
X7027682Y-11436888D02*
X7018158Y-11455936D01*
X7018158Y-11455936D02*
X7008634Y-11465460D01*
X7008634Y-11465460D02*
X6989586Y-11474984D01*
X6989586Y-11474984D02*
X6970539Y-11474984D01*
X6970539Y-11474984D02*
X6951491Y-11465460D01*
X6951491Y-11465460D02*
X6941967Y-11455936D01*
X6941967Y-11455936D02*
X6932443Y-11436888D01*
X6932443Y-11436888D02*
X6922920Y-11398793D01*
X6922920Y-11398793D02*
X6922920Y-11351174D01*
X6922920Y-11351174D02*
X6932443Y-11313079D01*
X6932443Y-11313079D02*
X6941967Y-11294031D01*
X6941967Y-11294031D02*
X6951491Y-11284508D01*
X6951491Y-11284508D02*
X6970539Y-11274984D01*
X7122920Y-11474984D02*
X7122920Y-11341650D01*
X7122920Y-11360698D02*
X7132443Y-11351174D01*
X7132443Y-11351174D02*
X7151491Y-11341650D01*
X7151491Y-11341650D02*
X7180063Y-11341650D01*
X7180063Y-11341650D02*
X7199110Y-11351174D01*
X7199110Y-11351174D02*
X7208634Y-11370222D01*
X7208634Y-11370222D02*
X7208634Y-11474984D01*
X7208634Y-11370222D02*
X7218158Y-11351174D01*
X7218158Y-11351174D02*
X7237205Y-11341650D01*
X7237205Y-11341650D02*
X7265777Y-11341650D01*
X7265777Y-11341650D02*
X7284824Y-11351174D01*
X7284824Y-11351174D02*
X7294348Y-11370222D01*
X7294348Y-11370222D02*
X7294348Y-11474984D01*
X7389586Y-11474984D02*
X7389586Y-11341650D01*
X7389586Y-11360698D02*
X7399110Y-11351174D01*
X7399110Y-11351174D02*
X7418158Y-11341650D01*
X7418158Y-11341650D02*
X7446729Y-11341650D01*
X7446729Y-11341650D02*
X7465777Y-11351174D01*
X7465777Y-11351174D02*
X7475301Y-11370222D01*
X7475301Y-11370222D02*
X7475301Y-11474984D01*
X7475301Y-11370222D02*
X7484824Y-11351174D01*
X7484824Y-11351174D02*
X7503872Y-11341650D01*
X7503872Y-11341650D02*
X7532443Y-11341650D01*
X7532443Y-11341650D02*
X7551491Y-11351174D01*
X7551491Y-11351174D02*
X7561015Y-11370222D01*
X7561015Y-11370222D02*
X7561015Y-11474984D01*
X7951491Y-11265460D02*
X7780063Y-11522603D01*
X8208634Y-11274984D02*
X8227682Y-11274984D01*
X8227682Y-11274984D02*
X8246729Y-11284508D01*
X8246729Y-11284508D02*
X8256253Y-11294031D01*
X8256253Y-11294031D02*
X8265777Y-11313079D01*
X8265777Y-11313079D02*
X8275301Y-11351174D01*
X8275301Y-11351174D02*
X8275301Y-11398793D01*
X8275301Y-11398793D02*
X8265777Y-11436888D01*
X8265777Y-11436888D02*
X8256253Y-11455936D01*
X8256253Y-11455936D02*
X8246729Y-11465460D01*
X8246729Y-11465460D02*
X8227682Y-11474984D01*
X8227682Y-11474984D02*
X8208634Y-11474984D01*
X8208634Y-11474984D02*
X8189586Y-11465460D01*
X8189586Y-11465460D02*
X8180063Y-11455936D01*
X8180063Y-11455936D02*
X8170539Y-11436888D01*
X8170539Y-11436888D02*
X8161015Y-11398793D01*
X8161015Y-11398793D02*
X8161015Y-11351174D01*
X8161015Y-11351174D02*
X8170539Y-11313079D01*
X8170539Y-11313079D02*
X8180063Y-11294031D01*
X8180063Y-11294031D02*
X8189586Y-11284508D01*
X8189586Y-11284508D02*
X8208634Y-11274984D01*
X8361015Y-11455936D02*
X8370539Y-11465460D01*
X8370539Y-11465460D02*
X8361015Y-11474984D01*
X8361015Y-11474984D02*
X8351491Y-11465460D01*
X8351491Y-11465460D02*
X8361015Y-11455936D01*
X8361015Y-11455936D02*
X8361015Y-11474984D01*
X8494348Y-11274984D02*
X8513396Y-11274984D01*
X8513396Y-11274984D02*
X8532444Y-11284508D01*
X8532444Y-11284508D02*
X8541968Y-11294031D01*
X8541968Y-11294031D02*
X8551491Y-11313079D01*
X8551491Y-11313079D02*
X8561015Y-11351174D01*
X8561015Y-11351174D02*
X8561015Y-11398793D01*
X8561015Y-11398793D02*
X8551491Y-11436888D01*
X8551491Y-11436888D02*
X8541968Y-11455936D01*
X8541968Y-11455936D02*
X8532444Y-11465460D01*
X8532444Y-11465460D02*
X8513396Y-11474984D01*
X8513396Y-11474984D02*
X8494348Y-11474984D01*
X8494348Y-11474984D02*
X8475301Y-11465460D01*
X8475301Y-11465460D02*
X8465777Y-11455936D01*
X8465777Y-11455936D02*
X8456253Y-11436888D01*
X8456253Y-11436888D02*
X8446729Y-11398793D01*
X8446729Y-11398793D02*
X8446729Y-11351174D01*
X8446729Y-11351174D02*
X8456253Y-11313079D01*
X8456253Y-11313079D02*
X8465777Y-11294031D01*
X8465777Y-11294031D02*
X8475301Y-11284508D01*
X8475301Y-11284508D02*
X8494348Y-11274984D01*
X8627682Y-11274984D02*
X8751491Y-11274984D01*
X8751491Y-11274984D02*
X8684825Y-11351174D01*
X8684825Y-11351174D02*
X8713396Y-11351174D01*
X8713396Y-11351174D02*
X8732444Y-11360698D01*
X8732444Y-11360698D02*
X8741968Y-11370222D01*
X8741968Y-11370222D02*
X8751491Y-11389269D01*
X8751491Y-11389269D02*
X8751491Y-11436888D01*
X8751491Y-11436888D02*
X8741968Y-11455936D01*
X8741968Y-11455936D02*
X8732444Y-11465460D01*
X8732444Y-11465460D02*
X8713396Y-11474984D01*
X8713396Y-11474984D02*
X8656253Y-11474984D01*
X8656253Y-11474984D02*
X8637206Y-11465460D01*
X8637206Y-11465460D02*
X8627682Y-11455936D01*
X8932444Y-11274984D02*
X8837206Y-11274984D01*
X8837206Y-11274984D02*
X8827682Y-11370222D01*
X8827682Y-11370222D02*
X8837206Y-11360698D01*
X8837206Y-11360698D02*
X8856253Y-11351174D01*
X8856253Y-11351174D02*
X8903872Y-11351174D01*
X8903872Y-11351174D02*
X8922920Y-11360698D01*
X8922920Y-11360698D02*
X8932444Y-11370222D01*
X8932444Y-11370222D02*
X8941968Y-11389269D01*
X8941968Y-11389269D02*
X8941968Y-11436888D01*
X8941968Y-11436888D02*
X8932444Y-11455936D01*
X8932444Y-11455936D02*
X8922920Y-11465460D01*
X8922920Y-11465460D02*
X8903872Y-11474984D01*
X8903872Y-11474984D02*
X8856253Y-11474984D01*
X8856253Y-11474984D02*
X8837206Y-11465460D01*
X8837206Y-11465460D02*
X8827682Y-11455936D01*
X9113396Y-11341650D02*
X9113396Y-11474984D01*
X9065777Y-11265460D02*
X9018158Y-11408317D01*
X9018158Y-11408317D02*
X9141968Y-11408317D01*
X9208634Y-11274984D02*
X9208634Y-11313079D01*
X9284825Y-11274984D02*
X9284825Y-11313079D01*
X9580063Y-11551174D02*
X9570539Y-11541650D01*
X9570539Y-11541650D02*
X9551491Y-11513079D01*
X9551491Y-11513079D02*
X9541968Y-11494031D01*
X9541968Y-11494031D02*
X9532444Y-11465460D01*
X9532444Y-11465460D02*
X9522920Y-11417841D01*
X9522920Y-11417841D02*
X9522920Y-11379746D01*
X9522920Y-11379746D02*
X9532444Y-11332127D01*
X9532444Y-11332127D02*
X9541968Y-11303555D01*
X9541968Y-11303555D02*
X9551491Y-11284508D01*
X9551491Y-11284508D02*
X9570539Y-11255936D01*
X9570539Y-11255936D02*
X9580063Y-11246412D01*
X9646730Y-11294031D02*
X9656253Y-11284508D01*
X9656253Y-11284508D02*
X9675301Y-11274984D01*
X9675301Y-11274984D02*
X9722920Y-11274984D01*
X9722920Y-11274984D02*
X9741968Y-11284508D01*
X9741968Y-11284508D02*
X9751491Y-11294031D01*
X9751491Y-11294031D02*
X9761015Y-11313079D01*
X9761015Y-11313079D02*
X9761015Y-11332127D01*
X9761015Y-11332127D02*
X9751491Y-11360698D01*
X9751491Y-11360698D02*
X9637206Y-11474984D01*
X9637206Y-11474984D02*
X9761015Y-11474984D01*
X9999111Y-11474984D02*
X9999111Y-11274984D01*
X10084825Y-11474984D02*
X10084825Y-11370222D01*
X10084825Y-11370222D02*
X10075301Y-11351174D01*
X10075301Y-11351174D02*
X10056253Y-11341650D01*
X10056253Y-11341650D02*
X10027682Y-11341650D01*
X10027682Y-11341650D02*
X10008634Y-11351174D01*
X10008634Y-11351174D02*
X9999111Y-11360698D01*
X10208634Y-11474984D02*
X10189587Y-11465460D01*
X10189587Y-11465460D02*
X10180063Y-11455936D01*
X10180063Y-11455936D02*
X10170539Y-11436888D01*
X10170539Y-11436888D02*
X10170539Y-11379746D01*
X10170539Y-11379746D02*
X10180063Y-11360698D01*
X10180063Y-11360698D02*
X10189587Y-11351174D01*
X10189587Y-11351174D02*
X10208634Y-11341650D01*
X10208634Y-11341650D02*
X10237206Y-11341650D01*
X10237206Y-11341650D02*
X10256253Y-11351174D01*
X10256253Y-11351174D02*
X10265777Y-11360698D01*
X10265777Y-11360698D02*
X10275301Y-11379746D01*
X10275301Y-11379746D02*
X10275301Y-11436888D01*
X10275301Y-11436888D02*
X10265777Y-11455936D01*
X10265777Y-11455936D02*
X10256253Y-11465460D01*
X10256253Y-11465460D02*
X10237206Y-11474984D01*
X10237206Y-11474984D02*
X10208634Y-11474984D01*
X10389587Y-11474984D02*
X10370539Y-11465460D01*
X10370539Y-11465460D02*
X10361015Y-11446412D01*
X10361015Y-11446412D02*
X10361015Y-11274984D01*
X10541968Y-11465460D02*
X10522920Y-11474984D01*
X10522920Y-11474984D02*
X10484825Y-11474984D01*
X10484825Y-11474984D02*
X10465777Y-11465460D01*
X10465777Y-11465460D02*
X10456253Y-11446412D01*
X10456253Y-11446412D02*
X10456253Y-11370222D01*
X10456253Y-11370222D02*
X10465777Y-11351174D01*
X10465777Y-11351174D02*
X10484825Y-11341650D01*
X10484825Y-11341650D02*
X10522920Y-11341650D01*
X10522920Y-11341650D02*
X10541968Y-11351174D01*
X10541968Y-11351174D02*
X10551492Y-11370222D01*
X10551492Y-11370222D02*
X10551492Y-11389269D01*
X10551492Y-11389269D02*
X10456253Y-11408317D01*
X10627682Y-11465460D02*
X10646730Y-11474984D01*
X10646730Y-11474984D02*
X10684825Y-11474984D01*
X10684825Y-11474984D02*
X10703873Y-11465460D01*
X10703873Y-11465460D02*
X10713396Y-11446412D01*
X10713396Y-11446412D02*
X10713396Y-11436888D01*
X10713396Y-11436888D02*
X10703873Y-11417841D01*
X10703873Y-11417841D02*
X10684825Y-11408317D01*
X10684825Y-11408317D02*
X10656253Y-11408317D01*
X10656253Y-11408317D02*
X10637206Y-11398793D01*
X10637206Y-11398793D02*
X10627682Y-11379746D01*
X10627682Y-11379746D02*
X10627682Y-11370222D01*
X10627682Y-11370222D02*
X10637206Y-11351174D01*
X10637206Y-11351174D02*
X10656253Y-11341650D01*
X10656253Y-11341650D02*
X10684825Y-11341650D01*
X10684825Y-11341650D02*
X10703873Y-11351174D01*
X10780063Y-11551174D02*
X10789587Y-11541650D01*
X10789587Y-11541650D02*
X10808634Y-11513079D01*
X10808634Y-11513079D02*
X10818158Y-11494031D01*
X10818158Y-11494031D02*
X10827682Y-11465460D01*
X10827682Y-11465460D02*
X10837206Y-11417841D01*
X10837206Y-11417841D02*
X10837206Y-11379746D01*
X10837206Y-11379746D02*
X10827682Y-11332127D01*
X10827682Y-11332127D02*
X10818158Y-11303555D01*
X10818158Y-11303555D02*
X10808634Y-11284508D01*
X10808634Y-11284508D02*
X10789587Y-11255936D01*
X10789587Y-11255936D02*
X10780063Y-11246412D01*
D17*
X5913000Y-11601500D02*
X6005000Y-11693500D01*
X6005000Y-11601500D02*
X5913000Y-11693500D01*
X6005000Y-11647500D02*
G75*
G03*
X6005000Y-11647500I-46000J0D01*
G01*
D11*
X6303872Y-11538984D02*
X6322920Y-11538984D01*
X6322920Y-11538984D02*
X6341967Y-11548508D01*
X6341967Y-11548508D02*
X6351491Y-11558031D01*
X6351491Y-11558031D02*
X6361015Y-11577079D01*
X6361015Y-11577079D02*
X6370539Y-11615174D01*
X6370539Y-11615174D02*
X6370539Y-11662793D01*
X6370539Y-11662793D02*
X6361015Y-11700888D01*
X6361015Y-11700888D02*
X6351491Y-11719936D01*
X6351491Y-11719936D02*
X6341967Y-11729460D01*
X6341967Y-11729460D02*
X6322920Y-11738984D01*
X6322920Y-11738984D02*
X6303872Y-11738984D01*
X6303872Y-11738984D02*
X6284824Y-11729460D01*
X6284824Y-11729460D02*
X6275301Y-11719936D01*
X6275301Y-11719936D02*
X6265777Y-11700888D01*
X6265777Y-11700888D02*
X6256253Y-11662793D01*
X6256253Y-11662793D02*
X6256253Y-11615174D01*
X6256253Y-11615174D02*
X6265777Y-11577079D01*
X6265777Y-11577079D02*
X6275301Y-11558031D01*
X6275301Y-11558031D02*
X6284824Y-11548508D01*
X6284824Y-11548508D02*
X6303872Y-11538984D01*
X6456253Y-11719936D02*
X6465777Y-11729460D01*
X6465777Y-11729460D02*
X6456253Y-11738984D01*
X6456253Y-11738984D02*
X6446729Y-11729460D01*
X6446729Y-11729460D02*
X6456253Y-11719936D01*
X6456253Y-11719936D02*
X6456253Y-11738984D01*
X6561015Y-11738984D02*
X6599110Y-11738984D01*
X6599110Y-11738984D02*
X6618158Y-11729460D01*
X6618158Y-11729460D02*
X6627682Y-11719936D01*
X6627682Y-11719936D02*
X6646729Y-11691365D01*
X6646729Y-11691365D02*
X6656253Y-11653269D01*
X6656253Y-11653269D02*
X6656253Y-11577079D01*
X6656253Y-11577079D02*
X6646729Y-11558031D01*
X6646729Y-11558031D02*
X6637205Y-11548508D01*
X6637205Y-11548508D02*
X6618158Y-11538984D01*
X6618158Y-11538984D02*
X6580062Y-11538984D01*
X6580062Y-11538984D02*
X6561015Y-11548508D01*
X6561015Y-11548508D02*
X6551491Y-11558031D01*
X6551491Y-11558031D02*
X6541967Y-11577079D01*
X6541967Y-11577079D02*
X6541967Y-11624698D01*
X6541967Y-11624698D02*
X6551491Y-11643746D01*
X6551491Y-11643746D02*
X6561015Y-11653269D01*
X6561015Y-11653269D02*
X6580062Y-11662793D01*
X6580062Y-11662793D02*
X6618158Y-11662793D01*
X6618158Y-11662793D02*
X6637205Y-11653269D01*
X6637205Y-11653269D02*
X6646729Y-11643746D01*
X6646729Y-11643746D02*
X6656253Y-11624698D01*
X6732443Y-11558031D02*
X6741967Y-11548508D01*
X6741967Y-11548508D02*
X6761015Y-11538984D01*
X6761015Y-11538984D02*
X6808634Y-11538984D01*
X6808634Y-11538984D02*
X6827682Y-11548508D01*
X6827682Y-11548508D02*
X6837205Y-11558031D01*
X6837205Y-11558031D02*
X6846729Y-11577079D01*
X6846729Y-11577079D02*
X6846729Y-11596127D01*
X6846729Y-11596127D02*
X6837205Y-11624698D01*
X6837205Y-11624698D02*
X6722920Y-11738984D01*
X6722920Y-11738984D02*
X6846729Y-11738984D01*
X6970539Y-11538984D02*
X6989586Y-11538984D01*
X6989586Y-11538984D02*
X7008634Y-11548508D01*
X7008634Y-11548508D02*
X7018158Y-11558031D01*
X7018158Y-11558031D02*
X7027682Y-11577079D01*
X7027682Y-11577079D02*
X7037205Y-11615174D01*
X7037205Y-11615174D02*
X7037205Y-11662793D01*
X7037205Y-11662793D02*
X7027682Y-11700888D01*
X7027682Y-11700888D02*
X7018158Y-11719936D01*
X7018158Y-11719936D02*
X7008634Y-11729460D01*
X7008634Y-11729460D02*
X6989586Y-11738984D01*
X6989586Y-11738984D02*
X6970539Y-11738984D01*
X6970539Y-11738984D02*
X6951491Y-11729460D01*
X6951491Y-11729460D02*
X6941967Y-11719936D01*
X6941967Y-11719936D02*
X6932443Y-11700888D01*
X6932443Y-11700888D02*
X6922920Y-11662793D01*
X6922920Y-11662793D02*
X6922920Y-11615174D01*
X6922920Y-11615174D02*
X6932443Y-11577079D01*
X6932443Y-11577079D02*
X6941967Y-11558031D01*
X6941967Y-11558031D02*
X6951491Y-11548508D01*
X6951491Y-11548508D02*
X6970539Y-11538984D01*
X7122920Y-11738984D02*
X7122920Y-11605650D01*
X7122920Y-11624698D02*
X7132443Y-11615174D01*
X7132443Y-11615174D02*
X7151491Y-11605650D01*
X7151491Y-11605650D02*
X7180063Y-11605650D01*
X7180063Y-11605650D02*
X7199110Y-11615174D01*
X7199110Y-11615174D02*
X7208634Y-11634222D01*
X7208634Y-11634222D02*
X7208634Y-11738984D01*
X7208634Y-11634222D02*
X7218158Y-11615174D01*
X7218158Y-11615174D02*
X7237205Y-11605650D01*
X7237205Y-11605650D02*
X7265777Y-11605650D01*
X7265777Y-11605650D02*
X7284824Y-11615174D01*
X7284824Y-11615174D02*
X7294348Y-11634222D01*
X7294348Y-11634222D02*
X7294348Y-11738984D01*
X7389586Y-11738984D02*
X7389586Y-11605650D01*
X7389586Y-11624698D02*
X7399110Y-11615174D01*
X7399110Y-11615174D02*
X7418158Y-11605650D01*
X7418158Y-11605650D02*
X7446729Y-11605650D01*
X7446729Y-11605650D02*
X7465777Y-11615174D01*
X7465777Y-11615174D02*
X7475301Y-11634222D01*
X7475301Y-11634222D02*
X7475301Y-11738984D01*
X7475301Y-11634222D02*
X7484824Y-11615174D01*
X7484824Y-11615174D02*
X7503872Y-11605650D01*
X7503872Y-11605650D02*
X7532443Y-11605650D01*
X7532443Y-11605650D02*
X7551491Y-11615174D01*
X7551491Y-11615174D02*
X7561015Y-11634222D01*
X7561015Y-11634222D02*
X7561015Y-11738984D01*
X7951491Y-11529460D02*
X7780063Y-11786603D01*
X8208634Y-11538984D02*
X8227682Y-11538984D01*
X8227682Y-11538984D02*
X8246729Y-11548508D01*
X8246729Y-11548508D02*
X8256253Y-11558031D01*
X8256253Y-11558031D02*
X8265777Y-11577079D01*
X8265777Y-11577079D02*
X8275301Y-11615174D01*
X8275301Y-11615174D02*
X8275301Y-11662793D01*
X8275301Y-11662793D02*
X8265777Y-11700888D01*
X8265777Y-11700888D02*
X8256253Y-11719936D01*
X8256253Y-11719936D02*
X8246729Y-11729460D01*
X8246729Y-11729460D02*
X8227682Y-11738984D01*
X8227682Y-11738984D02*
X8208634Y-11738984D01*
X8208634Y-11738984D02*
X8189586Y-11729460D01*
X8189586Y-11729460D02*
X8180063Y-11719936D01*
X8180063Y-11719936D02*
X8170539Y-11700888D01*
X8170539Y-11700888D02*
X8161015Y-11662793D01*
X8161015Y-11662793D02*
X8161015Y-11615174D01*
X8161015Y-11615174D02*
X8170539Y-11577079D01*
X8170539Y-11577079D02*
X8180063Y-11558031D01*
X8180063Y-11558031D02*
X8189586Y-11548508D01*
X8189586Y-11548508D02*
X8208634Y-11538984D01*
X8361015Y-11719936D02*
X8370539Y-11729460D01*
X8370539Y-11729460D02*
X8361015Y-11738984D01*
X8361015Y-11738984D02*
X8351491Y-11729460D01*
X8351491Y-11729460D02*
X8361015Y-11719936D01*
X8361015Y-11719936D02*
X8361015Y-11738984D01*
X8494348Y-11538984D02*
X8513396Y-11538984D01*
X8513396Y-11538984D02*
X8532444Y-11548508D01*
X8532444Y-11548508D02*
X8541968Y-11558031D01*
X8541968Y-11558031D02*
X8551491Y-11577079D01*
X8551491Y-11577079D02*
X8561015Y-11615174D01*
X8561015Y-11615174D02*
X8561015Y-11662793D01*
X8561015Y-11662793D02*
X8551491Y-11700888D01*
X8551491Y-11700888D02*
X8541968Y-11719936D01*
X8541968Y-11719936D02*
X8532444Y-11729460D01*
X8532444Y-11729460D02*
X8513396Y-11738984D01*
X8513396Y-11738984D02*
X8494348Y-11738984D01*
X8494348Y-11738984D02*
X8475301Y-11729460D01*
X8475301Y-11729460D02*
X8465777Y-11719936D01*
X8465777Y-11719936D02*
X8456253Y-11700888D01*
X8456253Y-11700888D02*
X8446729Y-11662793D01*
X8446729Y-11662793D02*
X8446729Y-11615174D01*
X8446729Y-11615174D02*
X8456253Y-11577079D01*
X8456253Y-11577079D02*
X8465777Y-11558031D01*
X8465777Y-11558031D02*
X8475301Y-11548508D01*
X8475301Y-11548508D02*
X8494348Y-11538984D01*
X8627682Y-11538984D02*
X8751491Y-11538984D01*
X8751491Y-11538984D02*
X8684825Y-11615174D01*
X8684825Y-11615174D02*
X8713396Y-11615174D01*
X8713396Y-11615174D02*
X8732444Y-11624698D01*
X8732444Y-11624698D02*
X8741968Y-11634222D01*
X8741968Y-11634222D02*
X8751491Y-11653269D01*
X8751491Y-11653269D02*
X8751491Y-11700888D01*
X8751491Y-11700888D02*
X8741968Y-11719936D01*
X8741968Y-11719936D02*
X8732444Y-11729460D01*
X8732444Y-11729460D02*
X8713396Y-11738984D01*
X8713396Y-11738984D02*
X8656253Y-11738984D01*
X8656253Y-11738984D02*
X8637206Y-11729460D01*
X8637206Y-11729460D02*
X8627682Y-11719936D01*
X8922920Y-11538984D02*
X8884825Y-11538984D01*
X8884825Y-11538984D02*
X8865777Y-11548508D01*
X8865777Y-11548508D02*
X8856253Y-11558031D01*
X8856253Y-11558031D02*
X8837206Y-11586603D01*
X8837206Y-11586603D02*
X8827682Y-11624698D01*
X8827682Y-11624698D02*
X8827682Y-11700888D01*
X8827682Y-11700888D02*
X8837206Y-11719936D01*
X8837206Y-11719936D02*
X8846729Y-11729460D01*
X8846729Y-11729460D02*
X8865777Y-11738984D01*
X8865777Y-11738984D02*
X8903872Y-11738984D01*
X8903872Y-11738984D02*
X8922920Y-11729460D01*
X8922920Y-11729460D02*
X8932444Y-11719936D01*
X8932444Y-11719936D02*
X8941968Y-11700888D01*
X8941968Y-11700888D02*
X8941968Y-11653269D01*
X8941968Y-11653269D02*
X8932444Y-11634222D01*
X8932444Y-11634222D02*
X8922920Y-11624698D01*
X8922920Y-11624698D02*
X8903872Y-11615174D01*
X8903872Y-11615174D02*
X8865777Y-11615174D01*
X8865777Y-11615174D02*
X8846729Y-11624698D01*
X8846729Y-11624698D02*
X8837206Y-11634222D01*
X8837206Y-11634222D02*
X8827682Y-11653269D01*
X9018158Y-11558031D02*
X9027682Y-11548508D01*
X9027682Y-11548508D02*
X9046729Y-11538984D01*
X9046729Y-11538984D02*
X9094349Y-11538984D01*
X9094349Y-11538984D02*
X9113396Y-11548508D01*
X9113396Y-11548508D02*
X9122920Y-11558031D01*
X9122920Y-11558031D02*
X9132444Y-11577079D01*
X9132444Y-11577079D02*
X9132444Y-11596127D01*
X9132444Y-11596127D02*
X9122920Y-11624698D01*
X9122920Y-11624698D02*
X9008634Y-11738984D01*
X9008634Y-11738984D02*
X9132444Y-11738984D01*
X9208634Y-11538984D02*
X9208634Y-11577079D01*
X9284825Y-11538984D02*
X9284825Y-11577079D01*
X9580063Y-11815174D02*
X9570539Y-11805650D01*
X9570539Y-11805650D02*
X9551491Y-11777079D01*
X9551491Y-11777079D02*
X9541968Y-11758031D01*
X9541968Y-11758031D02*
X9532444Y-11729460D01*
X9532444Y-11729460D02*
X9522920Y-11681841D01*
X9522920Y-11681841D02*
X9522920Y-11643746D01*
X9522920Y-11643746D02*
X9532444Y-11596127D01*
X9532444Y-11596127D02*
X9541968Y-11567555D01*
X9541968Y-11567555D02*
X9551491Y-11548508D01*
X9551491Y-11548508D02*
X9570539Y-11519936D01*
X9570539Y-11519936D02*
X9580063Y-11510412D01*
X9741968Y-11605650D02*
X9741968Y-11738984D01*
X9694349Y-11529460D02*
X9646730Y-11672317D01*
X9646730Y-11672317D02*
X9770539Y-11672317D01*
X9999111Y-11738984D02*
X9999111Y-11538984D01*
X10084825Y-11738984D02*
X10084825Y-11634222D01*
X10084825Y-11634222D02*
X10075301Y-11615174D01*
X10075301Y-11615174D02*
X10056253Y-11605650D01*
X10056253Y-11605650D02*
X10027682Y-11605650D01*
X10027682Y-11605650D02*
X10008634Y-11615174D01*
X10008634Y-11615174D02*
X9999111Y-11624698D01*
X10208634Y-11738984D02*
X10189587Y-11729460D01*
X10189587Y-11729460D02*
X10180063Y-11719936D01*
X10180063Y-11719936D02*
X10170539Y-11700888D01*
X10170539Y-11700888D02*
X10170539Y-11643746D01*
X10170539Y-11643746D02*
X10180063Y-11624698D01*
X10180063Y-11624698D02*
X10189587Y-11615174D01*
X10189587Y-11615174D02*
X10208634Y-11605650D01*
X10208634Y-11605650D02*
X10237206Y-11605650D01*
X10237206Y-11605650D02*
X10256253Y-11615174D01*
X10256253Y-11615174D02*
X10265777Y-11624698D01*
X10265777Y-11624698D02*
X10275301Y-11643746D01*
X10275301Y-11643746D02*
X10275301Y-11700888D01*
X10275301Y-11700888D02*
X10265777Y-11719936D01*
X10265777Y-11719936D02*
X10256253Y-11729460D01*
X10256253Y-11729460D02*
X10237206Y-11738984D01*
X10237206Y-11738984D02*
X10208634Y-11738984D01*
X10389587Y-11738984D02*
X10370539Y-11729460D01*
X10370539Y-11729460D02*
X10361015Y-11710412D01*
X10361015Y-11710412D02*
X10361015Y-11538984D01*
X10541968Y-11729460D02*
X10522920Y-11738984D01*
X10522920Y-11738984D02*
X10484825Y-11738984D01*
X10484825Y-11738984D02*
X10465777Y-11729460D01*
X10465777Y-11729460D02*
X10456253Y-11710412D01*
X10456253Y-11710412D02*
X10456253Y-11634222D01*
X10456253Y-11634222D02*
X10465777Y-11615174D01*
X10465777Y-11615174D02*
X10484825Y-11605650D01*
X10484825Y-11605650D02*
X10522920Y-11605650D01*
X10522920Y-11605650D02*
X10541968Y-11615174D01*
X10541968Y-11615174D02*
X10551492Y-11634222D01*
X10551492Y-11634222D02*
X10551492Y-11653269D01*
X10551492Y-11653269D02*
X10456253Y-11672317D01*
X10627682Y-11729460D02*
X10646730Y-11738984D01*
X10646730Y-11738984D02*
X10684825Y-11738984D01*
X10684825Y-11738984D02*
X10703873Y-11729460D01*
X10703873Y-11729460D02*
X10713396Y-11710412D01*
X10713396Y-11710412D02*
X10713396Y-11700888D01*
X10713396Y-11700888D02*
X10703873Y-11681841D01*
X10703873Y-11681841D02*
X10684825Y-11672317D01*
X10684825Y-11672317D02*
X10656253Y-11672317D01*
X10656253Y-11672317D02*
X10637206Y-11662793D01*
X10637206Y-11662793D02*
X10627682Y-11643746D01*
X10627682Y-11643746D02*
X10627682Y-11634222D01*
X10627682Y-11634222D02*
X10637206Y-11615174D01*
X10637206Y-11615174D02*
X10656253Y-11605650D01*
X10656253Y-11605650D02*
X10684825Y-11605650D01*
X10684825Y-11605650D02*
X10703873Y-11615174D01*
X10780063Y-11815174D02*
X10789587Y-11805650D01*
X10789587Y-11805650D02*
X10808634Y-11777079D01*
X10808634Y-11777079D02*
X10818158Y-11758031D01*
X10818158Y-11758031D02*
X10827682Y-11729460D01*
X10827682Y-11729460D02*
X10837206Y-11681841D01*
X10837206Y-11681841D02*
X10837206Y-11643746D01*
X10837206Y-11643746D02*
X10827682Y-11596127D01*
X10827682Y-11596127D02*
X10818158Y-11567555D01*
X10818158Y-11567555D02*
X10808634Y-11548508D01*
X10808634Y-11548508D02*
X10789587Y-11519936D01*
X10789587Y-11519936D02*
X10780063Y-11510412D01*
D10*
X5905000Y-11861500D02*
X6005000Y-11961500D01*
X6005000Y-11861500D02*
X5905000Y-11961500D01*
X5955000Y-11861500D02*
X5955000Y-11961500D01*
X5905000Y-11911500D02*
X6005000Y-11911500D01*
D11*
X6370539Y-12002984D02*
X6256253Y-12002984D01*
X6313396Y-12002984D02*
X6313396Y-11802984D01*
X6313396Y-11802984D02*
X6294348Y-11831555D01*
X6294348Y-11831555D02*
X6275301Y-11850603D01*
X6275301Y-11850603D02*
X6256253Y-11860127D01*
X6456253Y-11983936D02*
X6465777Y-11993460D01*
X6465777Y-11993460D02*
X6456253Y-12002984D01*
X6456253Y-12002984D02*
X6446729Y-11993460D01*
X6446729Y-11993460D02*
X6456253Y-11983936D01*
X6456253Y-11983936D02*
X6456253Y-12002984D01*
X6589586Y-11802984D02*
X6608634Y-11802984D01*
X6608634Y-11802984D02*
X6627682Y-11812508D01*
X6627682Y-11812508D02*
X6637205Y-11822031D01*
X6637205Y-11822031D02*
X6646729Y-11841079D01*
X6646729Y-11841079D02*
X6656253Y-11879174D01*
X6656253Y-11879174D02*
X6656253Y-11926793D01*
X6656253Y-11926793D02*
X6646729Y-11964888D01*
X6646729Y-11964888D02*
X6637205Y-11983936D01*
X6637205Y-11983936D02*
X6627682Y-11993460D01*
X6627682Y-11993460D02*
X6608634Y-12002984D01*
X6608634Y-12002984D02*
X6589586Y-12002984D01*
X6589586Y-12002984D02*
X6570539Y-11993460D01*
X6570539Y-11993460D02*
X6561015Y-11983936D01*
X6561015Y-11983936D02*
X6551491Y-11964888D01*
X6551491Y-11964888D02*
X6541967Y-11926793D01*
X6541967Y-11926793D02*
X6541967Y-11879174D01*
X6541967Y-11879174D02*
X6551491Y-11841079D01*
X6551491Y-11841079D02*
X6561015Y-11822031D01*
X6561015Y-11822031D02*
X6570539Y-11812508D01*
X6570539Y-11812508D02*
X6589586Y-11802984D01*
X6780062Y-11802984D02*
X6799110Y-11802984D01*
X6799110Y-11802984D02*
X6818158Y-11812508D01*
X6818158Y-11812508D02*
X6827682Y-11822031D01*
X6827682Y-11822031D02*
X6837205Y-11841079D01*
X6837205Y-11841079D02*
X6846729Y-11879174D01*
X6846729Y-11879174D02*
X6846729Y-11926793D01*
X6846729Y-11926793D02*
X6837205Y-11964888D01*
X6837205Y-11964888D02*
X6827682Y-11983936D01*
X6827682Y-11983936D02*
X6818158Y-11993460D01*
X6818158Y-11993460D02*
X6799110Y-12002984D01*
X6799110Y-12002984D02*
X6780062Y-12002984D01*
X6780062Y-12002984D02*
X6761015Y-11993460D01*
X6761015Y-11993460D02*
X6751491Y-11983936D01*
X6751491Y-11983936D02*
X6741967Y-11964888D01*
X6741967Y-11964888D02*
X6732443Y-11926793D01*
X6732443Y-11926793D02*
X6732443Y-11879174D01*
X6732443Y-11879174D02*
X6741967Y-11841079D01*
X6741967Y-11841079D02*
X6751491Y-11822031D01*
X6751491Y-11822031D02*
X6761015Y-11812508D01*
X6761015Y-11812508D02*
X6780062Y-11802984D01*
X6970539Y-11802984D02*
X6989586Y-11802984D01*
X6989586Y-11802984D02*
X7008634Y-11812508D01*
X7008634Y-11812508D02*
X7018158Y-11822031D01*
X7018158Y-11822031D02*
X7027682Y-11841079D01*
X7027682Y-11841079D02*
X7037205Y-11879174D01*
X7037205Y-11879174D02*
X7037205Y-11926793D01*
X7037205Y-11926793D02*
X7027682Y-11964888D01*
X7027682Y-11964888D02*
X7018158Y-11983936D01*
X7018158Y-11983936D02*
X7008634Y-11993460D01*
X7008634Y-11993460D02*
X6989586Y-12002984D01*
X6989586Y-12002984D02*
X6970539Y-12002984D01*
X6970539Y-12002984D02*
X6951491Y-11993460D01*
X6951491Y-11993460D02*
X6941967Y-11983936D01*
X6941967Y-11983936D02*
X6932443Y-11964888D01*
X6932443Y-11964888D02*
X6922920Y-11926793D01*
X6922920Y-11926793D02*
X6922920Y-11879174D01*
X6922920Y-11879174D02*
X6932443Y-11841079D01*
X6932443Y-11841079D02*
X6941967Y-11822031D01*
X6941967Y-11822031D02*
X6951491Y-11812508D01*
X6951491Y-11812508D02*
X6970539Y-11802984D01*
X7122920Y-12002984D02*
X7122920Y-11869650D01*
X7122920Y-11888698D02*
X7132443Y-11879174D01*
X7132443Y-11879174D02*
X7151491Y-11869650D01*
X7151491Y-11869650D02*
X7180063Y-11869650D01*
X7180063Y-11869650D02*
X7199110Y-11879174D01*
X7199110Y-11879174D02*
X7208634Y-11898222D01*
X7208634Y-11898222D02*
X7208634Y-12002984D01*
X7208634Y-11898222D02*
X7218158Y-11879174D01*
X7218158Y-11879174D02*
X7237205Y-11869650D01*
X7237205Y-11869650D02*
X7265777Y-11869650D01*
X7265777Y-11869650D02*
X7284824Y-11879174D01*
X7284824Y-11879174D02*
X7294348Y-11898222D01*
X7294348Y-11898222D02*
X7294348Y-12002984D01*
X7389586Y-12002984D02*
X7389586Y-11869650D01*
X7389586Y-11888698D02*
X7399110Y-11879174D01*
X7399110Y-11879174D02*
X7418158Y-11869650D01*
X7418158Y-11869650D02*
X7446729Y-11869650D01*
X7446729Y-11869650D02*
X7465777Y-11879174D01*
X7465777Y-11879174D02*
X7475301Y-11898222D01*
X7475301Y-11898222D02*
X7475301Y-12002984D01*
X7475301Y-11898222D02*
X7484824Y-11879174D01*
X7484824Y-11879174D02*
X7503872Y-11869650D01*
X7503872Y-11869650D02*
X7532443Y-11869650D01*
X7532443Y-11869650D02*
X7551491Y-11879174D01*
X7551491Y-11879174D02*
X7561015Y-11898222D01*
X7561015Y-11898222D02*
X7561015Y-12002984D01*
X7951491Y-11793460D02*
X7780063Y-12050603D01*
X8208634Y-11802984D02*
X8227682Y-11802984D01*
X8227682Y-11802984D02*
X8246729Y-11812508D01*
X8246729Y-11812508D02*
X8256253Y-11822031D01*
X8256253Y-11822031D02*
X8265777Y-11841079D01*
X8265777Y-11841079D02*
X8275301Y-11879174D01*
X8275301Y-11879174D02*
X8275301Y-11926793D01*
X8275301Y-11926793D02*
X8265777Y-11964888D01*
X8265777Y-11964888D02*
X8256253Y-11983936D01*
X8256253Y-11983936D02*
X8246729Y-11993460D01*
X8246729Y-11993460D02*
X8227682Y-12002984D01*
X8227682Y-12002984D02*
X8208634Y-12002984D01*
X8208634Y-12002984D02*
X8189586Y-11993460D01*
X8189586Y-11993460D02*
X8180063Y-11983936D01*
X8180063Y-11983936D02*
X8170539Y-11964888D01*
X8170539Y-11964888D02*
X8161015Y-11926793D01*
X8161015Y-11926793D02*
X8161015Y-11879174D01*
X8161015Y-11879174D02*
X8170539Y-11841079D01*
X8170539Y-11841079D02*
X8180063Y-11822031D01*
X8180063Y-11822031D02*
X8189586Y-11812508D01*
X8189586Y-11812508D02*
X8208634Y-11802984D01*
X8361015Y-11983936D02*
X8370539Y-11993460D01*
X8370539Y-11993460D02*
X8361015Y-12002984D01*
X8361015Y-12002984D02*
X8351491Y-11993460D01*
X8351491Y-11993460D02*
X8361015Y-11983936D01*
X8361015Y-11983936D02*
X8361015Y-12002984D01*
X8494348Y-11802984D02*
X8513396Y-11802984D01*
X8513396Y-11802984D02*
X8532444Y-11812508D01*
X8532444Y-11812508D02*
X8541968Y-11822031D01*
X8541968Y-11822031D02*
X8551491Y-11841079D01*
X8551491Y-11841079D02*
X8561015Y-11879174D01*
X8561015Y-11879174D02*
X8561015Y-11926793D01*
X8561015Y-11926793D02*
X8551491Y-11964888D01*
X8551491Y-11964888D02*
X8541968Y-11983936D01*
X8541968Y-11983936D02*
X8532444Y-11993460D01*
X8532444Y-11993460D02*
X8513396Y-12002984D01*
X8513396Y-12002984D02*
X8494348Y-12002984D01*
X8494348Y-12002984D02*
X8475301Y-11993460D01*
X8475301Y-11993460D02*
X8465777Y-11983936D01*
X8465777Y-11983936D02*
X8456253Y-11964888D01*
X8456253Y-11964888D02*
X8446729Y-11926793D01*
X8446729Y-11926793D02*
X8446729Y-11879174D01*
X8446729Y-11879174D02*
X8456253Y-11841079D01*
X8456253Y-11841079D02*
X8465777Y-11822031D01*
X8465777Y-11822031D02*
X8475301Y-11812508D01*
X8475301Y-11812508D02*
X8494348Y-11802984D01*
X8627682Y-11802984D02*
X8751491Y-11802984D01*
X8751491Y-11802984D02*
X8684825Y-11879174D01*
X8684825Y-11879174D02*
X8713396Y-11879174D01*
X8713396Y-11879174D02*
X8732444Y-11888698D01*
X8732444Y-11888698D02*
X8741968Y-11898222D01*
X8741968Y-11898222D02*
X8751491Y-11917269D01*
X8751491Y-11917269D02*
X8751491Y-11964888D01*
X8751491Y-11964888D02*
X8741968Y-11983936D01*
X8741968Y-11983936D02*
X8732444Y-11993460D01*
X8732444Y-11993460D02*
X8713396Y-12002984D01*
X8713396Y-12002984D02*
X8656253Y-12002984D01*
X8656253Y-12002984D02*
X8637206Y-11993460D01*
X8637206Y-11993460D02*
X8627682Y-11983936D01*
X8846729Y-12002984D02*
X8884825Y-12002984D01*
X8884825Y-12002984D02*
X8903872Y-11993460D01*
X8903872Y-11993460D02*
X8913396Y-11983936D01*
X8913396Y-11983936D02*
X8932444Y-11955365D01*
X8932444Y-11955365D02*
X8941968Y-11917269D01*
X8941968Y-11917269D02*
X8941968Y-11841079D01*
X8941968Y-11841079D02*
X8932444Y-11822031D01*
X8932444Y-11822031D02*
X8922920Y-11812508D01*
X8922920Y-11812508D02*
X8903872Y-11802984D01*
X8903872Y-11802984D02*
X8865777Y-11802984D01*
X8865777Y-11802984D02*
X8846729Y-11812508D01*
X8846729Y-11812508D02*
X8837206Y-11822031D01*
X8837206Y-11822031D02*
X8827682Y-11841079D01*
X8827682Y-11841079D02*
X8827682Y-11888698D01*
X8827682Y-11888698D02*
X8837206Y-11907746D01*
X8837206Y-11907746D02*
X8846729Y-11917269D01*
X8846729Y-11917269D02*
X8865777Y-11926793D01*
X8865777Y-11926793D02*
X8903872Y-11926793D01*
X8903872Y-11926793D02*
X8922920Y-11917269D01*
X8922920Y-11917269D02*
X8932444Y-11907746D01*
X8932444Y-11907746D02*
X8941968Y-11888698D01*
X9113396Y-11869650D02*
X9113396Y-12002984D01*
X9065777Y-11793460D02*
X9018158Y-11936317D01*
X9018158Y-11936317D02*
X9141968Y-11936317D01*
X9208634Y-11802984D02*
X9208634Y-11841079D01*
X9284825Y-11802984D02*
X9284825Y-11841079D01*
X9580063Y-12079174D02*
X9570539Y-12069650D01*
X9570539Y-12069650D02*
X9551491Y-12041079D01*
X9551491Y-12041079D02*
X9541968Y-12022031D01*
X9541968Y-12022031D02*
X9532444Y-11993460D01*
X9532444Y-11993460D02*
X9522920Y-11945841D01*
X9522920Y-11945841D02*
X9522920Y-11907746D01*
X9522920Y-11907746D02*
X9532444Y-11860127D01*
X9532444Y-11860127D02*
X9541968Y-11831555D01*
X9541968Y-11831555D02*
X9551491Y-11812508D01*
X9551491Y-11812508D02*
X9570539Y-11783936D01*
X9570539Y-11783936D02*
X9580063Y-11774412D01*
X9741968Y-11869650D02*
X9741968Y-12002984D01*
X9694349Y-11793460D02*
X9646730Y-11936317D01*
X9646730Y-11936317D02*
X9770539Y-11936317D01*
X9932444Y-11802984D02*
X9894349Y-11802984D01*
X9894349Y-11802984D02*
X9875301Y-11812508D01*
X9875301Y-11812508D02*
X9865777Y-11822031D01*
X9865777Y-11822031D02*
X9846730Y-11850603D01*
X9846730Y-11850603D02*
X9837206Y-11888698D01*
X9837206Y-11888698D02*
X9837206Y-11964888D01*
X9837206Y-11964888D02*
X9846730Y-11983936D01*
X9846730Y-11983936D02*
X9856253Y-11993460D01*
X9856253Y-11993460D02*
X9875301Y-12002984D01*
X9875301Y-12002984D02*
X9913396Y-12002984D01*
X9913396Y-12002984D02*
X9932444Y-11993460D01*
X9932444Y-11993460D02*
X9941968Y-11983936D01*
X9941968Y-11983936D02*
X9951491Y-11964888D01*
X9951491Y-11964888D02*
X9951491Y-11917269D01*
X9951491Y-11917269D02*
X9941968Y-11898222D01*
X9941968Y-11898222D02*
X9932444Y-11888698D01*
X9932444Y-11888698D02*
X9913396Y-11879174D01*
X9913396Y-11879174D02*
X9875301Y-11879174D01*
X9875301Y-11879174D02*
X9856253Y-11888698D01*
X9856253Y-11888698D02*
X9846730Y-11898222D01*
X9846730Y-11898222D02*
X9837206Y-11917269D01*
X10189587Y-12002984D02*
X10189587Y-11802984D01*
X10275301Y-12002984D02*
X10275301Y-11898222D01*
X10275301Y-11898222D02*
X10265777Y-11879174D01*
X10265777Y-11879174D02*
X10246730Y-11869650D01*
X10246730Y-11869650D02*
X10218158Y-11869650D01*
X10218158Y-11869650D02*
X10199111Y-11879174D01*
X10199111Y-11879174D02*
X10189587Y-11888698D01*
X10399111Y-12002984D02*
X10380063Y-11993460D01*
X10380063Y-11993460D02*
X10370539Y-11983936D01*
X10370539Y-11983936D02*
X10361015Y-11964888D01*
X10361015Y-11964888D02*
X10361015Y-11907746D01*
X10361015Y-11907746D02*
X10370539Y-11888698D01*
X10370539Y-11888698D02*
X10380063Y-11879174D01*
X10380063Y-11879174D02*
X10399111Y-11869650D01*
X10399111Y-11869650D02*
X10427682Y-11869650D01*
X10427682Y-11869650D02*
X10446730Y-11879174D01*
X10446730Y-11879174D02*
X10456253Y-11888698D01*
X10456253Y-11888698D02*
X10465777Y-11907746D01*
X10465777Y-11907746D02*
X10465777Y-11964888D01*
X10465777Y-11964888D02*
X10456253Y-11983936D01*
X10456253Y-11983936D02*
X10446730Y-11993460D01*
X10446730Y-11993460D02*
X10427682Y-12002984D01*
X10427682Y-12002984D02*
X10399111Y-12002984D01*
X10580063Y-12002984D02*
X10561015Y-11993460D01*
X10561015Y-11993460D02*
X10551492Y-11974412D01*
X10551492Y-11974412D02*
X10551492Y-11802984D01*
X10732444Y-11993460D02*
X10713396Y-12002984D01*
X10713396Y-12002984D02*
X10675301Y-12002984D01*
X10675301Y-12002984D02*
X10656253Y-11993460D01*
X10656253Y-11993460D02*
X10646730Y-11974412D01*
X10646730Y-11974412D02*
X10646730Y-11898222D01*
X10646730Y-11898222D02*
X10656253Y-11879174D01*
X10656253Y-11879174D02*
X10675301Y-11869650D01*
X10675301Y-11869650D02*
X10713396Y-11869650D01*
X10713396Y-11869650D02*
X10732444Y-11879174D01*
X10732444Y-11879174D02*
X10741968Y-11898222D01*
X10741968Y-11898222D02*
X10741968Y-11917269D01*
X10741968Y-11917269D02*
X10646730Y-11936317D01*
X10818158Y-11993460D02*
X10837206Y-12002984D01*
X10837206Y-12002984D02*
X10875301Y-12002984D01*
X10875301Y-12002984D02*
X10894349Y-11993460D01*
X10894349Y-11993460D02*
X10903873Y-11974412D01*
X10903873Y-11974412D02*
X10903873Y-11964888D01*
X10903873Y-11964888D02*
X10894349Y-11945841D01*
X10894349Y-11945841D02*
X10875301Y-11936317D01*
X10875301Y-11936317D02*
X10846730Y-11936317D01*
X10846730Y-11936317D02*
X10827682Y-11926793D01*
X10827682Y-11926793D02*
X10818158Y-11907746D01*
X10818158Y-11907746D02*
X10818158Y-11898222D01*
X10818158Y-11898222D02*
X10827682Y-11879174D01*
X10827682Y-11879174D02*
X10846730Y-11869650D01*
X10846730Y-11869650D02*
X10875301Y-11869650D01*
X10875301Y-11869650D02*
X10894349Y-11879174D01*
X10970539Y-12079174D02*
X10980063Y-12069650D01*
X10980063Y-12069650D02*
X10999111Y-12041079D01*
X10999111Y-12041079D02*
X11008634Y-12022031D01*
X11008634Y-12022031D02*
X11018158Y-11993460D01*
X11018158Y-11993460D02*
X11027682Y-11945841D01*
X11027682Y-11945841D02*
X11027682Y-11907746D01*
X11027682Y-11907746D02*
X11018158Y-11860127D01*
X11018158Y-11860127D02*
X11008634Y-11831555D01*
X11008634Y-11831555D02*
X10999111Y-11812508D01*
X10999111Y-11812508D02*
X10980063Y-11783936D01*
X10980063Y-11783936D02*
X10970539Y-11774412D01*
D18*
X5895000Y-12120500D02*
X6005000Y-12230500D01*
X6005000Y-12120500D02*
X5895000Y-12230500D01*
X5988891Y-12214391D02*
X5988891Y-12136609D01*
X5911109Y-12136609D01*
X5911109Y-12214391D01*
X5988891Y-12214391D01*
D11*
X6370539Y-12266984D02*
X6256253Y-12266984D01*
X6313396Y-12266984D02*
X6313396Y-12066984D01*
X6313396Y-12066984D02*
X6294348Y-12095555D01*
X6294348Y-12095555D02*
X6275301Y-12114603D01*
X6275301Y-12114603D02*
X6256253Y-12124127D01*
X6456253Y-12247936D02*
X6465777Y-12257460D01*
X6465777Y-12257460D02*
X6456253Y-12266984D01*
X6456253Y-12266984D02*
X6446729Y-12257460D01*
X6446729Y-12257460D02*
X6456253Y-12247936D01*
X6456253Y-12247936D02*
X6456253Y-12266984D01*
X6656253Y-12266984D02*
X6541967Y-12266984D01*
X6599110Y-12266984D02*
X6599110Y-12066984D01*
X6599110Y-12066984D02*
X6580062Y-12095555D01*
X6580062Y-12095555D02*
X6561015Y-12114603D01*
X6561015Y-12114603D02*
X6541967Y-12124127D01*
X6780062Y-12066984D02*
X6799110Y-12066984D01*
X6799110Y-12066984D02*
X6818158Y-12076508D01*
X6818158Y-12076508D02*
X6827682Y-12086031D01*
X6827682Y-12086031D02*
X6837205Y-12105079D01*
X6837205Y-12105079D02*
X6846729Y-12143174D01*
X6846729Y-12143174D02*
X6846729Y-12190793D01*
X6846729Y-12190793D02*
X6837205Y-12228888D01*
X6837205Y-12228888D02*
X6827682Y-12247936D01*
X6827682Y-12247936D02*
X6818158Y-12257460D01*
X6818158Y-12257460D02*
X6799110Y-12266984D01*
X6799110Y-12266984D02*
X6780062Y-12266984D01*
X6780062Y-12266984D02*
X6761015Y-12257460D01*
X6761015Y-12257460D02*
X6751491Y-12247936D01*
X6751491Y-12247936D02*
X6741967Y-12228888D01*
X6741967Y-12228888D02*
X6732443Y-12190793D01*
X6732443Y-12190793D02*
X6732443Y-12143174D01*
X6732443Y-12143174D02*
X6741967Y-12105079D01*
X6741967Y-12105079D02*
X6751491Y-12086031D01*
X6751491Y-12086031D02*
X6761015Y-12076508D01*
X6761015Y-12076508D02*
X6780062Y-12066984D01*
X6970539Y-12066984D02*
X6989586Y-12066984D01*
X6989586Y-12066984D02*
X7008634Y-12076508D01*
X7008634Y-12076508D02*
X7018158Y-12086031D01*
X7018158Y-12086031D02*
X7027682Y-12105079D01*
X7027682Y-12105079D02*
X7037205Y-12143174D01*
X7037205Y-12143174D02*
X7037205Y-12190793D01*
X7037205Y-12190793D02*
X7027682Y-12228888D01*
X7027682Y-12228888D02*
X7018158Y-12247936D01*
X7018158Y-12247936D02*
X7008634Y-12257460D01*
X7008634Y-12257460D02*
X6989586Y-12266984D01*
X6989586Y-12266984D02*
X6970539Y-12266984D01*
X6970539Y-12266984D02*
X6951491Y-12257460D01*
X6951491Y-12257460D02*
X6941967Y-12247936D01*
X6941967Y-12247936D02*
X6932443Y-12228888D01*
X6932443Y-12228888D02*
X6922920Y-12190793D01*
X6922920Y-12190793D02*
X6922920Y-12143174D01*
X6922920Y-12143174D02*
X6932443Y-12105079D01*
X6932443Y-12105079D02*
X6941967Y-12086031D01*
X6941967Y-12086031D02*
X6951491Y-12076508D01*
X6951491Y-12076508D02*
X6970539Y-12066984D01*
X7122920Y-12266984D02*
X7122920Y-12133650D01*
X7122920Y-12152698D02*
X7132443Y-12143174D01*
X7132443Y-12143174D02*
X7151491Y-12133650D01*
X7151491Y-12133650D02*
X7180063Y-12133650D01*
X7180063Y-12133650D02*
X7199110Y-12143174D01*
X7199110Y-12143174D02*
X7208634Y-12162222D01*
X7208634Y-12162222D02*
X7208634Y-12266984D01*
X7208634Y-12162222D02*
X7218158Y-12143174D01*
X7218158Y-12143174D02*
X7237205Y-12133650D01*
X7237205Y-12133650D02*
X7265777Y-12133650D01*
X7265777Y-12133650D02*
X7284824Y-12143174D01*
X7284824Y-12143174D02*
X7294348Y-12162222D01*
X7294348Y-12162222D02*
X7294348Y-12266984D01*
X7389586Y-12266984D02*
X7389586Y-12133650D01*
X7389586Y-12152698D02*
X7399110Y-12143174D01*
X7399110Y-12143174D02*
X7418158Y-12133650D01*
X7418158Y-12133650D02*
X7446729Y-12133650D01*
X7446729Y-12133650D02*
X7465777Y-12143174D01*
X7465777Y-12143174D02*
X7475301Y-12162222D01*
X7475301Y-12162222D02*
X7475301Y-12266984D01*
X7475301Y-12162222D02*
X7484824Y-12143174D01*
X7484824Y-12143174D02*
X7503872Y-12133650D01*
X7503872Y-12133650D02*
X7532443Y-12133650D01*
X7532443Y-12133650D02*
X7551491Y-12143174D01*
X7551491Y-12143174D02*
X7561015Y-12162222D01*
X7561015Y-12162222D02*
X7561015Y-12266984D01*
X7951491Y-12057460D02*
X7780063Y-12314603D01*
X8208634Y-12066984D02*
X8227682Y-12066984D01*
X8227682Y-12066984D02*
X8246729Y-12076508D01*
X8246729Y-12076508D02*
X8256253Y-12086031D01*
X8256253Y-12086031D02*
X8265777Y-12105079D01*
X8265777Y-12105079D02*
X8275301Y-12143174D01*
X8275301Y-12143174D02*
X8275301Y-12190793D01*
X8275301Y-12190793D02*
X8265777Y-12228888D01*
X8265777Y-12228888D02*
X8256253Y-12247936D01*
X8256253Y-12247936D02*
X8246729Y-12257460D01*
X8246729Y-12257460D02*
X8227682Y-12266984D01*
X8227682Y-12266984D02*
X8208634Y-12266984D01*
X8208634Y-12266984D02*
X8189586Y-12257460D01*
X8189586Y-12257460D02*
X8180063Y-12247936D01*
X8180063Y-12247936D02*
X8170539Y-12228888D01*
X8170539Y-12228888D02*
X8161015Y-12190793D01*
X8161015Y-12190793D02*
X8161015Y-12143174D01*
X8161015Y-12143174D02*
X8170539Y-12105079D01*
X8170539Y-12105079D02*
X8180063Y-12086031D01*
X8180063Y-12086031D02*
X8189586Y-12076508D01*
X8189586Y-12076508D02*
X8208634Y-12066984D01*
X8361015Y-12247936D02*
X8370539Y-12257460D01*
X8370539Y-12257460D02*
X8361015Y-12266984D01*
X8361015Y-12266984D02*
X8351491Y-12257460D01*
X8351491Y-12257460D02*
X8361015Y-12247936D01*
X8361015Y-12247936D02*
X8361015Y-12266984D01*
X8494348Y-12066984D02*
X8513396Y-12066984D01*
X8513396Y-12066984D02*
X8532444Y-12076508D01*
X8532444Y-12076508D02*
X8541968Y-12086031D01*
X8541968Y-12086031D02*
X8551491Y-12105079D01*
X8551491Y-12105079D02*
X8561015Y-12143174D01*
X8561015Y-12143174D02*
X8561015Y-12190793D01*
X8561015Y-12190793D02*
X8551491Y-12228888D01*
X8551491Y-12228888D02*
X8541968Y-12247936D01*
X8541968Y-12247936D02*
X8532444Y-12257460D01*
X8532444Y-12257460D02*
X8513396Y-12266984D01*
X8513396Y-12266984D02*
X8494348Y-12266984D01*
X8494348Y-12266984D02*
X8475301Y-12257460D01*
X8475301Y-12257460D02*
X8465777Y-12247936D01*
X8465777Y-12247936D02*
X8456253Y-12228888D01*
X8456253Y-12228888D02*
X8446729Y-12190793D01*
X8446729Y-12190793D02*
X8446729Y-12143174D01*
X8446729Y-12143174D02*
X8456253Y-12105079D01*
X8456253Y-12105079D02*
X8465777Y-12086031D01*
X8465777Y-12086031D02*
X8475301Y-12076508D01*
X8475301Y-12076508D02*
X8494348Y-12066984D01*
X8732444Y-12133650D02*
X8732444Y-12266984D01*
X8684825Y-12057460D02*
X8637206Y-12200317D01*
X8637206Y-12200317D02*
X8761015Y-12200317D01*
X8818158Y-12066984D02*
X8941968Y-12066984D01*
X8941968Y-12066984D02*
X8875301Y-12143174D01*
X8875301Y-12143174D02*
X8903872Y-12143174D01*
X8903872Y-12143174D02*
X8922920Y-12152698D01*
X8922920Y-12152698D02*
X8932444Y-12162222D01*
X8932444Y-12162222D02*
X8941968Y-12181269D01*
X8941968Y-12181269D02*
X8941968Y-12228888D01*
X8941968Y-12228888D02*
X8932444Y-12247936D01*
X8932444Y-12247936D02*
X8922920Y-12257460D01*
X8922920Y-12257460D02*
X8903872Y-12266984D01*
X8903872Y-12266984D02*
X8846729Y-12266984D01*
X8846729Y-12266984D02*
X8827682Y-12257460D01*
X8827682Y-12257460D02*
X8818158Y-12247936D01*
X9008634Y-12066984D02*
X9132444Y-12066984D01*
X9132444Y-12066984D02*
X9065777Y-12143174D01*
X9065777Y-12143174D02*
X9094349Y-12143174D01*
X9094349Y-12143174D02*
X9113396Y-12152698D01*
X9113396Y-12152698D02*
X9122920Y-12162222D01*
X9122920Y-12162222D02*
X9132444Y-12181269D01*
X9132444Y-12181269D02*
X9132444Y-12228888D01*
X9132444Y-12228888D02*
X9122920Y-12247936D01*
X9122920Y-12247936D02*
X9113396Y-12257460D01*
X9113396Y-12257460D02*
X9094349Y-12266984D01*
X9094349Y-12266984D02*
X9037206Y-12266984D01*
X9037206Y-12266984D02*
X9018158Y-12257460D01*
X9018158Y-12257460D02*
X9008634Y-12247936D01*
X9208634Y-12066984D02*
X9208634Y-12105079D01*
X9284825Y-12066984D02*
X9284825Y-12105079D01*
X9580063Y-12343174D02*
X9570539Y-12333650D01*
X9570539Y-12333650D02*
X9551491Y-12305079D01*
X9551491Y-12305079D02*
X9541968Y-12286031D01*
X9541968Y-12286031D02*
X9532444Y-12257460D01*
X9532444Y-12257460D02*
X9522920Y-12209841D01*
X9522920Y-12209841D02*
X9522920Y-12171746D01*
X9522920Y-12171746D02*
X9532444Y-12124127D01*
X9532444Y-12124127D02*
X9541968Y-12095555D01*
X9541968Y-12095555D02*
X9551491Y-12076508D01*
X9551491Y-12076508D02*
X9570539Y-12047936D01*
X9570539Y-12047936D02*
X9580063Y-12038412D01*
X9761015Y-12266984D02*
X9646730Y-12266984D01*
X9703872Y-12266984D02*
X9703872Y-12066984D01*
X9703872Y-12066984D02*
X9684825Y-12095555D01*
X9684825Y-12095555D02*
X9665777Y-12114603D01*
X9665777Y-12114603D02*
X9646730Y-12124127D01*
X9837206Y-12086031D02*
X9846730Y-12076508D01*
X9846730Y-12076508D02*
X9865777Y-12066984D01*
X9865777Y-12066984D02*
X9913396Y-12066984D01*
X9913396Y-12066984D02*
X9932444Y-12076508D01*
X9932444Y-12076508D02*
X9941968Y-12086031D01*
X9941968Y-12086031D02*
X9951491Y-12105079D01*
X9951491Y-12105079D02*
X9951491Y-12124127D01*
X9951491Y-12124127D02*
X9941968Y-12152698D01*
X9941968Y-12152698D02*
X9827682Y-12266984D01*
X9827682Y-12266984D02*
X9951491Y-12266984D01*
X10189587Y-12266984D02*
X10189587Y-12066984D01*
X10275301Y-12266984D02*
X10275301Y-12162222D01*
X10275301Y-12162222D02*
X10265777Y-12143174D01*
X10265777Y-12143174D02*
X10246730Y-12133650D01*
X10246730Y-12133650D02*
X10218158Y-12133650D01*
X10218158Y-12133650D02*
X10199111Y-12143174D01*
X10199111Y-12143174D02*
X10189587Y-12152698D01*
X10399111Y-12266984D02*
X10380063Y-12257460D01*
X10380063Y-12257460D02*
X10370539Y-12247936D01*
X10370539Y-12247936D02*
X10361015Y-12228888D01*
X10361015Y-12228888D02*
X10361015Y-12171746D01*
X10361015Y-12171746D02*
X10370539Y-12152698D01*
X10370539Y-12152698D02*
X10380063Y-12143174D01*
X10380063Y-12143174D02*
X10399111Y-12133650D01*
X10399111Y-12133650D02*
X10427682Y-12133650D01*
X10427682Y-12133650D02*
X10446730Y-12143174D01*
X10446730Y-12143174D02*
X10456253Y-12152698D01*
X10456253Y-12152698D02*
X10465777Y-12171746D01*
X10465777Y-12171746D02*
X10465777Y-12228888D01*
X10465777Y-12228888D02*
X10456253Y-12247936D01*
X10456253Y-12247936D02*
X10446730Y-12257460D01*
X10446730Y-12257460D02*
X10427682Y-12266984D01*
X10427682Y-12266984D02*
X10399111Y-12266984D01*
X10580063Y-12266984D02*
X10561015Y-12257460D01*
X10561015Y-12257460D02*
X10551492Y-12238412D01*
X10551492Y-12238412D02*
X10551492Y-12066984D01*
X10732444Y-12257460D02*
X10713396Y-12266984D01*
X10713396Y-12266984D02*
X10675301Y-12266984D01*
X10675301Y-12266984D02*
X10656253Y-12257460D01*
X10656253Y-12257460D02*
X10646730Y-12238412D01*
X10646730Y-12238412D02*
X10646730Y-12162222D01*
X10646730Y-12162222D02*
X10656253Y-12143174D01*
X10656253Y-12143174D02*
X10675301Y-12133650D01*
X10675301Y-12133650D02*
X10713396Y-12133650D01*
X10713396Y-12133650D02*
X10732444Y-12143174D01*
X10732444Y-12143174D02*
X10741968Y-12162222D01*
X10741968Y-12162222D02*
X10741968Y-12181269D01*
X10741968Y-12181269D02*
X10646730Y-12200317D01*
X10818158Y-12257460D02*
X10837206Y-12266984D01*
X10837206Y-12266984D02*
X10875301Y-12266984D01*
X10875301Y-12266984D02*
X10894349Y-12257460D01*
X10894349Y-12257460D02*
X10903873Y-12238412D01*
X10903873Y-12238412D02*
X10903873Y-12228888D01*
X10903873Y-12228888D02*
X10894349Y-12209841D01*
X10894349Y-12209841D02*
X10875301Y-12200317D01*
X10875301Y-12200317D02*
X10846730Y-12200317D01*
X10846730Y-12200317D02*
X10827682Y-12190793D01*
X10827682Y-12190793D02*
X10818158Y-12171746D01*
X10818158Y-12171746D02*
X10818158Y-12162222D01*
X10818158Y-12162222D02*
X10827682Y-12143174D01*
X10827682Y-12143174D02*
X10846730Y-12133650D01*
X10846730Y-12133650D02*
X10875301Y-12133650D01*
X10875301Y-12133650D02*
X10894349Y-12143174D01*
X10970539Y-12343174D02*
X10980063Y-12333650D01*
X10980063Y-12333650D02*
X10999111Y-12305079D01*
X10999111Y-12305079D02*
X11008634Y-12286031D01*
X11008634Y-12286031D02*
X11018158Y-12257460D01*
X11018158Y-12257460D02*
X11027682Y-12209841D01*
X11027682Y-12209841D02*
X11027682Y-12171746D01*
X11027682Y-12171746D02*
X11018158Y-12124127D01*
X11018158Y-12124127D02*
X11008634Y-12095555D01*
X11008634Y-12095555D02*
X10999111Y-12076508D01*
X10999111Y-12076508D02*
X10980063Y-12047936D01*
X10980063Y-12047936D02*
X10970539Y-12038412D01*
X5805000Y-12339500D02*
X6005000Y-12539500D01*
X6005000Y-12339500D02*
X5805000Y-12539500D01*
X5905000Y-12539500D02*
X6005000Y-12439500D01*
X5905000Y-12339500D01*
X5805000Y-12439500D01*
X5905000Y-12539500D01*
X6256253Y-12350031D02*
X6265777Y-12340508D01*
X6265777Y-12340508D02*
X6284824Y-12330984D01*
X6284824Y-12330984D02*
X6332443Y-12330984D01*
X6332443Y-12330984D02*
X6351491Y-12340508D01*
X6351491Y-12340508D02*
X6361015Y-12350031D01*
X6361015Y-12350031D02*
X6370539Y-12369079D01*
X6370539Y-12369079D02*
X6370539Y-12388127D01*
X6370539Y-12388127D02*
X6361015Y-12416698D01*
X6361015Y-12416698D02*
X6246729Y-12530984D01*
X6246729Y-12530984D02*
X6370539Y-12530984D01*
X6456253Y-12511936D02*
X6465777Y-12521460D01*
X6465777Y-12521460D02*
X6456253Y-12530984D01*
X6456253Y-12530984D02*
X6446729Y-12521460D01*
X6446729Y-12521460D02*
X6456253Y-12511936D01*
X6456253Y-12511936D02*
X6456253Y-12530984D01*
X6532443Y-12330984D02*
X6656253Y-12330984D01*
X6656253Y-12330984D02*
X6589586Y-12407174D01*
X6589586Y-12407174D02*
X6618158Y-12407174D01*
X6618158Y-12407174D02*
X6637205Y-12416698D01*
X6637205Y-12416698D02*
X6646729Y-12426222D01*
X6646729Y-12426222D02*
X6656253Y-12445269D01*
X6656253Y-12445269D02*
X6656253Y-12492888D01*
X6656253Y-12492888D02*
X6646729Y-12511936D01*
X6646729Y-12511936D02*
X6637205Y-12521460D01*
X6637205Y-12521460D02*
X6618158Y-12530984D01*
X6618158Y-12530984D02*
X6561015Y-12530984D01*
X6561015Y-12530984D02*
X6541967Y-12521460D01*
X6541967Y-12521460D02*
X6532443Y-12511936D01*
X6722920Y-12330984D02*
X6846729Y-12330984D01*
X6846729Y-12330984D02*
X6780062Y-12407174D01*
X6780062Y-12407174D02*
X6808634Y-12407174D01*
X6808634Y-12407174D02*
X6827682Y-12416698D01*
X6827682Y-12416698D02*
X6837205Y-12426222D01*
X6837205Y-12426222D02*
X6846729Y-12445269D01*
X6846729Y-12445269D02*
X6846729Y-12492888D01*
X6846729Y-12492888D02*
X6837205Y-12511936D01*
X6837205Y-12511936D02*
X6827682Y-12521460D01*
X6827682Y-12521460D02*
X6808634Y-12530984D01*
X6808634Y-12530984D02*
X6751491Y-12530984D01*
X6751491Y-12530984D02*
X6732443Y-12521460D01*
X6732443Y-12521460D02*
X6722920Y-12511936D01*
X6970539Y-12330984D02*
X6989586Y-12330984D01*
X6989586Y-12330984D02*
X7008634Y-12340508D01*
X7008634Y-12340508D02*
X7018158Y-12350031D01*
X7018158Y-12350031D02*
X7027682Y-12369079D01*
X7027682Y-12369079D02*
X7037205Y-12407174D01*
X7037205Y-12407174D02*
X7037205Y-12454793D01*
X7037205Y-12454793D02*
X7027682Y-12492888D01*
X7027682Y-12492888D02*
X7018158Y-12511936D01*
X7018158Y-12511936D02*
X7008634Y-12521460D01*
X7008634Y-12521460D02*
X6989586Y-12530984D01*
X6989586Y-12530984D02*
X6970539Y-12530984D01*
X6970539Y-12530984D02*
X6951491Y-12521460D01*
X6951491Y-12521460D02*
X6941967Y-12511936D01*
X6941967Y-12511936D02*
X6932443Y-12492888D01*
X6932443Y-12492888D02*
X6922920Y-12454793D01*
X6922920Y-12454793D02*
X6922920Y-12407174D01*
X6922920Y-12407174D02*
X6932443Y-12369079D01*
X6932443Y-12369079D02*
X6941967Y-12350031D01*
X6941967Y-12350031D02*
X6951491Y-12340508D01*
X6951491Y-12340508D02*
X6970539Y-12330984D01*
X7122920Y-12530984D02*
X7122920Y-12397650D01*
X7122920Y-12416698D02*
X7132443Y-12407174D01*
X7132443Y-12407174D02*
X7151491Y-12397650D01*
X7151491Y-12397650D02*
X7180063Y-12397650D01*
X7180063Y-12397650D02*
X7199110Y-12407174D01*
X7199110Y-12407174D02*
X7208634Y-12426222D01*
X7208634Y-12426222D02*
X7208634Y-12530984D01*
X7208634Y-12426222D02*
X7218158Y-12407174D01*
X7218158Y-12407174D02*
X7237205Y-12397650D01*
X7237205Y-12397650D02*
X7265777Y-12397650D01*
X7265777Y-12397650D02*
X7284824Y-12407174D01*
X7284824Y-12407174D02*
X7294348Y-12426222D01*
X7294348Y-12426222D02*
X7294348Y-12530984D01*
X7389586Y-12530984D02*
X7389586Y-12397650D01*
X7389586Y-12416698D02*
X7399110Y-12407174D01*
X7399110Y-12407174D02*
X7418158Y-12397650D01*
X7418158Y-12397650D02*
X7446729Y-12397650D01*
X7446729Y-12397650D02*
X7465777Y-12407174D01*
X7465777Y-12407174D02*
X7475301Y-12426222D01*
X7475301Y-12426222D02*
X7475301Y-12530984D01*
X7475301Y-12426222D02*
X7484824Y-12407174D01*
X7484824Y-12407174D02*
X7503872Y-12397650D01*
X7503872Y-12397650D02*
X7532443Y-12397650D01*
X7532443Y-12397650D02*
X7551491Y-12407174D01*
X7551491Y-12407174D02*
X7561015Y-12426222D01*
X7561015Y-12426222D02*
X7561015Y-12530984D01*
X7951491Y-12321460D02*
X7780063Y-12578603D01*
X8208634Y-12330984D02*
X8227682Y-12330984D01*
X8227682Y-12330984D02*
X8246729Y-12340508D01*
X8246729Y-12340508D02*
X8256253Y-12350031D01*
X8256253Y-12350031D02*
X8265777Y-12369079D01*
X8265777Y-12369079D02*
X8275301Y-12407174D01*
X8275301Y-12407174D02*
X8275301Y-12454793D01*
X8275301Y-12454793D02*
X8265777Y-12492888D01*
X8265777Y-12492888D02*
X8256253Y-12511936D01*
X8256253Y-12511936D02*
X8246729Y-12521460D01*
X8246729Y-12521460D02*
X8227682Y-12530984D01*
X8227682Y-12530984D02*
X8208634Y-12530984D01*
X8208634Y-12530984D02*
X8189586Y-12521460D01*
X8189586Y-12521460D02*
X8180063Y-12511936D01*
X8180063Y-12511936D02*
X8170539Y-12492888D01*
X8170539Y-12492888D02*
X8161015Y-12454793D01*
X8161015Y-12454793D02*
X8161015Y-12407174D01*
X8161015Y-12407174D02*
X8170539Y-12369079D01*
X8170539Y-12369079D02*
X8180063Y-12350031D01*
X8180063Y-12350031D02*
X8189586Y-12340508D01*
X8189586Y-12340508D02*
X8208634Y-12330984D01*
X8361015Y-12511936D02*
X8370539Y-12521460D01*
X8370539Y-12521460D02*
X8361015Y-12530984D01*
X8361015Y-12530984D02*
X8351491Y-12521460D01*
X8351491Y-12521460D02*
X8361015Y-12511936D01*
X8361015Y-12511936D02*
X8361015Y-12530984D01*
X8494348Y-12330984D02*
X8513396Y-12330984D01*
X8513396Y-12330984D02*
X8532444Y-12340508D01*
X8532444Y-12340508D02*
X8541968Y-12350031D01*
X8541968Y-12350031D02*
X8551491Y-12369079D01*
X8551491Y-12369079D02*
X8561015Y-12407174D01*
X8561015Y-12407174D02*
X8561015Y-12454793D01*
X8561015Y-12454793D02*
X8551491Y-12492888D01*
X8551491Y-12492888D02*
X8541968Y-12511936D01*
X8541968Y-12511936D02*
X8532444Y-12521460D01*
X8532444Y-12521460D02*
X8513396Y-12530984D01*
X8513396Y-12530984D02*
X8494348Y-12530984D01*
X8494348Y-12530984D02*
X8475301Y-12521460D01*
X8475301Y-12521460D02*
X8465777Y-12511936D01*
X8465777Y-12511936D02*
X8456253Y-12492888D01*
X8456253Y-12492888D02*
X8446729Y-12454793D01*
X8446729Y-12454793D02*
X8446729Y-12407174D01*
X8446729Y-12407174D02*
X8456253Y-12369079D01*
X8456253Y-12369079D02*
X8465777Y-12350031D01*
X8465777Y-12350031D02*
X8475301Y-12340508D01*
X8475301Y-12340508D02*
X8494348Y-12330984D01*
X8656253Y-12530984D02*
X8694348Y-12530984D01*
X8694348Y-12530984D02*
X8713396Y-12521460D01*
X8713396Y-12521460D02*
X8722920Y-12511936D01*
X8722920Y-12511936D02*
X8741968Y-12483365D01*
X8741968Y-12483365D02*
X8751491Y-12445269D01*
X8751491Y-12445269D02*
X8751491Y-12369079D01*
X8751491Y-12369079D02*
X8741968Y-12350031D01*
X8741968Y-12350031D02*
X8732444Y-12340508D01*
X8732444Y-12340508D02*
X8713396Y-12330984D01*
X8713396Y-12330984D02*
X8675301Y-12330984D01*
X8675301Y-12330984D02*
X8656253Y-12340508D01*
X8656253Y-12340508D02*
X8646729Y-12350031D01*
X8646729Y-12350031D02*
X8637206Y-12369079D01*
X8637206Y-12369079D02*
X8637206Y-12416698D01*
X8637206Y-12416698D02*
X8646729Y-12435746D01*
X8646729Y-12435746D02*
X8656253Y-12445269D01*
X8656253Y-12445269D02*
X8675301Y-12454793D01*
X8675301Y-12454793D02*
X8713396Y-12454793D01*
X8713396Y-12454793D02*
X8732444Y-12445269D01*
X8732444Y-12445269D02*
X8741968Y-12435746D01*
X8741968Y-12435746D02*
X8751491Y-12416698D01*
X8941968Y-12530984D02*
X8827682Y-12530984D01*
X8884825Y-12530984D02*
X8884825Y-12330984D01*
X8884825Y-12330984D02*
X8865777Y-12359555D01*
X8865777Y-12359555D02*
X8846729Y-12378603D01*
X8846729Y-12378603D02*
X8827682Y-12388127D01*
X9008634Y-12330984D02*
X9141968Y-12330984D01*
X9141968Y-12330984D02*
X9056253Y-12530984D01*
X9208634Y-12330984D02*
X9208634Y-12369079D01*
X9284825Y-12330984D02*
X9284825Y-12369079D01*
X9580063Y-12607174D02*
X9570539Y-12597650D01*
X9570539Y-12597650D02*
X9551491Y-12569079D01*
X9551491Y-12569079D02*
X9541968Y-12550031D01*
X9541968Y-12550031D02*
X9532444Y-12521460D01*
X9532444Y-12521460D02*
X9522920Y-12473841D01*
X9522920Y-12473841D02*
X9522920Y-12435746D01*
X9522920Y-12435746D02*
X9532444Y-12388127D01*
X9532444Y-12388127D02*
X9541968Y-12359555D01*
X9541968Y-12359555D02*
X9551491Y-12340508D01*
X9551491Y-12340508D02*
X9570539Y-12311936D01*
X9570539Y-12311936D02*
X9580063Y-12302412D01*
X9646730Y-12350031D02*
X9656253Y-12340508D01*
X9656253Y-12340508D02*
X9675301Y-12330984D01*
X9675301Y-12330984D02*
X9722920Y-12330984D01*
X9722920Y-12330984D02*
X9741968Y-12340508D01*
X9741968Y-12340508D02*
X9751491Y-12350031D01*
X9751491Y-12350031D02*
X9761015Y-12369079D01*
X9761015Y-12369079D02*
X9761015Y-12388127D01*
X9761015Y-12388127D02*
X9751491Y-12416698D01*
X9751491Y-12416698D02*
X9637206Y-12530984D01*
X9637206Y-12530984D02*
X9761015Y-12530984D01*
X9999111Y-12530984D02*
X9999111Y-12330984D01*
X10084825Y-12530984D02*
X10084825Y-12426222D01*
X10084825Y-12426222D02*
X10075301Y-12407174D01*
X10075301Y-12407174D02*
X10056253Y-12397650D01*
X10056253Y-12397650D02*
X10027682Y-12397650D01*
X10027682Y-12397650D02*
X10008634Y-12407174D01*
X10008634Y-12407174D02*
X9999111Y-12416698D01*
X10208634Y-12530984D02*
X10189587Y-12521460D01*
X10189587Y-12521460D02*
X10180063Y-12511936D01*
X10180063Y-12511936D02*
X10170539Y-12492888D01*
X10170539Y-12492888D02*
X10170539Y-12435746D01*
X10170539Y-12435746D02*
X10180063Y-12416698D01*
X10180063Y-12416698D02*
X10189587Y-12407174D01*
X10189587Y-12407174D02*
X10208634Y-12397650D01*
X10208634Y-12397650D02*
X10237206Y-12397650D01*
X10237206Y-12397650D02*
X10256253Y-12407174D01*
X10256253Y-12407174D02*
X10265777Y-12416698D01*
X10265777Y-12416698D02*
X10275301Y-12435746D01*
X10275301Y-12435746D02*
X10275301Y-12492888D01*
X10275301Y-12492888D02*
X10265777Y-12511936D01*
X10265777Y-12511936D02*
X10256253Y-12521460D01*
X10256253Y-12521460D02*
X10237206Y-12530984D01*
X10237206Y-12530984D02*
X10208634Y-12530984D01*
X10389587Y-12530984D02*
X10370539Y-12521460D01*
X10370539Y-12521460D02*
X10361015Y-12502412D01*
X10361015Y-12502412D02*
X10361015Y-12330984D01*
X10541968Y-12521460D02*
X10522920Y-12530984D01*
X10522920Y-12530984D02*
X10484825Y-12530984D01*
X10484825Y-12530984D02*
X10465777Y-12521460D01*
X10465777Y-12521460D02*
X10456253Y-12502412D01*
X10456253Y-12502412D02*
X10456253Y-12426222D01*
X10456253Y-12426222D02*
X10465777Y-12407174D01*
X10465777Y-12407174D02*
X10484825Y-12397650D01*
X10484825Y-12397650D02*
X10522920Y-12397650D01*
X10522920Y-12397650D02*
X10541968Y-12407174D01*
X10541968Y-12407174D02*
X10551492Y-12426222D01*
X10551492Y-12426222D02*
X10551492Y-12445269D01*
X10551492Y-12445269D02*
X10456253Y-12464317D01*
X10627682Y-12521460D02*
X10646730Y-12530984D01*
X10646730Y-12530984D02*
X10684825Y-12530984D01*
X10684825Y-12530984D02*
X10703873Y-12521460D01*
X10703873Y-12521460D02*
X10713396Y-12502412D01*
X10713396Y-12502412D02*
X10713396Y-12492888D01*
X10713396Y-12492888D02*
X10703873Y-12473841D01*
X10703873Y-12473841D02*
X10684825Y-12464317D01*
X10684825Y-12464317D02*
X10656253Y-12464317D01*
X10656253Y-12464317D02*
X10637206Y-12454793D01*
X10637206Y-12454793D02*
X10627682Y-12435746D01*
X10627682Y-12435746D02*
X10627682Y-12426222D01*
X10627682Y-12426222D02*
X10637206Y-12407174D01*
X10637206Y-12407174D02*
X10656253Y-12397650D01*
X10656253Y-12397650D02*
X10684825Y-12397650D01*
X10684825Y-12397650D02*
X10703873Y-12407174D01*
X10780063Y-12607174D02*
X10789587Y-12597650D01*
X10789587Y-12597650D02*
X10808634Y-12569079D01*
X10808634Y-12569079D02*
X10818158Y-12550031D01*
X10818158Y-12550031D02*
X10827682Y-12521460D01*
X10827682Y-12521460D02*
X10837206Y-12473841D01*
X10837206Y-12473841D02*
X10837206Y-12435746D01*
X10837206Y-12435746D02*
X10827682Y-12388127D01*
X10827682Y-12388127D02*
X10818158Y-12359555D01*
X10818158Y-12359555D02*
X10808634Y-12340508D01*
X10808634Y-12340508D02*
X10789587Y-12311936D01*
X10789587Y-12311936D02*
X10780063Y-12302412D01*
M02*
